M48
; DRILL file {KiCad (5.1.4)-1} date 12/10/2020 6:26:34 PM
; FORMAT={-:-/ absolute / inch / decimal}
; #@! TF.CreationDate,2020-12-10T18:26:34-06:00
; #@! TF.GenerationSoftware,Kicad,Pcbnew,(5.1.4)-1
; #@! TF.FileFunction,Plated,1,2,PTH
FMAT,2
INCH
T1C0.0157
T2C0.0276
T3C0.0409
T4C0.0579
%
G90
G05
T1
X6.9375Y-2.2212
X7.125Y-1.5337
X7.25Y-1.44
X7.3125Y-1.7837
X7.3135Y-1.941
X7.9062Y-2.19
X8.0625Y-1.6587
X8.2875Y-1.2775
X8.2875Y-1.2775
X8.2875Y-2.0275
X9.0375Y-2.0275
T3
X9.1375Y-2.3275
X9.2375Y-2.3275
X8.3875Y-1.5775
X8.4875Y-1.5775
X9.1375Y-1.5775
X9.2375Y-1.5775
X8.3875Y-2.3275
X8.4875Y-2.3275
T4
X9.0375Y-2.0275
X9.2875Y-1.9275
X8.2875Y-1.2775
X8.5375Y-1.1775
X9.0375Y-1.2775
X9.2875Y-1.1775
X8.2875Y-2.0275
X8.5375Y-1.9275
T2
G00X6.7276Y-1.0464
M15
G01X6.7276Y-1.0936
M16
G05
G00X6.7276Y-1.2235
M15
G01X6.7276Y-1.2708
M16
G05
G00X7.015Y-1.0464
M15
G01X7.015Y-1.0936
M16
G05
G00X7.015Y-1.2235
M15
G01X7.015Y-1.2708
M16
G05
T0
M30
