G04 #@! TF.GenerationSoftware,KiCad,Pcbnew,(5.1.4)-1*
G04 #@! TF.CreationDate,2020-12-10T18:26:19-06:00*
G04 #@! TF.ProjectId,pcb-guide,7063622d-6775-4696-9465-2e6b69636164,rev?*
G04 #@! TF.SameCoordinates,Original*
G04 #@! TF.FileFunction,Soldermask,Top*
G04 #@! TF.FilePolarity,Negative*
%FSLAX46Y46*%
G04 Gerber Fmt 4.6, Leading zero omitted, Abs format (unit mm)*
G04 Created by KiCad (PCBNEW (5.1.4)-1) date 2020-12-10 18:26:19*
%MOMM*%
%LPD*%
G04 APERTURE LIST*
%ADD10C,0.100000*%
G04 APERTURE END LIST*
D10*
G36*
X214908974Y-52072184D02*
G01*
X215126974Y-52162483D01*
X215281123Y-52226333D01*
X215616048Y-52450123D01*
X215900877Y-52734952D01*
X216124667Y-53069877D01*
X216157062Y-53148086D01*
X216278816Y-53442026D01*
X216357400Y-53837094D01*
X216357400Y-54239906D01*
X216278816Y-54634974D01*
X216227951Y-54757772D01*
X216124667Y-55007123D01*
X215900877Y-55342048D01*
X215616048Y-55626877D01*
X215281123Y-55850667D01*
X215126974Y-55914517D01*
X214908974Y-56004816D01*
X214513906Y-56083400D01*
X214111094Y-56083400D01*
X213716026Y-56004816D01*
X213498026Y-55914517D01*
X213343877Y-55850667D01*
X213008952Y-55626877D01*
X212724123Y-55342048D01*
X212500333Y-55007123D01*
X212397049Y-54757772D01*
X212346184Y-54634974D01*
X212267600Y-54239906D01*
X212267600Y-53837094D01*
X212346184Y-53442026D01*
X212467938Y-53148086D01*
X212500333Y-53069877D01*
X212724123Y-52734952D01*
X213008952Y-52450123D01*
X213343877Y-52226333D01*
X213498026Y-52162483D01*
X213716026Y-52072184D01*
X214111094Y-51993600D01*
X214513906Y-51993600D01*
X214908974Y-52072184D01*
X214908974Y-52072184D01*
G37*
G36*
X233958974Y-52072184D02*
G01*
X234176974Y-52162483D01*
X234331123Y-52226333D01*
X234666048Y-52450123D01*
X234950877Y-52734952D01*
X235174667Y-53069877D01*
X235207062Y-53148086D01*
X235328816Y-53442026D01*
X235407400Y-53837094D01*
X235407400Y-54239906D01*
X235328816Y-54634974D01*
X235277951Y-54757772D01*
X235174667Y-55007123D01*
X234950877Y-55342048D01*
X234666048Y-55626877D01*
X234331123Y-55850667D01*
X234176974Y-55914517D01*
X233958974Y-56004816D01*
X233563906Y-56083400D01*
X233161094Y-56083400D01*
X232766026Y-56004816D01*
X232548026Y-55914517D01*
X232393877Y-55850667D01*
X232058952Y-55626877D01*
X231774123Y-55342048D01*
X231550333Y-55007123D01*
X231447049Y-54757772D01*
X231396184Y-54634974D01*
X231317600Y-54239906D01*
X231317600Y-53837094D01*
X231396184Y-53442026D01*
X231517938Y-53148086D01*
X231550333Y-53069877D01*
X231774123Y-52734952D01*
X232058952Y-52450123D01*
X232393877Y-52226333D01*
X232548026Y-52162483D01*
X232766026Y-52072184D01*
X233161094Y-51993600D01*
X233563906Y-51993600D01*
X233958974Y-52072184D01*
X233958974Y-52072184D01*
G37*
G36*
X238712604Y-53148085D02*
G01*
X238881126Y-53217889D01*
X239032791Y-53319228D01*
X239161772Y-53448209D01*
X239263111Y-53599874D01*
X239332915Y-53768396D01*
X239368500Y-53947297D01*
X239368500Y-54129703D01*
X239332915Y-54308604D01*
X239263111Y-54477126D01*
X239161772Y-54628791D01*
X239032791Y-54757772D01*
X238881126Y-54859111D01*
X238712604Y-54928915D01*
X238533703Y-54964500D01*
X238351297Y-54964500D01*
X238172396Y-54928915D01*
X238003874Y-54859111D01*
X237852209Y-54757772D01*
X237723228Y-54628791D01*
X237621889Y-54477126D01*
X237552085Y-54308604D01*
X237516500Y-54129703D01*
X237516500Y-53947297D01*
X237552085Y-53768396D01*
X237621889Y-53599874D01*
X237723228Y-53448209D01*
X237852209Y-53319228D01*
X238003874Y-53217889D01*
X238172396Y-53148085D01*
X238351297Y-53112500D01*
X238533703Y-53112500D01*
X238712604Y-53148085D01*
X238712604Y-53148085D01*
G37*
G36*
X228552604Y-53148085D02*
G01*
X228721126Y-53217889D01*
X228872791Y-53319228D01*
X229001772Y-53448209D01*
X229103111Y-53599874D01*
X229172915Y-53768396D01*
X229208500Y-53947297D01*
X229208500Y-54129703D01*
X229172915Y-54308604D01*
X229103111Y-54477126D01*
X229001772Y-54628791D01*
X228872791Y-54757772D01*
X228721126Y-54859111D01*
X228552604Y-54928915D01*
X228373703Y-54964500D01*
X228191297Y-54964500D01*
X228012396Y-54928915D01*
X227843874Y-54859111D01*
X227692209Y-54757772D01*
X227563228Y-54628791D01*
X227461889Y-54477126D01*
X227392085Y-54308604D01*
X227356500Y-54129703D01*
X227356500Y-53947297D01*
X227392085Y-53768396D01*
X227461889Y-53599874D01*
X227563228Y-53448209D01*
X227692209Y-53319228D01*
X227843874Y-53217889D01*
X228012396Y-53148085D01*
X228191297Y-53112500D01*
X228373703Y-53112500D01*
X228552604Y-53148085D01*
X228552604Y-53148085D01*
G37*
G36*
X219662604Y-53148085D02*
G01*
X219831126Y-53217889D01*
X219982791Y-53319228D01*
X220111772Y-53448209D01*
X220213111Y-53599874D01*
X220282915Y-53768396D01*
X220318500Y-53947297D01*
X220318500Y-54129703D01*
X220282915Y-54308604D01*
X220213111Y-54477126D01*
X220111772Y-54628791D01*
X219982791Y-54757772D01*
X219831126Y-54859111D01*
X219662604Y-54928915D01*
X219483703Y-54964500D01*
X219301297Y-54964500D01*
X219122396Y-54928915D01*
X218953874Y-54859111D01*
X218802209Y-54757772D01*
X218673228Y-54628791D01*
X218571889Y-54477126D01*
X218502085Y-54308604D01*
X218466500Y-54129703D01*
X218466500Y-53947297D01*
X218502085Y-53768396D01*
X218571889Y-53599874D01*
X218673228Y-53448209D01*
X218802209Y-53319228D01*
X218953874Y-53217889D01*
X219122396Y-53148085D01*
X219301297Y-53112500D01*
X219483703Y-53112500D01*
X219662604Y-53148085D01*
X219662604Y-53148085D01*
G37*
G36*
X209502604Y-53148085D02*
G01*
X209671126Y-53217889D01*
X209822791Y-53319228D01*
X209951772Y-53448209D01*
X210053111Y-53599874D01*
X210122915Y-53768396D01*
X210158500Y-53947297D01*
X210158500Y-54129703D01*
X210122915Y-54308604D01*
X210053111Y-54477126D01*
X209951772Y-54628791D01*
X209822791Y-54757772D01*
X209671126Y-54859111D01*
X209502604Y-54928915D01*
X209323703Y-54964500D01*
X209141297Y-54964500D01*
X208962396Y-54928915D01*
X208793874Y-54859111D01*
X208642209Y-54757772D01*
X208513228Y-54628791D01*
X208411889Y-54477126D01*
X208342085Y-54308604D01*
X208306500Y-54129703D01*
X208306500Y-53947297D01*
X208342085Y-53768396D01*
X208411889Y-53599874D01*
X208513228Y-53448209D01*
X208642209Y-53319228D01*
X208793874Y-53217889D01*
X208962396Y-53148085D01*
X209141297Y-53112500D01*
X209323703Y-53112500D01*
X209502604Y-53148085D01*
X209502604Y-53148085D01*
G37*
G36*
X214908974Y-33022184D02*
G01*
X215056663Y-33083359D01*
X215281123Y-33176333D01*
X215616048Y-33400123D01*
X215900877Y-33684952D01*
X216124667Y-34019877D01*
X216157062Y-34098086D01*
X216278816Y-34392026D01*
X216357400Y-34787094D01*
X216357400Y-35189906D01*
X216278816Y-35584974D01*
X216227951Y-35707772D01*
X216124667Y-35957123D01*
X215900877Y-36292048D01*
X215616048Y-36576877D01*
X215281123Y-36800667D01*
X215126974Y-36864517D01*
X214908974Y-36954816D01*
X214513906Y-37033400D01*
X214111094Y-37033400D01*
X213716026Y-36954816D01*
X213498026Y-36864517D01*
X213343877Y-36800667D01*
X213008952Y-36576877D01*
X212724123Y-36292048D01*
X212500333Y-35957123D01*
X212397049Y-35707772D01*
X212346184Y-35584974D01*
X212267600Y-35189906D01*
X212267600Y-34787094D01*
X212346184Y-34392026D01*
X212467938Y-34098086D01*
X212500333Y-34019877D01*
X212724123Y-33684952D01*
X213008952Y-33400123D01*
X213343877Y-33176333D01*
X213568337Y-33083359D01*
X213716026Y-33022184D01*
X214111094Y-32943600D01*
X214513906Y-32943600D01*
X214908974Y-33022184D01*
X214908974Y-33022184D01*
G37*
G36*
X233958974Y-33022184D02*
G01*
X234106663Y-33083359D01*
X234331123Y-33176333D01*
X234666048Y-33400123D01*
X234950877Y-33684952D01*
X235174667Y-34019877D01*
X235207062Y-34098086D01*
X235328816Y-34392026D01*
X235407400Y-34787094D01*
X235407400Y-35189906D01*
X235328816Y-35584974D01*
X235277951Y-35707772D01*
X235174667Y-35957123D01*
X234950877Y-36292048D01*
X234666048Y-36576877D01*
X234331123Y-36800667D01*
X234176974Y-36864517D01*
X233958974Y-36954816D01*
X233563906Y-37033400D01*
X233161094Y-37033400D01*
X232766026Y-36954816D01*
X232548026Y-36864517D01*
X232393877Y-36800667D01*
X232058952Y-36576877D01*
X231774123Y-36292048D01*
X231550333Y-35957123D01*
X231447049Y-35707772D01*
X231396184Y-35584974D01*
X231317600Y-35189906D01*
X231317600Y-34787094D01*
X231396184Y-34392026D01*
X231517938Y-34098086D01*
X231550333Y-34019877D01*
X231774123Y-33684952D01*
X232058952Y-33400123D01*
X232393877Y-33176333D01*
X232618337Y-33083359D01*
X232766026Y-33022184D01*
X233161094Y-32943600D01*
X233563906Y-32943600D01*
X233958974Y-33022184D01*
X233958974Y-33022184D01*
G37*
G36*
X219662604Y-34098085D02*
G01*
X219831126Y-34167889D01*
X219982791Y-34269228D01*
X220111772Y-34398209D01*
X220213111Y-34549874D01*
X220282915Y-34718396D01*
X220318500Y-34897297D01*
X220318500Y-35079703D01*
X220282915Y-35258604D01*
X220213111Y-35427126D01*
X220111772Y-35578791D01*
X219982791Y-35707772D01*
X219831126Y-35809111D01*
X219662604Y-35878915D01*
X219483703Y-35914500D01*
X219301297Y-35914500D01*
X219122396Y-35878915D01*
X218953874Y-35809111D01*
X218802209Y-35707772D01*
X218673228Y-35578791D01*
X218571889Y-35427126D01*
X218502085Y-35258604D01*
X218466500Y-35079703D01*
X218466500Y-34897297D01*
X218502085Y-34718396D01*
X218571889Y-34549874D01*
X218673228Y-34398209D01*
X218802209Y-34269228D01*
X218953874Y-34167889D01*
X219122396Y-34098085D01*
X219301297Y-34062500D01*
X219483703Y-34062500D01*
X219662604Y-34098085D01*
X219662604Y-34098085D01*
G37*
G36*
X209502604Y-34098085D02*
G01*
X209671126Y-34167889D01*
X209822791Y-34269228D01*
X209951772Y-34398209D01*
X210053111Y-34549874D01*
X210122915Y-34718396D01*
X210158500Y-34897297D01*
X210158500Y-35079703D01*
X210122915Y-35258604D01*
X210053111Y-35427126D01*
X209951772Y-35578791D01*
X209822791Y-35707772D01*
X209671126Y-35809111D01*
X209502604Y-35878915D01*
X209323703Y-35914500D01*
X209141297Y-35914500D01*
X208962396Y-35878915D01*
X208793874Y-35809111D01*
X208642209Y-35707772D01*
X208513228Y-35578791D01*
X208411889Y-35427126D01*
X208342085Y-35258604D01*
X208306500Y-35079703D01*
X208306500Y-34897297D01*
X208342085Y-34718396D01*
X208411889Y-34549874D01*
X208513228Y-34398209D01*
X208642209Y-34269228D01*
X208793874Y-34167889D01*
X208962396Y-34098085D01*
X209141297Y-34062500D01*
X209323703Y-34062500D01*
X209502604Y-34098085D01*
X209502604Y-34098085D01*
G37*
G36*
X228552604Y-34098085D02*
G01*
X228721126Y-34167889D01*
X228872791Y-34269228D01*
X229001772Y-34398209D01*
X229103111Y-34549874D01*
X229172915Y-34718396D01*
X229208500Y-34897297D01*
X229208500Y-35079703D01*
X229172915Y-35258604D01*
X229103111Y-35427126D01*
X229001772Y-35578791D01*
X228872791Y-35707772D01*
X228721126Y-35809111D01*
X228552604Y-35878915D01*
X228373703Y-35914500D01*
X228191297Y-35914500D01*
X228012396Y-35878915D01*
X227843874Y-35809111D01*
X227692209Y-35707772D01*
X227563228Y-35578791D01*
X227461889Y-35427126D01*
X227392085Y-35258604D01*
X227356500Y-35079703D01*
X227356500Y-34897297D01*
X227392085Y-34718396D01*
X227461889Y-34549874D01*
X227563228Y-34398209D01*
X227692209Y-34269228D01*
X227843874Y-34167889D01*
X228012396Y-34098085D01*
X228191297Y-34062500D01*
X228373703Y-34062500D01*
X228552604Y-34098085D01*
X228552604Y-34098085D01*
G37*
G36*
X238712604Y-34098085D02*
G01*
X238881126Y-34167889D01*
X239032791Y-34269228D01*
X239161772Y-34398209D01*
X239263111Y-34549874D01*
X239332915Y-34718396D01*
X239368500Y-34897297D01*
X239368500Y-35079703D01*
X239332915Y-35258604D01*
X239263111Y-35427126D01*
X239161772Y-35578791D01*
X239032791Y-35707772D01*
X238881126Y-35809111D01*
X238712604Y-35878915D01*
X238533703Y-35914500D01*
X238351297Y-35914500D01*
X238172396Y-35878915D01*
X238003874Y-35809111D01*
X237852209Y-35707772D01*
X237723228Y-35578791D01*
X237621889Y-35427126D01*
X237552085Y-35258604D01*
X237516500Y-35079703D01*
X237516500Y-34897297D01*
X237552085Y-34718396D01*
X237621889Y-34549874D01*
X237723228Y-34398209D01*
X237852209Y-34269228D01*
X238003874Y-34167889D01*
X238172396Y-34098085D01*
X238351297Y-34062500D01*
X238533703Y-34062500D01*
X238712604Y-34098085D01*
X238712604Y-34098085D01*
G37*
G36*
X171057627Y-30290037D02*
G01*
X171227466Y-30341557D01*
X171383991Y-30425222D01*
X171419729Y-30454552D01*
X171521186Y-30537814D01*
X171604448Y-30639271D01*
X171633778Y-30675009D01*
X171717443Y-30831534D01*
X171768963Y-31001373D01*
X171782000Y-31133742D01*
X171782000Y-32222258D01*
X171768963Y-32354627D01*
X171717443Y-32524466D01*
X171633778Y-32680991D01*
X171604448Y-32716729D01*
X171521186Y-32818186D01*
X171383989Y-32930779D01*
X171227467Y-33014442D01*
X171227465Y-33014443D01*
X171057626Y-33065963D01*
X170881000Y-33083359D01*
X170704373Y-33065963D01*
X170534534Y-33014443D01*
X170378009Y-32930778D01*
X170342271Y-32901448D01*
X170240814Y-32818186D01*
X170128221Y-32680989D01*
X170044558Y-32524467D01*
X170044557Y-32524465D01*
X169993037Y-32354626D01*
X169980000Y-32222257D01*
X169980001Y-31133742D01*
X169993038Y-31001373D01*
X170044558Y-30831534D01*
X170128223Y-30675009D01*
X170157553Y-30639271D01*
X170240815Y-30537814D01*
X170342272Y-30454552D01*
X170378010Y-30425222D01*
X170534535Y-30341557D01*
X170704374Y-30290037D01*
X170881000Y-30272641D01*
X171057627Y-30290037D01*
X171057627Y-30290037D01*
G37*
G36*
X178357627Y-30290037D02*
G01*
X178527466Y-30341557D01*
X178683991Y-30425222D01*
X178719729Y-30454552D01*
X178821186Y-30537814D01*
X178904448Y-30639271D01*
X178933778Y-30675009D01*
X179017443Y-30831534D01*
X179068963Y-31001373D01*
X179082000Y-31133742D01*
X179082000Y-32222258D01*
X179068963Y-32354627D01*
X179017443Y-32524466D01*
X178933778Y-32680991D01*
X178904448Y-32716729D01*
X178821186Y-32818186D01*
X178683989Y-32930779D01*
X178527467Y-33014442D01*
X178527465Y-33014443D01*
X178357626Y-33065963D01*
X178181000Y-33083359D01*
X178004373Y-33065963D01*
X177834534Y-33014443D01*
X177678009Y-32930778D01*
X177642271Y-32901448D01*
X177540814Y-32818186D01*
X177428221Y-32680989D01*
X177344558Y-32524467D01*
X177344557Y-32524465D01*
X177293037Y-32354626D01*
X177280000Y-32222257D01*
X177280001Y-31133742D01*
X177293038Y-31001373D01*
X177344558Y-30831534D01*
X177428223Y-30675009D01*
X177457553Y-30639271D01*
X177540815Y-30537814D01*
X177642272Y-30454552D01*
X177678010Y-30425222D01*
X177834535Y-30341557D01*
X178004374Y-30290037D01*
X178181000Y-30272641D01*
X178357627Y-30290037D01*
X178357627Y-30290037D01*
G37*
G36*
X171057627Y-25790037D02*
G01*
X171227466Y-25841557D01*
X171383991Y-25925222D01*
X171419729Y-25954552D01*
X171521186Y-26037814D01*
X171604448Y-26139271D01*
X171633778Y-26175009D01*
X171717443Y-26331534D01*
X171768963Y-26501373D01*
X171782000Y-26633742D01*
X171782000Y-27722258D01*
X171768963Y-27854627D01*
X171717443Y-28024466D01*
X171633778Y-28180991D01*
X171604448Y-28216729D01*
X171521186Y-28318186D01*
X171383989Y-28430779D01*
X171227467Y-28514442D01*
X171227465Y-28514443D01*
X171057626Y-28565963D01*
X170881000Y-28583359D01*
X170704373Y-28565963D01*
X170534534Y-28514443D01*
X170378009Y-28430778D01*
X170342271Y-28401448D01*
X170240814Y-28318186D01*
X170128221Y-28180989D01*
X170044558Y-28024467D01*
X170044557Y-28024465D01*
X169993037Y-27854626D01*
X169980000Y-27722257D01*
X169980001Y-26633742D01*
X169993038Y-26501373D01*
X170044558Y-26331534D01*
X170128223Y-26175009D01*
X170157553Y-26139271D01*
X170240815Y-26037814D01*
X170342272Y-25954552D01*
X170378010Y-25925222D01*
X170534535Y-25841557D01*
X170704374Y-25790037D01*
X170881000Y-25772641D01*
X171057627Y-25790037D01*
X171057627Y-25790037D01*
G37*
G36*
X178357627Y-25790037D02*
G01*
X178527466Y-25841557D01*
X178683991Y-25925222D01*
X178719729Y-25954552D01*
X178821186Y-26037814D01*
X178904448Y-26139271D01*
X178933778Y-26175009D01*
X179017443Y-26331534D01*
X179068963Y-26501373D01*
X179082000Y-26633742D01*
X179082000Y-27722258D01*
X179068963Y-27854627D01*
X179017443Y-28024466D01*
X178933778Y-28180991D01*
X178904448Y-28216729D01*
X178821186Y-28318186D01*
X178683989Y-28430779D01*
X178527467Y-28514442D01*
X178527465Y-28514443D01*
X178357626Y-28565963D01*
X178181000Y-28583359D01*
X178004373Y-28565963D01*
X177834534Y-28514443D01*
X177678009Y-28430778D01*
X177642271Y-28401448D01*
X177540814Y-28318186D01*
X177428221Y-28180989D01*
X177344558Y-28024467D01*
X177344557Y-28024465D01*
X177293037Y-27854626D01*
X177280000Y-27722257D01*
X177280001Y-26633742D01*
X177293038Y-26501373D01*
X177344558Y-26331534D01*
X177428223Y-26175009D01*
X177457553Y-26139271D01*
X177540815Y-26037814D01*
X177642272Y-25954552D01*
X177678010Y-25925222D01*
X177834535Y-25841557D01*
X178004374Y-25790037D01*
X178181000Y-25772641D01*
X178357627Y-25790037D01*
X178357627Y-25790037D01*
G37*
M02*
