G04 #@! TF.GenerationSoftware,KiCad,Pcbnew,(5.1.4)-1*
G04 #@! TF.CreationDate,2020-12-10T18:26:19-06:00*
G04 #@! TF.ProjectId,pcb-guide,7063622d-6775-4696-9465-2e6b69636164,rev?*
G04 #@! TF.SameCoordinates,Original*
G04 #@! TF.FileFunction,Copper,L1,Top*
G04 #@! TF.FilePolarity,Positive*
%FSLAX46Y46*%
G04 Gerber Fmt 4.6, Leading zero omitted, Abs format (unit mm)*
G04 Created by KiCad (PCBNEW (5.1.4)-1) date 2020-12-10 18:26:19*
%MOMM*%
%LPD*%
G04 APERTURE LIST*
%ADD10O,1.700000X2.700000*%
%ADD11R,1.905000X1.905000*%
%ADD12C,1.905000*%
%ADD13C,2.250000*%
%ADD14C,0.800000*%
%ADD15C,0.381000*%
%ADD16C,0.254000*%
G04 APERTURE END LIST*
D10*
X170881000Y-27178000D03*
X178181000Y-27178000D03*
X178181000Y-31678000D03*
X170881000Y-31678000D03*
D11*
X234632500Y-59118500D03*
D12*
X232092500Y-59118500D03*
D13*
X229552500Y-51498500D03*
X235902500Y-48958500D03*
D11*
X215582500Y-59118500D03*
D12*
X213042500Y-59118500D03*
D13*
X210502500Y-51498500D03*
X216852500Y-48958500D03*
D11*
X234632500Y-40068500D03*
D12*
X232092500Y-40068500D03*
D13*
X229552500Y-32448500D03*
X235902500Y-29908500D03*
D11*
X215582500Y-40068500D03*
D12*
X213042500Y-40068500D03*
D13*
X210502500Y-32448500D03*
X216852500Y-29908500D03*
D14*
X184150000Y-36576000D03*
X185737500Y-45307250D03*
X185762500Y-49301000D03*
X200818750Y-55626000D03*
X204787500Y-42132250D03*
X176212500Y-56419750D03*
X180975000Y-38957250D03*
X210502500Y-32448500D03*
X210502500Y-32448500D03*
X210502500Y-51498500D03*
X229552500Y-51498500D03*
D15*
X184150000Y-36576000D02*
X185737500Y-38163500D01*
X185737500Y-49276000D02*
X192087500Y-55626000D01*
X200818750Y-55626000D02*
X204787500Y-51657250D01*
X204787500Y-51657250D02*
X204787500Y-42132250D01*
X185737500Y-38163500D02*
X185737500Y-45307250D01*
X185737500Y-45307250D02*
X185737500Y-49276000D01*
X192087500Y-55626000D02*
X200818750Y-55626000D01*
D16*
X176212500Y-56419750D02*
X177006250Y-55626000D01*
X177006250Y-55626000D02*
X180975000Y-55626000D01*
X180975000Y-55626000D02*
X180975000Y-38957250D01*
X210502500Y-32448500D02*
X210502500Y-48728500D01*
X210502500Y-48728500D02*
X210502500Y-51498500D01*
X229552500Y-32448500D02*
X229552500Y-51498500D01*
M02*
