G04 #@! TF.GenerationSoftware,KiCad,Pcbnew,(5.1.4)-1*
G04 #@! TF.CreationDate,2020-12-10T18:26:19-06:00*
G04 #@! TF.ProjectId,pcb-guide,7063622d-6775-4696-9465-2e6b69636164,rev?*
G04 #@! TF.SameCoordinates,Original*
G04 #@! TF.FileFunction,Copper,L2,Bot*
G04 #@! TF.FilePolarity,Positive*
%FSLAX46Y46*%
G04 Gerber Fmt 4.6, Leading zero omitted, Abs format (unit mm)*
G04 Created by KiCad (PCBNEW (5.1.4)-1) date 2020-12-10 18:26:19*
%MOMM*%
%LPD*%
G04 APERTURE LIST*
%ADD10O,1.700000X2.700000*%
%ADD11R,0.500000X2.250000*%
%ADD12R,1.905000X1.905000*%
%ADD13C,1.905000*%
%ADD14C,2.250000*%
%ADD15R,1.400000X1.200000*%
%ADD16R,0.550000X1.500000*%
%ADD17R,1.500000X0.550000*%
%ADD18R,1.800000X1.100000*%
%ADD19C,0.100000*%
%ADD20C,0.975000*%
%ADD21C,1.250000*%
%ADD22R,1.200000X0.900000*%
%ADD23C,0.800000*%
%ADD24C,0.381000*%
%ADD25C,0.254000*%
G04 APERTURE END LIST*
D10*
X170881000Y-27178000D03*
X178181000Y-27178000D03*
X178181000Y-31678000D03*
X170881000Y-31678000D03*
D11*
X172931000Y-31678000D03*
X173731000Y-31678000D03*
X174531000Y-31678000D03*
X175331000Y-31678000D03*
X176131000Y-31678000D03*
D12*
X234632500Y-59118500D03*
D13*
X232092500Y-59118500D03*
D14*
X229552500Y-51498500D03*
X235902500Y-48958500D03*
D12*
X215582500Y-59118500D03*
D13*
X213042500Y-59118500D03*
D14*
X210502500Y-51498500D03*
X216852500Y-48958500D03*
D12*
X234632500Y-40068500D03*
D13*
X232092500Y-40068500D03*
D14*
X229552500Y-32448500D03*
X235902500Y-29908500D03*
D12*
X215582500Y-40068500D03*
D13*
X213042500Y-40068500D03*
D14*
X210502500Y-32448500D03*
X216852500Y-29908500D03*
D15*
X195262500Y-31757250D03*
X193062500Y-31757250D03*
X193062500Y-33457250D03*
X195262500Y-33457250D03*
D16*
X189675000Y-51801000D03*
X190475000Y-51801000D03*
X191275000Y-51801000D03*
X192075000Y-51801000D03*
X192875000Y-51801000D03*
X193675000Y-51801000D03*
X194475000Y-51801000D03*
X195275000Y-51801000D03*
X196075000Y-51801000D03*
X196875000Y-51801000D03*
X197675000Y-51801000D03*
D17*
X199375000Y-50101000D03*
X199375000Y-49301000D03*
X199375000Y-48501000D03*
X199375000Y-47701000D03*
X199375000Y-46901000D03*
X199375000Y-46101000D03*
X199375000Y-45301000D03*
X199375000Y-44501000D03*
X199375000Y-43701000D03*
X199375000Y-42901000D03*
X199375000Y-42101000D03*
D16*
X197675000Y-40401000D03*
X196875000Y-40401000D03*
X196075000Y-40401000D03*
X195275000Y-40401000D03*
X194475000Y-40401000D03*
X193675000Y-40401000D03*
X192875000Y-40401000D03*
X192075000Y-40401000D03*
X191275000Y-40401000D03*
X190475000Y-40401000D03*
X189675000Y-40401000D03*
D17*
X187975000Y-42101000D03*
X187975000Y-42901000D03*
X187975000Y-43701000D03*
X187975000Y-44501000D03*
X187975000Y-45301000D03*
X187975000Y-46101000D03*
X187975000Y-46901000D03*
X187975000Y-47701000D03*
X187975000Y-48501000D03*
X187975000Y-49301000D03*
X187975000Y-50101000D03*
D18*
X174550000Y-60651000D03*
X168350000Y-56951000D03*
X174550000Y-56951000D03*
X168350000Y-60651000D03*
D19*
G36*
X203680142Y-48789674D02*
G01*
X203703803Y-48793184D01*
X203727007Y-48798996D01*
X203749529Y-48807054D01*
X203771153Y-48817282D01*
X203791670Y-48829579D01*
X203810883Y-48843829D01*
X203828607Y-48859893D01*
X203844671Y-48877617D01*
X203858921Y-48896830D01*
X203871218Y-48917347D01*
X203881446Y-48938971D01*
X203889504Y-48961493D01*
X203895316Y-48984697D01*
X203898826Y-49008358D01*
X203900000Y-49032250D01*
X203900000Y-49519750D01*
X203898826Y-49543642D01*
X203895316Y-49567303D01*
X203889504Y-49590507D01*
X203881446Y-49613029D01*
X203871218Y-49634653D01*
X203858921Y-49655170D01*
X203844671Y-49674383D01*
X203828607Y-49692107D01*
X203810883Y-49708171D01*
X203791670Y-49722421D01*
X203771153Y-49734718D01*
X203749529Y-49744946D01*
X203727007Y-49753004D01*
X203703803Y-49758816D01*
X203680142Y-49762326D01*
X203656250Y-49763500D01*
X202743750Y-49763500D01*
X202719858Y-49762326D01*
X202696197Y-49758816D01*
X202672993Y-49753004D01*
X202650471Y-49744946D01*
X202628847Y-49734718D01*
X202608330Y-49722421D01*
X202589117Y-49708171D01*
X202571393Y-49692107D01*
X202555329Y-49674383D01*
X202541079Y-49655170D01*
X202528782Y-49634653D01*
X202518554Y-49613029D01*
X202510496Y-49590507D01*
X202504684Y-49567303D01*
X202501174Y-49543642D01*
X202500000Y-49519750D01*
X202500000Y-49032250D01*
X202501174Y-49008358D01*
X202504684Y-48984697D01*
X202510496Y-48961493D01*
X202518554Y-48938971D01*
X202528782Y-48917347D01*
X202541079Y-48896830D01*
X202555329Y-48877617D01*
X202571393Y-48859893D01*
X202589117Y-48843829D01*
X202608330Y-48829579D01*
X202628847Y-48817282D01*
X202650471Y-48807054D01*
X202672993Y-48798996D01*
X202696197Y-48793184D01*
X202719858Y-48789674D01*
X202743750Y-48788500D01*
X203656250Y-48788500D01*
X203680142Y-48789674D01*
X203680142Y-48789674D01*
G37*
D20*
X203200000Y-49276000D03*
D19*
G36*
X203680142Y-50664674D02*
G01*
X203703803Y-50668184D01*
X203727007Y-50673996D01*
X203749529Y-50682054D01*
X203771153Y-50692282D01*
X203791670Y-50704579D01*
X203810883Y-50718829D01*
X203828607Y-50734893D01*
X203844671Y-50752617D01*
X203858921Y-50771830D01*
X203871218Y-50792347D01*
X203881446Y-50813971D01*
X203889504Y-50836493D01*
X203895316Y-50859697D01*
X203898826Y-50883358D01*
X203900000Y-50907250D01*
X203900000Y-51394750D01*
X203898826Y-51418642D01*
X203895316Y-51442303D01*
X203889504Y-51465507D01*
X203881446Y-51488029D01*
X203871218Y-51509653D01*
X203858921Y-51530170D01*
X203844671Y-51549383D01*
X203828607Y-51567107D01*
X203810883Y-51583171D01*
X203791670Y-51597421D01*
X203771153Y-51609718D01*
X203749529Y-51619946D01*
X203727007Y-51628004D01*
X203703803Y-51633816D01*
X203680142Y-51637326D01*
X203656250Y-51638500D01*
X202743750Y-51638500D01*
X202719858Y-51637326D01*
X202696197Y-51633816D01*
X202672993Y-51628004D01*
X202650471Y-51619946D01*
X202628847Y-51609718D01*
X202608330Y-51597421D01*
X202589117Y-51583171D01*
X202571393Y-51567107D01*
X202555329Y-51549383D01*
X202541079Y-51530170D01*
X202528782Y-51509653D01*
X202518554Y-51488029D01*
X202510496Y-51465507D01*
X202504684Y-51442303D01*
X202501174Y-51418642D01*
X202500000Y-51394750D01*
X202500000Y-50907250D01*
X202501174Y-50883358D01*
X202504684Y-50859697D01*
X202510496Y-50836493D01*
X202518554Y-50813971D01*
X202528782Y-50792347D01*
X202541079Y-50771830D01*
X202555329Y-50752617D01*
X202571393Y-50734893D01*
X202589117Y-50718829D01*
X202608330Y-50704579D01*
X202628847Y-50692282D01*
X202650471Y-50682054D01*
X202672993Y-50673996D01*
X202696197Y-50668184D01*
X202719858Y-50664674D01*
X202743750Y-50663500D01*
X203656250Y-50663500D01*
X203680142Y-50664674D01*
X203680142Y-50664674D01*
G37*
D20*
X203200000Y-51151000D03*
D19*
G36*
X171930142Y-36595924D02*
G01*
X171953803Y-36599434D01*
X171977007Y-36605246D01*
X171999529Y-36613304D01*
X172021153Y-36623532D01*
X172041670Y-36635829D01*
X172060883Y-36650079D01*
X172078607Y-36666143D01*
X172094671Y-36683867D01*
X172108921Y-36703080D01*
X172121218Y-36723597D01*
X172131446Y-36745221D01*
X172139504Y-36767743D01*
X172145316Y-36790947D01*
X172148826Y-36814608D01*
X172150000Y-36838500D01*
X172150000Y-37326000D01*
X172148826Y-37349892D01*
X172145316Y-37373553D01*
X172139504Y-37396757D01*
X172131446Y-37419279D01*
X172121218Y-37440903D01*
X172108921Y-37461420D01*
X172094671Y-37480633D01*
X172078607Y-37498357D01*
X172060883Y-37514421D01*
X172041670Y-37528671D01*
X172021153Y-37540968D01*
X171999529Y-37551196D01*
X171977007Y-37559254D01*
X171953803Y-37565066D01*
X171930142Y-37568576D01*
X171906250Y-37569750D01*
X170993750Y-37569750D01*
X170969858Y-37568576D01*
X170946197Y-37565066D01*
X170922993Y-37559254D01*
X170900471Y-37551196D01*
X170878847Y-37540968D01*
X170858330Y-37528671D01*
X170839117Y-37514421D01*
X170821393Y-37498357D01*
X170805329Y-37480633D01*
X170791079Y-37461420D01*
X170778782Y-37440903D01*
X170768554Y-37419279D01*
X170760496Y-37396757D01*
X170754684Y-37373553D01*
X170751174Y-37349892D01*
X170750000Y-37326000D01*
X170750000Y-36838500D01*
X170751174Y-36814608D01*
X170754684Y-36790947D01*
X170760496Y-36767743D01*
X170768554Y-36745221D01*
X170778782Y-36723597D01*
X170791079Y-36703080D01*
X170805329Y-36683867D01*
X170821393Y-36666143D01*
X170839117Y-36650079D01*
X170858330Y-36635829D01*
X170878847Y-36623532D01*
X170900471Y-36613304D01*
X170922993Y-36605246D01*
X170946197Y-36599434D01*
X170969858Y-36595924D01*
X170993750Y-36594750D01*
X171906250Y-36594750D01*
X171930142Y-36595924D01*
X171930142Y-36595924D01*
G37*
D20*
X171450000Y-37082250D03*
D19*
G36*
X171930142Y-38470924D02*
G01*
X171953803Y-38474434D01*
X171977007Y-38480246D01*
X171999529Y-38488304D01*
X172021153Y-38498532D01*
X172041670Y-38510829D01*
X172060883Y-38525079D01*
X172078607Y-38541143D01*
X172094671Y-38558867D01*
X172108921Y-38578080D01*
X172121218Y-38598597D01*
X172131446Y-38620221D01*
X172139504Y-38642743D01*
X172145316Y-38665947D01*
X172148826Y-38689608D01*
X172150000Y-38713500D01*
X172150000Y-39201000D01*
X172148826Y-39224892D01*
X172145316Y-39248553D01*
X172139504Y-39271757D01*
X172131446Y-39294279D01*
X172121218Y-39315903D01*
X172108921Y-39336420D01*
X172094671Y-39355633D01*
X172078607Y-39373357D01*
X172060883Y-39389421D01*
X172041670Y-39403671D01*
X172021153Y-39415968D01*
X171999529Y-39426196D01*
X171977007Y-39434254D01*
X171953803Y-39440066D01*
X171930142Y-39443576D01*
X171906250Y-39444750D01*
X170993750Y-39444750D01*
X170969858Y-39443576D01*
X170946197Y-39440066D01*
X170922993Y-39434254D01*
X170900471Y-39426196D01*
X170878847Y-39415968D01*
X170858330Y-39403671D01*
X170839117Y-39389421D01*
X170821393Y-39373357D01*
X170805329Y-39355633D01*
X170791079Y-39336420D01*
X170778782Y-39315903D01*
X170768554Y-39294279D01*
X170760496Y-39271757D01*
X170754684Y-39248553D01*
X170751174Y-39224892D01*
X170750000Y-39201000D01*
X170750000Y-38713500D01*
X170751174Y-38689608D01*
X170754684Y-38665947D01*
X170760496Y-38642743D01*
X170768554Y-38620221D01*
X170778782Y-38598597D01*
X170791079Y-38578080D01*
X170805329Y-38558867D01*
X170821393Y-38541143D01*
X170839117Y-38525079D01*
X170858330Y-38510829D01*
X170878847Y-38498532D01*
X170900471Y-38488304D01*
X170922993Y-38480246D01*
X170946197Y-38474434D01*
X170969858Y-38470924D01*
X170993750Y-38469750D01*
X171906250Y-38469750D01*
X171930142Y-38470924D01*
X171930142Y-38470924D01*
G37*
D20*
X171450000Y-38957250D03*
D19*
G36*
X175105142Y-36595924D02*
G01*
X175128803Y-36599434D01*
X175152007Y-36605246D01*
X175174529Y-36613304D01*
X175196153Y-36623532D01*
X175216670Y-36635829D01*
X175235883Y-36650079D01*
X175253607Y-36666143D01*
X175269671Y-36683867D01*
X175283921Y-36703080D01*
X175296218Y-36723597D01*
X175306446Y-36745221D01*
X175314504Y-36767743D01*
X175320316Y-36790947D01*
X175323826Y-36814608D01*
X175325000Y-36838500D01*
X175325000Y-37326000D01*
X175323826Y-37349892D01*
X175320316Y-37373553D01*
X175314504Y-37396757D01*
X175306446Y-37419279D01*
X175296218Y-37440903D01*
X175283921Y-37461420D01*
X175269671Y-37480633D01*
X175253607Y-37498357D01*
X175235883Y-37514421D01*
X175216670Y-37528671D01*
X175196153Y-37540968D01*
X175174529Y-37551196D01*
X175152007Y-37559254D01*
X175128803Y-37565066D01*
X175105142Y-37568576D01*
X175081250Y-37569750D01*
X174168750Y-37569750D01*
X174144858Y-37568576D01*
X174121197Y-37565066D01*
X174097993Y-37559254D01*
X174075471Y-37551196D01*
X174053847Y-37540968D01*
X174033330Y-37528671D01*
X174014117Y-37514421D01*
X173996393Y-37498357D01*
X173980329Y-37480633D01*
X173966079Y-37461420D01*
X173953782Y-37440903D01*
X173943554Y-37419279D01*
X173935496Y-37396757D01*
X173929684Y-37373553D01*
X173926174Y-37349892D01*
X173925000Y-37326000D01*
X173925000Y-36838500D01*
X173926174Y-36814608D01*
X173929684Y-36790947D01*
X173935496Y-36767743D01*
X173943554Y-36745221D01*
X173953782Y-36723597D01*
X173966079Y-36703080D01*
X173980329Y-36683867D01*
X173996393Y-36666143D01*
X174014117Y-36650079D01*
X174033330Y-36635829D01*
X174053847Y-36623532D01*
X174075471Y-36613304D01*
X174097993Y-36605246D01*
X174121197Y-36599434D01*
X174144858Y-36595924D01*
X174168750Y-36594750D01*
X175081250Y-36594750D01*
X175105142Y-36595924D01*
X175105142Y-36595924D01*
G37*
D20*
X174625000Y-37082250D03*
D19*
G36*
X175105142Y-38470924D02*
G01*
X175128803Y-38474434D01*
X175152007Y-38480246D01*
X175174529Y-38488304D01*
X175196153Y-38498532D01*
X175216670Y-38510829D01*
X175235883Y-38525079D01*
X175253607Y-38541143D01*
X175269671Y-38558867D01*
X175283921Y-38578080D01*
X175296218Y-38598597D01*
X175306446Y-38620221D01*
X175314504Y-38642743D01*
X175320316Y-38665947D01*
X175323826Y-38689608D01*
X175325000Y-38713500D01*
X175325000Y-39201000D01*
X175323826Y-39224892D01*
X175320316Y-39248553D01*
X175314504Y-39271757D01*
X175306446Y-39294279D01*
X175296218Y-39315903D01*
X175283921Y-39336420D01*
X175269671Y-39355633D01*
X175253607Y-39373357D01*
X175235883Y-39389421D01*
X175216670Y-39403671D01*
X175196153Y-39415968D01*
X175174529Y-39426196D01*
X175152007Y-39434254D01*
X175128803Y-39440066D01*
X175105142Y-39443576D01*
X175081250Y-39444750D01*
X174168750Y-39444750D01*
X174144858Y-39443576D01*
X174121197Y-39440066D01*
X174097993Y-39434254D01*
X174075471Y-39426196D01*
X174053847Y-39415968D01*
X174033330Y-39403671D01*
X174014117Y-39389421D01*
X173996393Y-39373357D01*
X173980329Y-39355633D01*
X173966079Y-39336420D01*
X173953782Y-39315903D01*
X173943554Y-39294279D01*
X173935496Y-39271757D01*
X173929684Y-39248553D01*
X173926174Y-39224892D01*
X173925000Y-39201000D01*
X173925000Y-38713500D01*
X173926174Y-38689608D01*
X173929684Y-38665947D01*
X173935496Y-38642743D01*
X173943554Y-38620221D01*
X173953782Y-38598597D01*
X173966079Y-38578080D01*
X173980329Y-38558867D01*
X173996393Y-38541143D01*
X174014117Y-38525079D01*
X174033330Y-38510829D01*
X174053847Y-38498532D01*
X174075471Y-38488304D01*
X174097993Y-38480246D01*
X174121197Y-38474434D01*
X174144858Y-38470924D01*
X174168750Y-38469750D01*
X175081250Y-38469750D01*
X175105142Y-38470924D01*
X175105142Y-38470924D01*
G37*
D20*
X174625000Y-38957250D03*
D19*
G36*
X183042642Y-37964674D02*
G01*
X183066303Y-37968184D01*
X183089507Y-37973996D01*
X183112029Y-37982054D01*
X183133653Y-37992282D01*
X183154170Y-38004579D01*
X183173383Y-38018829D01*
X183191107Y-38034893D01*
X183207171Y-38052617D01*
X183221421Y-38071830D01*
X183233718Y-38092347D01*
X183243946Y-38113971D01*
X183252004Y-38136493D01*
X183257816Y-38159697D01*
X183261326Y-38183358D01*
X183262500Y-38207250D01*
X183262500Y-38694750D01*
X183261326Y-38718642D01*
X183257816Y-38742303D01*
X183252004Y-38765507D01*
X183243946Y-38788029D01*
X183233718Y-38809653D01*
X183221421Y-38830170D01*
X183207171Y-38849383D01*
X183191107Y-38867107D01*
X183173383Y-38883171D01*
X183154170Y-38897421D01*
X183133653Y-38909718D01*
X183112029Y-38919946D01*
X183089507Y-38928004D01*
X183066303Y-38933816D01*
X183042642Y-38937326D01*
X183018750Y-38938500D01*
X182106250Y-38938500D01*
X182082358Y-38937326D01*
X182058697Y-38933816D01*
X182035493Y-38928004D01*
X182012971Y-38919946D01*
X181991347Y-38909718D01*
X181970830Y-38897421D01*
X181951617Y-38883171D01*
X181933893Y-38867107D01*
X181917829Y-38849383D01*
X181903579Y-38830170D01*
X181891282Y-38809653D01*
X181881054Y-38788029D01*
X181872996Y-38765507D01*
X181867184Y-38742303D01*
X181863674Y-38718642D01*
X181862500Y-38694750D01*
X181862500Y-38207250D01*
X181863674Y-38183358D01*
X181867184Y-38159697D01*
X181872996Y-38136493D01*
X181881054Y-38113971D01*
X181891282Y-38092347D01*
X181903579Y-38071830D01*
X181917829Y-38052617D01*
X181933893Y-38034893D01*
X181951617Y-38018829D01*
X181970830Y-38004579D01*
X181991347Y-37992282D01*
X182012971Y-37982054D01*
X182035493Y-37973996D01*
X182058697Y-37968184D01*
X182082358Y-37964674D01*
X182106250Y-37963500D01*
X183018750Y-37963500D01*
X183042642Y-37964674D01*
X183042642Y-37964674D01*
G37*
D20*
X182562500Y-38451000D03*
D19*
G36*
X183042642Y-36089674D02*
G01*
X183066303Y-36093184D01*
X183089507Y-36098996D01*
X183112029Y-36107054D01*
X183133653Y-36117282D01*
X183154170Y-36129579D01*
X183173383Y-36143829D01*
X183191107Y-36159893D01*
X183207171Y-36177617D01*
X183221421Y-36196830D01*
X183233718Y-36217347D01*
X183243946Y-36238971D01*
X183252004Y-36261493D01*
X183257816Y-36284697D01*
X183261326Y-36308358D01*
X183262500Y-36332250D01*
X183262500Y-36819750D01*
X183261326Y-36843642D01*
X183257816Y-36867303D01*
X183252004Y-36890507D01*
X183243946Y-36913029D01*
X183233718Y-36934653D01*
X183221421Y-36955170D01*
X183207171Y-36974383D01*
X183191107Y-36992107D01*
X183173383Y-37008171D01*
X183154170Y-37022421D01*
X183133653Y-37034718D01*
X183112029Y-37044946D01*
X183089507Y-37053004D01*
X183066303Y-37058816D01*
X183042642Y-37062326D01*
X183018750Y-37063500D01*
X182106250Y-37063500D01*
X182082358Y-37062326D01*
X182058697Y-37058816D01*
X182035493Y-37053004D01*
X182012971Y-37044946D01*
X181991347Y-37034718D01*
X181970830Y-37022421D01*
X181951617Y-37008171D01*
X181933893Y-36992107D01*
X181917829Y-36974383D01*
X181903579Y-36955170D01*
X181891282Y-36934653D01*
X181881054Y-36913029D01*
X181872996Y-36890507D01*
X181867184Y-36867303D01*
X181863674Y-36843642D01*
X181862500Y-36819750D01*
X181862500Y-36332250D01*
X181863674Y-36308358D01*
X181867184Y-36284697D01*
X181872996Y-36261493D01*
X181881054Y-36238971D01*
X181891282Y-36217347D01*
X181903579Y-36196830D01*
X181917829Y-36177617D01*
X181933893Y-36159893D01*
X181951617Y-36143829D01*
X181970830Y-36129579D01*
X181991347Y-36117282D01*
X182012971Y-36107054D01*
X182035493Y-36098996D01*
X182058697Y-36093184D01*
X182082358Y-36089674D01*
X182106250Y-36088500D01*
X183018750Y-36088500D01*
X183042642Y-36089674D01*
X183042642Y-36089674D01*
G37*
D20*
X182562500Y-36576000D03*
D19*
G36*
X168924504Y-42677204D02*
G01*
X168948773Y-42680804D01*
X168972571Y-42686765D01*
X168995671Y-42695030D01*
X169017849Y-42705520D01*
X169038893Y-42718133D01*
X169058598Y-42732747D01*
X169076777Y-42749223D01*
X169093253Y-42767402D01*
X169107867Y-42787107D01*
X169120480Y-42808151D01*
X169130970Y-42830329D01*
X169139235Y-42853429D01*
X169145196Y-42877227D01*
X169148796Y-42901496D01*
X169150000Y-42926000D01*
X169150000Y-43676000D01*
X169148796Y-43700504D01*
X169145196Y-43724773D01*
X169139235Y-43748571D01*
X169130970Y-43771671D01*
X169120480Y-43793849D01*
X169107867Y-43814893D01*
X169093253Y-43834598D01*
X169076777Y-43852777D01*
X169058598Y-43869253D01*
X169038893Y-43883867D01*
X169017849Y-43896480D01*
X168995671Y-43906970D01*
X168972571Y-43915235D01*
X168948773Y-43921196D01*
X168924504Y-43924796D01*
X168900000Y-43926000D01*
X167650000Y-43926000D01*
X167625496Y-43924796D01*
X167601227Y-43921196D01*
X167577429Y-43915235D01*
X167554329Y-43906970D01*
X167532151Y-43896480D01*
X167511107Y-43883867D01*
X167491402Y-43869253D01*
X167473223Y-43852777D01*
X167456747Y-43834598D01*
X167442133Y-43814893D01*
X167429520Y-43793849D01*
X167419030Y-43771671D01*
X167410765Y-43748571D01*
X167404804Y-43724773D01*
X167401204Y-43700504D01*
X167400000Y-43676000D01*
X167400000Y-42926000D01*
X167401204Y-42901496D01*
X167404804Y-42877227D01*
X167410765Y-42853429D01*
X167419030Y-42830329D01*
X167429520Y-42808151D01*
X167442133Y-42787107D01*
X167456747Y-42767402D01*
X167473223Y-42749223D01*
X167491402Y-42732747D01*
X167511107Y-42718133D01*
X167532151Y-42705520D01*
X167554329Y-42695030D01*
X167577429Y-42686765D01*
X167601227Y-42680804D01*
X167625496Y-42677204D01*
X167650000Y-42676000D01*
X168900000Y-42676000D01*
X168924504Y-42677204D01*
X168924504Y-42677204D01*
G37*
D21*
X168275000Y-43301000D03*
D19*
G36*
X168924504Y-45477204D02*
G01*
X168948773Y-45480804D01*
X168972571Y-45486765D01*
X168995671Y-45495030D01*
X169017849Y-45505520D01*
X169038893Y-45518133D01*
X169058598Y-45532747D01*
X169076777Y-45549223D01*
X169093253Y-45567402D01*
X169107867Y-45587107D01*
X169120480Y-45608151D01*
X169130970Y-45630329D01*
X169139235Y-45653429D01*
X169145196Y-45677227D01*
X169148796Y-45701496D01*
X169150000Y-45726000D01*
X169150000Y-46476000D01*
X169148796Y-46500504D01*
X169145196Y-46524773D01*
X169139235Y-46548571D01*
X169130970Y-46571671D01*
X169120480Y-46593849D01*
X169107867Y-46614893D01*
X169093253Y-46634598D01*
X169076777Y-46652777D01*
X169058598Y-46669253D01*
X169038893Y-46683867D01*
X169017849Y-46696480D01*
X168995671Y-46706970D01*
X168972571Y-46715235D01*
X168948773Y-46721196D01*
X168924504Y-46724796D01*
X168900000Y-46726000D01*
X167650000Y-46726000D01*
X167625496Y-46724796D01*
X167601227Y-46721196D01*
X167577429Y-46715235D01*
X167554329Y-46706970D01*
X167532151Y-46696480D01*
X167511107Y-46683867D01*
X167491402Y-46669253D01*
X167473223Y-46652777D01*
X167456747Y-46634598D01*
X167442133Y-46614893D01*
X167429520Y-46593849D01*
X167419030Y-46571671D01*
X167410765Y-46548571D01*
X167404804Y-46524773D01*
X167401204Y-46500504D01*
X167400000Y-46476000D01*
X167400000Y-45726000D01*
X167401204Y-45701496D01*
X167404804Y-45677227D01*
X167410765Y-45653429D01*
X167419030Y-45630329D01*
X167429520Y-45608151D01*
X167442133Y-45587107D01*
X167456747Y-45567402D01*
X167473223Y-45549223D01*
X167491402Y-45532747D01*
X167511107Y-45518133D01*
X167532151Y-45505520D01*
X167554329Y-45495030D01*
X167577429Y-45486765D01*
X167601227Y-45480804D01*
X167625496Y-45477204D01*
X167650000Y-45476000D01*
X168900000Y-45476000D01*
X168924504Y-45477204D01*
X168924504Y-45477204D01*
G37*
D21*
X168275000Y-46101000D03*
D22*
X241300000Y-52388500D03*
X241300000Y-55688500D03*
X222250000Y-52388500D03*
X222250000Y-55688500D03*
X241300000Y-33338500D03*
X241300000Y-36638500D03*
X222250000Y-33338500D03*
X222250000Y-36638500D03*
D19*
G36*
X183836392Y-51964674D02*
G01*
X183860053Y-51968184D01*
X183883257Y-51973996D01*
X183905779Y-51982054D01*
X183927403Y-51992282D01*
X183947920Y-52004579D01*
X183967133Y-52018829D01*
X183984857Y-52034893D01*
X184000921Y-52052617D01*
X184015171Y-52071830D01*
X184027468Y-52092347D01*
X184037696Y-52113971D01*
X184045754Y-52136493D01*
X184051566Y-52159697D01*
X184055076Y-52183358D01*
X184056250Y-52207250D01*
X184056250Y-52694750D01*
X184055076Y-52718642D01*
X184051566Y-52742303D01*
X184045754Y-52765507D01*
X184037696Y-52788029D01*
X184027468Y-52809653D01*
X184015171Y-52830170D01*
X184000921Y-52849383D01*
X183984857Y-52867107D01*
X183967133Y-52883171D01*
X183947920Y-52897421D01*
X183927403Y-52909718D01*
X183905779Y-52919946D01*
X183883257Y-52928004D01*
X183860053Y-52933816D01*
X183836392Y-52937326D01*
X183812500Y-52938500D01*
X182900000Y-52938500D01*
X182876108Y-52937326D01*
X182852447Y-52933816D01*
X182829243Y-52928004D01*
X182806721Y-52919946D01*
X182785097Y-52909718D01*
X182764580Y-52897421D01*
X182745367Y-52883171D01*
X182727643Y-52867107D01*
X182711579Y-52849383D01*
X182697329Y-52830170D01*
X182685032Y-52809653D01*
X182674804Y-52788029D01*
X182666746Y-52765507D01*
X182660934Y-52742303D01*
X182657424Y-52718642D01*
X182656250Y-52694750D01*
X182656250Y-52207250D01*
X182657424Y-52183358D01*
X182660934Y-52159697D01*
X182666746Y-52136493D01*
X182674804Y-52113971D01*
X182685032Y-52092347D01*
X182697329Y-52071830D01*
X182711579Y-52052617D01*
X182727643Y-52034893D01*
X182745367Y-52018829D01*
X182764580Y-52004579D01*
X182785097Y-51992282D01*
X182806721Y-51982054D01*
X182829243Y-51973996D01*
X182852447Y-51968184D01*
X182876108Y-51964674D01*
X182900000Y-51963500D01*
X183812500Y-51963500D01*
X183836392Y-51964674D01*
X183836392Y-51964674D01*
G37*
D20*
X183356250Y-52451000D03*
D19*
G36*
X183836392Y-50089674D02*
G01*
X183860053Y-50093184D01*
X183883257Y-50098996D01*
X183905779Y-50107054D01*
X183927403Y-50117282D01*
X183947920Y-50129579D01*
X183967133Y-50143829D01*
X183984857Y-50159893D01*
X184000921Y-50177617D01*
X184015171Y-50196830D01*
X184027468Y-50217347D01*
X184037696Y-50238971D01*
X184045754Y-50261493D01*
X184051566Y-50284697D01*
X184055076Y-50308358D01*
X184056250Y-50332250D01*
X184056250Y-50819750D01*
X184055076Y-50843642D01*
X184051566Y-50867303D01*
X184045754Y-50890507D01*
X184037696Y-50913029D01*
X184027468Y-50934653D01*
X184015171Y-50955170D01*
X184000921Y-50974383D01*
X183984857Y-50992107D01*
X183967133Y-51008171D01*
X183947920Y-51022421D01*
X183927403Y-51034718D01*
X183905779Y-51044946D01*
X183883257Y-51053004D01*
X183860053Y-51058816D01*
X183836392Y-51062326D01*
X183812500Y-51063500D01*
X182900000Y-51063500D01*
X182876108Y-51062326D01*
X182852447Y-51058816D01*
X182829243Y-51053004D01*
X182806721Y-51044946D01*
X182785097Y-51034718D01*
X182764580Y-51022421D01*
X182745367Y-51008171D01*
X182727643Y-50992107D01*
X182711579Y-50974383D01*
X182697329Y-50955170D01*
X182685032Y-50934653D01*
X182674804Y-50913029D01*
X182666746Y-50890507D01*
X182660934Y-50867303D01*
X182657424Y-50843642D01*
X182656250Y-50819750D01*
X182656250Y-50332250D01*
X182657424Y-50308358D01*
X182660934Y-50284697D01*
X182666746Y-50261493D01*
X182674804Y-50238971D01*
X182685032Y-50217347D01*
X182697329Y-50196830D01*
X182711579Y-50177617D01*
X182727643Y-50159893D01*
X182745367Y-50143829D01*
X182764580Y-50129579D01*
X182785097Y-50117282D01*
X182806721Y-50107054D01*
X182829243Y-50098996D01*
X182852447Y-50093184D01*
X182876108Y-50089674D01*
X182900000Y-50088500D01*
X183812500Y-50088500D01*
X183836392Y-50089674D01*
X183836392Y-50089674D01*
G37*
D20*
X183356250Y-50576000D03*
D19*
G36*
X196973892Y-54927174D02*
G01*
X196997553Y-54930684D01*
X197020757Y-54936496D01*
X197043279Y-54944554D01*
X197064903Y-54954782D01*
X197085420Y-54967079D01*
X197104633Y-54981329D01*
X197122357Y-54997393D01*
X197138421Y-55015117D01*
X197152671Y-55034330D01*
X197164968Y-55054847D01*
X197175196Y-55076471D01*
X197183254Y-55098993D01*
X197189066Y-55122197D01*
X197192576Y-55145858D01*
X197193750Y-55169750D01*
X197193750Y-56082250D01*
X197192576Y-56106142D01*
X197189066Y-56129803D01*
X197183254Y-56153007D01*
X197175196Y-56175529D01*
X197164968Y-56197153D01*
X197152671Y-56217670D01*
X197138421Y-56236883D01*
X197122357Y-56254607D01*
X197104633Y-56270671D01*
X197085420Y-56284921D01*
X197064903Y-56297218D01*
X197043279Y-56307446D01*
X197020757Y-56315504D01*
X196997553Y-56321316D01*
X196973892Y-56324826D01*
X196950000Y-56326000D01*
X196462500Y-56326000D01*
X196438608Y-56324826D01*
X196414947Y-56321316D01*
X196391743Y-56315504D01*
X196369221Y-56307446D01*
X196347597Y-56297218D01*
X196327080Y-56284921D01*
X196307867Y-56270671D01*
X196290143Y-56254607D01*
X196274079Y-56236883D01*
X196259829Y-56217670D01*
X196247532Y-56197153D01*
X196237304Y-56175529D01*
X196229246Y-56153007D01*
X196223434Y-56129803D01*
X196219924Y-56106142D01*
X196218750Y-56082250D01*
X196218750Y-55169750D01*
X196219924Y-55145858D01*
X196223434Y-55122197D01*
X196229246Y-55098993D01*
X196237304Y-55076471D01*
X196247532Y-55054847D01*
X196259829Y-55034330D01*
X196274079Y-55015117D01*
X196290143Y-54997393D01*
X196307867Y-54981329D01*
X196327080Y-54967079D01*
X196347597Y-54954782D01*
X196369221Y-54944554D01*
X196391743Y-54936496D01*
X196414947Y-54930684D01*
X196438608Y-54927174D01*
X196462500Y-54926000D01*
X196950000Y-54926000D01*
X196973892Y-54927174D01*
X196973892Y-54927174D01*
G37*
D20*
X196706250Y-55626000D03*
D19*
G36*
X198848892Y-54927174D02*
G01*
X198872553Y-54930684D01*
X198895757Y-54936496D01*
X198918279Y-54944554D01*
X198939903Y-54954782D01*
X198960420Y-54967079D01*
X198979633Y-54981329D01*
X198997357Y-54997393D01*
X199013421Y-55015117D01*
X199027671Y-55034330D01*
X199039968Y-55054847D01*
X199050196Y-55076471D01*
X199058254Y-55098993D01*
X199064066Y-55122197D01*
X199067576Y-55145858D01*
X199068750Y-55169750D01*
X199068750Y-56082250D01*
X199067576Y-56106142D01*
X199064066Y-56129803D01*
X199058254Y-56153007D01*
X199050196Y-56175529D01*
X199039968Y-56197153D01*
X199027671Y-56217670D01*
X199013421Y-56236883D01*
X198997357Y-56254607D01*
X198979633Y-56270671D01*
X198960420Y-56284921D01*
X198939903Y-56297218D01*
X198918279Y-56307446D01*
X198895757Y-56315504D01*
X198872553Y-56321316D01*
X198848892Y-56324826D01*
X198825000Y-56326000D01*
X198337500Y-56326000D01*
X198313608Y-56324826D01*
X198289947Y-56321316D01*
X198266743Y-56315504D01*
X198244221Y-56307446D01*
X198222597Y-56297218D01*
X198202080Y-56284921D01*
X198182867Y-56270671D01*
X198165143Y-56254607D01*
X198149079Y-56236883D01*
X198134829Y-56217670D01*
X198122532Y-56197153D01*
X198112304Y-56175529D01*
X198104246Y-56153007D01*
X198098434Y-56129803D01*
X198094924Y-56106142D01*
X198093750Y-56082250D01*
X198093750Y-55169750D01*
X198094924Y-55145858D01*
X198098434Y-55122197D01*
X198104246Y-55098993D01*
X198112304Y-55076471D01*
X198122532Y-55054847D01*
X198134829Y-55034330D01*
X198149079Y-55015117D01*
X198165143Y-54997393D01*
X198182867Y-54981329D01*
X198202080Y-54967079D01*
X198222597Y-54954782D01*
X198244221Y-54944554D01*
X198266743Y-54936496D01*
X198289947Y-54930684D01*
X198313608Y-54927174D01*
X198337500Y-54926000D01*
X198825000Y-54926000D01*
X198848892Y-54927174D01*
X198848892Y-54927174D01*
G37*
D20*
X198581250Y-55626000D03*
D19*
G36*
X203680142Y-40058424D02*
G01*
X203703803Y-40061934D01*
X203727007Y-40067746D01*
X203749529Y-40075804D01*
X203771153Y-40086032D01*
X203791670Y-40098329D01*
X203810883Y-40112579D01*
X203828607Y-40128643D01*
X203844671Y-40146367D01*
X203858921Y-40165580D01*
X203871218Y-40186097D01*
X203881446Y-40207721D01*
X203889504Y-40230243D01*
X203895316Y-40253447D01*
X203898826Y-40277108D01*
X203900000Y-40301000D01*
X203900000Y-40788500D01*
X203898826Y-40812392D01*
X203895316Y-40836053D01*
X203889504Y-40859257D01*
X203881446Y-40881779D01*
X203871218Y-40903403D01*
X203858921Y-40923920D01*
X203844671Y-40943133D01*
X203828607Y-40960857D01*
X203810883Y-40976921D01*
X203791670Y-40991171D01*
X203771153Y-41003468D01*
X203749529Y-41013696D01*
X203727007Y-41021754D01*
X203703803Y-41027566D01*
X203680142Y-41031076D01*
X203656250Y-41032250D01*
X202743750Y-41032250D01*
X202719858Y-41031076D01*
X202696197Y-41027566D01*
X202672993Y-41021754D01*
X202650471Y-41013696D01*
X202628847Y-41003468D01*
X202608330Y-40991171D01*
X202589117Y-40976921D01*
X202571393Y-40960857D01*
X202555329Y-40943133D01*
X202541079Y-40923920D01*
X202528782Y-40903403D01*
X202518554Y-40881779D01*
X202510496Y-40859257D01*
X202504684Y-40836053D01*
X202501174Y-40812392D01*
X202500000Y-40788500D01*
X202500000Y-40301000D01*
X202501174Y-40277108D01*
X202504684Y-40253447D01*
X202510496Y-40230243D01*
X202518554Y-40207721D01*
X202528782Y-40186097D01*
X202541079Y-40165580D01*
X202555329Y-40146367D01*
X202571393Y-40128643D01*
X202589117Y-40112579D01*
X202608330Y-40098329D01*
X202628847Y-40086032D01*
X202650471Y-40075804D01*
X202672993Y-40067746D01*
X202696197Y-40061934D01*
X202719858Y-40058424D01*
X202743750Y-40057250D01*
X203656250Y-40057250D01*
X203680142Y-40058424D01*
X203680142Y-40058424D01*
G37*
D20*
X203200000Y-40544750D03*
D19*
G36*
X203680142Y-41933424D02*
G01*
X203703803Y-41936934D01*
X203727007Y-41942746D01*
X203749529Y-41950804D01*
X203771153Y-41961032D01*
X203791670Y-41973329D01*
X203810883Y-41987579D01*
X203828607Y-42003643D01*
X203844671Y-42021367D01*
X203858921Y-42040580D01*
X203871218Y-42061097D01*
X203881446Y-42082721D01*
X203889504Y-42105243D01*
X203895316Y-42128447D01*
X203898826Y-42152108D01*
X203900000Y-42176000D01*
X203900000Y-42663500D01*
X203898826Y-42687392D01*
X203895316Y-42711053D01*
X203889504Y-42734257D01*
X203881446Y-42756779D01*
X203871218Y-42778403D01*
X203858921Y-42798920D01*
X203844671Y-42818133D01*
X203828607Y-42835857D01*
X203810883Y-42851921D01*
X203791670Y-42866171D01*
X203771153Y-42878468D01*
X203749529Y-42888696D01*
X203727007Y-42896754D01*
X203703803Y-42902566D01*
X203680142Y-42906076D01*
X203656250Y-42907250D01*
X202743750Y-42907250D01*
X202719858Y-42906076D01*
X202696197Y-42902566D01*
X202672993Y-42896754D01*
X202650471Y-42888696D01*
X202628847Y-42878468D01*
X202608330Y-42866171D01*
X202589117Y-42851921D01*
X202571393Y-42835857D01*
X202555329Y-42818133D01*
X202541079Y-42798920D01*
X202528782Y-42778403D01*
X202518554Y-42756779D01*
X202510496Y-42734257D01*
X202504684Y-42711053D01*
X202501174Y-42687392D01*
X202500000Y-42663500D01*
X202500000Y-42176000D01*
X202501174Y-42152108D01*
X202504684Y-42128447D01*
X202510496Y-42105243D01*
X202518554Y-42082721D01*
X202528782Y-42061097D01*
X202541079Y-42040580D01*
X202555329Y-42021367D01*
X202571393Y-42003643D01*
X202589117Y-41987579D01*
X202608330Y-41973329D01*
X202628847Y-41961032D01*
X202650471Y-41950804D01*
X202672993Y-41942746D01*
X202696197Y-41936934D01*
X202719858Y-41933424D01*
X202743750Y-41932250D01*
X203656250Y-41932250D01*
X203680142Y-41933424D01*
X203680142Y-41933424D01*
G37*
D20*
X203200000Y-42419750D03*
D19*
G36*
X186217642Y-36089674D02*
G01*
X186241303Y-36093184D01*
X186264507Y-36098996D01*
X186287029Y-36107054D01*
X186308653Y-36117282D01*
X186329170Y-36129579D01*
X186348383Y-36143829D01*
X186366107Y-36159893D01*
X186382171Y-36177617D01*
X186396421Y-36196830D01*
X186408718Y-36217347D01*
X186418946Y-36238971D01*
X186427004Y-36261493D01*
X186432816Y-36284697D01*
X186436326Y-36308358D01*
X186437500Y-36332250D01*
X186437500Y-36819750D01*
X186436326Y-36843642D01*
X186432816Y-36867303D01*
X186427004Y-36890507D01*
X186418946Y-36913029D01*
X186408718Y-36934653D01*
X186396421Y-36955170D01*
X186382171Y-36974383D01*
X186366107Y-36992107D01*
X186348383Y-37008171D01*
X186329170Y-37022421D01*
X186308653Y-37034718D01*
X186287029Y-37044946D01*
X186264507Y-37053004D01*
X186241303Y-37058816D01*
X186217642Y-37062326D01*
X186193750Y-37063500D01*
X185281250Y-37063500D01*
X185257358Y-37062326D01*
X185233697Y-37058816D01*
X185210493Y-37053004D01*
X185187971Y-37044946D01*
X185166347Y-37034718D01*
X185145830Y-37022421D01*
X185126617Y-37008171D01*
X185108893Y-36992107D01*
X185092829Y-36974383D01*
X185078579Y-36955170D01*
X185066282Y-36934653D01*
X185056054Y-36913029D01*
X185047996Y-36890507D01*
X185042184Y-36867303D01*
X185038674Y-36843642D01*
X185037500Y-36819750D01*
X185037500Y-36332250D01*
X185038674Y-36308358D01*
X185042184Y-36284697D01*
X185047996Y-36261493D01*
X185056054Y-36238971D01*
X185066282Y-36217347D01*
X185078579Y-36196830D01*
X185092829Y-36177617D01*
X185108893Y-36159893D01*
X185126617Y-36143829D01*
X185145830Y-36129579D01*
X185166347Y-36117282D01*
X185187971Y-36107054D01*
X185210493Y-36098996D01*
X185233697Y-36093184D01*
X185257358Y-36089674D01*
X185281250Y-36088500D01*
X186193750Y-36088500D01*
X186217642Y-36089674D01*
X186217642Y-36089674D01*
G37*
D20*
X185737500Y-36576000D03*
D19*
G36*
X186217642Y-37964674D02*
G01*
X186241303Y-37968184D01*
X186264507Y-37973996D01*
X186287029Y-37982054D01*
X186308653Y-37992282D01*
X186329170Y-38004579D01*
X186348383Y-38018829D01*
X186366107Y-38034893D01*
X186382171Y-38052617D01*
X186396421Y-38071830D01*
X186408718Y-38092347D01*
X186418946Y-38113971D01*
X186427004Y-38136493D01*
X186432816Y-38159697D01*
X186436326Y-38183358D01*
X186437500Y-38207250D01*
X186437500Y-38694750D01*
X186436326Y-38718642D01*
X186432816Y-38742303D01*
X186427004Y-38765507D01*
X186418946Y-38788029D01*
X186408718Y-38809653D01*
X186396421Y-38830170D01*
X186382171Y-38849383D01*
X186366107Y-38867107D01*
X186348383Y-38883171D01*
X186329170Y-38897421D01*
X186308653Y-38909718D01*
X186287029Y-38919946D01*
X186264507Y-38928004D01*
X186241303Y-38933816D01*
X186217642Y-38937326D01*
X186193750Y-38938500D01*
X185281250Y-38938500D01*
X185257358Y-38937326D01*
X185233697Y-38933816D01*
X185210493Y-38928004D01*
X185187971Y-38919946D01*
X185166347Y-38909718D01*
X185145830Y-38897421D01*
X185126617Y-38883171D01*
X185108893Y-38867107D01*
X185092829Y-38849383D01*
X185078579Y-38830170D01*
X185066282Y-38809653D01*
X185056054Y-38788029D01*
X185047996Y-38765507D01*
X185042184Y-38742303D01*
X185038674Y-38718642D01*
X185037500Y-38694750D01*
X185037500Y-38207250D01*
X185038674Y-38183358D01*
X185042184Y-38159697D01*
X185047996Y-38136493D01*
X185056054Y-38113971D01*
X185066282Y-38092347D01*
X185078579Y-38071830D01*
X185092829Y-38052617D01*
X185108893Y-38034893D01*
X185126617Y-38018829D01*
X185145830Y-38004579D01*
X185166347Y-37992282D01*
X185187971Y-37982054D01*
X185210493Y-37973996D01*
X185233697Y-37968184D01*
X185257358Y-37964674D01*
X185281250Y-37963500D01*
X186193750Y-37963500D01*
X186217642Y-37964674D01*
X186217642Y-37964674D01*
G37*
D20*
X185737500Y-38451000D03*
D19*
G36*
X182830142Y-44608424D02*
G01*
X182853803Y-44611934D01*
X182877007Y-44617746D01*
X182899529Y-44625804D01*
X182921153Y-44636032D01*
X182941670Y-44648329D01*
X182960883Y-44662579D01*
X182978607Y-44678643D01*
X182994671Y-44696367D01*
X183008921Y-44715580D01*
X183021218Y-44736097D01*
X183031446Y-44757721D01*
X183039504Y-44780243D01*
X183045316Y-44803447D01*
X183048826Y-44827108D01*
X183050000Y-44851000D01*
X183050000Y-45763500D01*
X183048826Y-45787392D01*
X183045316Y-45811053D01*
X183039504Y-45834257D01*
X183031446Y-45856779D01*
X183021218Y-45878403D01*
X183008921Y-45898920D01*
X182994671Y-45918133D01*
X182978607Y-45935857D01*
X182960883Y-45951921D01*
X182941670Y-45966171D01*
X182921153Y-45978468D01*
X182899529Y-45988696D01*
X182877007Y-45996754D01*
X182853803Y-46002566D01*
X182830142Y-46006076D01*
X182806250Y-46007250D01*
X182318750Y-46007250D01*
X182294858Y-46006076D01*
X182271197Y-46002566D01*
X182247993Y-45996754D01*
X182225471Y-45988696D01*
X182203847Y-45978468D01*
X182183330Y-45966171D01*
X182164117Y-45951921D01*
X182146393Y-45935857D01*
X182130329Y-45918133D01*
X182116079Y-45898920D01*
X182103782Y-45878403D01*
X182093554Y-45856779D01*
X182085496Y-45834257D01*
X182079684Y-45811053D01*
X182076174Y-45787392D01*
X182075000Y-45763500D01*
X182075000Y-44851000D01*
X182076174Y-44827108D01*
X182079684Y-44803447D01*
X182085496Y-44780243D01*
X182093554Y-44757721D01*
X182103782Y-44736097D01*
X182116079Y-44715580D01*
X182130329Y-44696367D01*
X182146393Y-44678643D01*
X182164117Y-44662579D01*
X182183330Y-44648329D01*
X182203847Y-44636032D01*
X182225471Y-44625804D01*
X182247993Y-44617746D01*
X182271197Y-44611934D01*
X182294858Y-44608424D01*
X182318750Y-44607250D01*
X182806250Y-44607250D01*
X182830142Y-44608424D01*
X182830142Y-44608424D01*
G37*
D20*
X182562500Y-45307250D03*
D19*
G36*
X184705142Y-44608424D02*
G01*
X184728803Y-44611934D01*
X184752007Y-44617746D01*
X184774529Y-44625804D01*
X184796153Y-44636032D01*
X184816670Y-44648329D01*
X184835883Y-44662579D01*
X184853607Y-44678643D01*
X184869671Y-44696367D01*
X184883921Y-44715580D01*
X184896218Y-44736097D01*
X184906446Y-44757721D01*
X184914504Y-44780243D01*
X184920316Y-44803447D01*
X184923826Y-44827108D01*
X184925000Y-44851000D01*
X184925000Y-45763500D01*
X184923826Y-45787392D01*
X184920316Y-45811053D01*
X184914504Y-45834257D01*
X184906446Y-45856779D01*
X184896218Y-45878403D01*
X184883921Y-45898920D01*
X184869671Y-45918133D01*
X184853607Y-45935857D01*
X184835883Y-45951921D01*
X184816670Y-45966171D01*
X184796153Y-45978468D01*
X184774529Y-45988696D01*
X184752007Y-45996754D01*
X184728803Y-46002566D01*
X184705142Y-46006076D01*
X184681250Y-46007250D01*
X184193750Y-46007250D01*
X184169858Y-46006076D01*
X184146197Y-46002566D01*
X184122993Y-45996754D01*
X184100471Y-45988696D01*
X184078847Y-45978468D01*
X184058330Y-45966171D01*
X184039117Y-45951921D01*
X184021393Y-45935857D01*
X184005329Y-45918133D01*
X183991079Y-45898920D01*
X183978782Y-45878403D01*
X183968554Y-45856779D01*
X183960496Y-45834257D01*
X183954684Y-45811053D01*
X183951174Y-45787392D01*
X183950000Y-45763500D01*
X183950000Y-44851000D01*
X183951174Y-44827108D01*
X183954684Y-44803447D01*
X183960496Y-44780243D01*
X183968554Y-44757721D01*
X183978782Y-44736097D01*
X183991079Y-44715580D01*
X184005329Y-44696367D01*
X184021393Y-44678643D01*
X184039117Y-44662579D01*
X184058330Y-44648329D01*
X184078847Y-44636032D01*
X184100471Y-44625804D01*
X184122993Y-44617746D01*
X184146197Y-44611934D01*
X184169858Y-44608424D01*
X184193750Y-44607250D01*
X184681250Y-44607250D01*
X184705142Y-44608424D01*
X184705142Y-44608424D01*
G37*
D20*
X184437500Y-45307250D03*
D19*
G36*
X190186392Y-33202174D02*
G01*
X190210053Y-33205684D01*
X190233257Y-33211496D01*
X190255779Y-33219554D01*
X190277403Y-33229782D01*
X190297920Y-33242079D01*
X190317133Y-33256329D01*
X190334857Y-33272393D01*
X190350921Y-33290117D01*
X190365171Y-33309330D01*
X190377468Y-33329847D01*
X190387696Y-33351471D01*
X190395754Y-33373993D01*
X190401566Y-33397197D01*
X190405076Y-33420858D01*
X190406250Y-33444750D01*
X190406250Y-33932250D01*
X190405076Y-33956142D01*
X190401566Y-33979803D01*
X190395754Y-34003007D01*
X190387696Y-34025529D01*
X190377468Y-34047153D01*
X190365171Y-34067670D01*
X190350921Y-34086883D01*
X190334857Y-34104607D01*
X190317133Y-34120671D01*
X190297920Y-34134921D01*
X190277403Y-34147218D01*
X190255779Y-34157446D01*
X190233257Y-34165504D01*
X190210053Y-34171316D01*
X190186392Y-34174826D01*
X190162500Y-34176000D01*
X189250000Y-34176000D01*
X189226108Y-34174826D01*
X189202447Y-34171316D01*
X189179243Y-34165504D01*
X189156721Y-34157446D01*
X189135097Y-34147218D01*
X189114580Y-34134921D01*
X189095367Y-34120671D01*
X189077643Y-34104607D01*
X189061579Y-34086883D01*
X189047329Y-34067670D01*
X189035032Y-34047153D01*
X189024804Y-34025529D01*
X189016746Y-34003007D01*
X189010934Y-33979803D01*
X189007424Y-33956142D01*
X189006250Y-33932250D01*
X189006250Y-33444750D01*
X189007424Y-33420858D01*
X189010934Y-33397197D01*
X189016746Y-33373993D01*
X189024804Y-33351471D01*
X189035032Y-33329847D01*
X189047329Y-33309330D01*
X189061579Y-33290117D01*
X189077643Y-33272393D01*
X189095367Y-33256329D01*
X189114580Y-33242079D01*
X189135097Y-33229782D01*
X189156721Y-33219554D01*
X189179243Y-33211496D01*
X189202447Y-33205684D01*
X189226108Y-33202174D01*
X189250000Y-33201000D01*
X190162500Y-33201000D01*
X190186392Y-33202174D01*
X190186392Y-33202174D01*
G37*
D20*
X189706250Y-33688500D03*
D19*
G36*
X190186392Y-31327174D02*
G01*
X190210053Y-31330684D01*
X190233257Y-31336496D01*
X190255779Y-31344554D01*
X190277403Y-31354782D01*
X190297920Y-31367079D01*
X190317133Y-31381329D01*
X190334857Y-31397393D01*
X190350921Y-31415117D01*
X190365171Y-31434330D01*
X190377468Y-31454847D01*
X190387696Y-31476471D01*
X190395754Y-31498993D01*
X190401566Y-31522197D01*
X190405076Y-31545858D01*
X190406250Y-31569750D01*
X190406250Y-32057250D01*
X190405076Y-32081142D01*
X190401566Y-32104803D01*
X190395754Y-32128007D01*
X190387696Y-32150529D01*
X190377468Y-32172153D01*
X190365171Y-32192670D01*
X190350921Y-32211883D01*
X190334857Y-32229607D01*
X190317133Y-32245671D01*
X190297920Y-32259921D01*
X190277403Y-32272218D01*
X190255779Y-32282446D01*
X190233257Y-32290504D01*
X190210053Y-32296316D01*
X190186392Y-32299826D01*
X190162500Y-32301000D01*
X189250000Y-32301000D01*
X189226108Y-32299826D01*
X189202447Y-32296316D01*
X189179243Y-32290504D01*
X189156721Y-32282446D01*
X189135097Y-32272218D01*
X189114580Y-32259921D01*
X189095367Y-32245671D01*
X189077643Y-32229607D01*
X189061579Y-32211883D01*
X189047329Y-32192670D01*
X189035032Y-32172153D01*
X189024804Y-32150529D01*
X189016746Y-32128007D01*
X189010934Y-32104803D01*
X189007424Y-32081142D01*
X189006250Y-32057250D01*
X189006250Y-31569750D01*
X189007424Y-31545858D01*
X189010934Y-31522197D01*
X189016746Y-31498993D01*
X189024804Y-31476471D01*
X189035032Y-31454847D01*
X189047329Y-31434330D01*
X189061579Y-31415117D01*
X189077643Y-31397393D01*
X189095367Y-31381329D01*
X189114580Y-31367079D01*
X189135097Y-31354782D01*
X189156721Y-31344554D01*
X189179243Y-31336496D01*
X189202447Y-31330684D01*
X189226108Y-31327174D01*
X189250000Y-31326000D01*
X190162500Y-31326000D01*
X190186392Y-31327174D01*
X190186392Y-31327174D01*
G37*
D20*
X189706250Y-31813500D03*
D19*
G36*
X198917642Y-31183424D02*
G01*
X198941303Y-31186934D01*
X198964507Y-31192746D01*
X198987029Y-31200804D01*
X199008653Y-31211032D01*
X199029170Y-31223329D01*
X199048383Y-31237579D01*
X199066107Y-31253643D01*
X199082171Y-31271367D01*
X199096421Y-31290580D01*
X199108718Y-31311097D01*
X199118946Y-31332721D01*
X199127004Y-31355243D01*
X199132816Y-31378447D01*
X199136326Y-31402108D01*
X199137500Y-31426000D01*
X199137500Y-31913500D01*
X199136326Y-31937392D01*
X199132816Y-31961053D01*
X199127004Y-31984257D01*
X199118946Y-32006779D01*
X199108718Y-32028403D01*
X199096421Y-32048920D01*
X199082171Y-32068133D01*
X199066107Y-32085857D01*
X199048383Y-32101921D01*
X199029170Y-32116171D01*
X199008653Y-32128468D01*
X198987029Y-32138696D01*
X198964507Y-32146754D01*
X198941303Y-32152566D01*
X198917642Y-32156076D01*
X198893750Y-32157250D01*
X197981250Y-32157250D01*
X197957358Y-32156076D01*
X197933697Y-32152566D01*
X197910493Y-32146754D01*
X197887971Y-32138696D01*
X197866347Y-32128468D01*
X197845830Y-32116171D01*
X197826617Y-32101921D01*
X197808893Y-32085857D01*
X197792829Y-32068133D01*
X197778579Y-32048920D01*
X197766282Y-32028403D01*
X197756054Y-32006779D01*
X197747996Y-31984257D01*
X197742184Y-31961053D01*
X197738674Y-31937392D01*
X197737500Y-31913500D01*
X197737500Y-31426000D01*
X197738674Y-31402108D01*
X197742184Y-31378447D01*
X197747996Y-31355243D01*
X197756054Y-31332721D01*
X197766282Y-31311097D01*
X197778579Y-31290580D01*
X197792829Y-31271367D01*
X197808893Y-31253643D01*
X197826617Y-31237579D01*
X197845830Y-31223329D01*
X197866347Y-31211032D01*
X197887971Y-31200804D01*
X197910493Y-31192746D01*
X197933697Y-31186934D01*
X197957358Y-31183424D01*
X197981250Y-31182250D01*
X198893750Y-31182250D01*
X198917642Y-31183424D01*
X198917642Y-31183424D01*
G37*
D20*
X198437500Y-31669750D03*
D19*
G36*
X198917642Y-33058424D02*
G01*
X198941303Y-33061934D01*
X198964507Y-33067746D01*
X198987029Y-33075804D01*
X199008653Y-33086032D01*
X199029170Y-33098329D01*
X199048383Y-33112579D01*
X199066107Y-33128643D01*
X199082171Y-33146367D01*
X199096421Y-33165580D01*
X199108718Y-33186097D01*
X199118946Y-33207721D01*
X199127004Y-33230243D01*
X199132816Y-33253447D01*
X199136326Y-33277108D01*
X199137500Y-33301000D01*
X199137500Y-33788500D01*
X199136326Y-33812392D01*
X199132816Y-33836053D01*
X199127004Y-33859257D01*
X199118946Y-33881779D01*
X199108718Y-33903403D01*
X199096421Y-33923920D01*
X199082171Y-33943133D01*
X199066107Y-33960857D01*
X199048383Y-33976921D01*
X199029170Y-33991171D01*
X199008653Y-34003468D01*
X198987029Y-34013696D01*
X198964507Y-34021754D01*
X198941303Y-34027566D01*
X198917642Y-34031076D01*
X198893750Y-34032250D01*
X197981250Y-34032250D01*
X197957358Y-34031076D01*
X197933697Y-34027566D01*
X197910493Y-34021754D01*
X197887971Y-34013696D01*
X197866347Y-34003468D01*
X197845830Y-33991171D01*
X197826617Y-33976921D01*
X197808893Y-33960857D01*
X197792829Y-33943133D01*
X197778579Y-33923920D01*
X197766282Y-33903403D01*
X197756054Y-33881779D01*
X197747996Y-33859257D01*
X197742184Y-33836053D01*
X197738674Y-33812392D01*
X197737500Y-33788500D01*
X197737500Y-33301000D01*
X197738674Y-33277108D01*
X197742184Y-33253447D01*
X197747996Y-33230243D01*
X197756054Y-33207721D01*
X197766282Y-33186097D01*
X197778579Y-33165580D01*
X197792829Y-33146367D01*
X197808893Y-33128643D01*
X197826617Y-33112579D01*
X197845830Y-33098329D01*
X197866347Y-33086032D01*
X197887971Y-33075804D01*
X197910493Y-33067746D01*
X197933697Y-33061934D01*
X197957358Y-33058424D01*
X197981250Y-33057250D01*
X198893750Y-33057250D01*
X198917642Y-33058424D01*
X198917642Y-33058424D01*
G37*
D20*
X198437500Y-33544750D03*
D23*
X184150000Y-36576000D03*
X185737500Y-45307250D03*
X185762500Y-49301000D03*
X200818750Y-55626000D03*
X204787500Y-42132250D03*
X176212500Y-56419750D03*
X180975000Y-38957250D03*
X210502500Y-32448500D03*
X210502500Y-32448500D03*
X210502500Y-51498500D03*
X229552500Y-51498500D03*
D24*
X188406250Y-33688500D02*
X189706250Y-33688500D01*
X195262500Y-30776250D02*
X194712250Y-30226000D01*
X195262500Y-31757250D02*
X195262500Y-30776250D01*
X188912500Y-30226000D02*
X188118750Y-31019750D01*
X194712250Y-30226000D02*
X188912500Y-30226000D01*
X188118750Y-31019750D02*
X188118750Y-33401000D01*
X188118750Y-33401000D02*
X188406250Y-33688500D01*
X195350000Y-31669750D02*
X195262500Y-31757250D01*
X198437500Y-31669750D02*
X195350000Y-31669750D01*
X185737500Y-36576000D02*
X186824760Y-36576000D01*
X186824760Y-36576000D02*
X188118750Y-37869990D01*
X192075000Y-39270000D02*
X192075000Y-40401000D01*
X192075000Y-39248328D02*
X192075000Y-39270000D01*
X190696663Y-37869991D02*
X192075000Y-39248328D01*
X188118750Y-37869990D02*
X190696663Y-37869991D01*
X189706250Y-33688500D02*
X189706250Y-34988500D01*
X189706250Y-34988500D02*
X192087500Y-37369750D01*
X192075000Y-37382250D02*
X192075000Y-40401000D01*
X194959598Y-31757250D02*
X195262500Y-31757250D01*
X193259598Y-33457250D02*
X194959598Y-31757250D01*
X193062500Y-33457250D02*
X193259598Y-33457250D01*
X183381250Y-52426000D02*
X183356250Y-52451000D01*
X168000000Y-60651000D02*
X166150000Y-58801000D01*
X168350000Y-60651000D02*
X168000000Y-60651000D01*
X166150000Y-58801000D02*
X166150000Y-55369750D01*
X166150000Y-55369750D02*
X169068750Y-52451000D01*
X169068750Y-52451000D02*
X183356250Y-52451000D01*
X196875000Y-52932000D02*
X196875000Y-51801000D01*
X196875000Y-54657250D02*
X196875000Y-52932000D01*
X196706250Y-54826000D02*
X196875000Y-54657250D01*
X196706250Y-55626000D02*
X196706250Y-54826000D01*
X199343750Y-42132250D02*
X199375000Y-42101000D01*
X203200000Y-40544750D02*
X201612500Y-42132250D01*
X201612500Y-42132250D02*
X199343750Y-42132250D01*
X196706250Y-55626000D02*
X196706250Y-57069750D01*
X196706250Y-57069750D02*
X197643750Y-58007250D01*
X197643750Y-58007250D02*
X201612500Y-58007250D01*
X201612500Y-58007250D02*
X203200000Y-56419750D01*
X203200000Y-56419750D02*
X203200000Y-51151000D01*
X192075000Y-41532000D02*
X194262750Y-43719750D01*
X192075000Y-40401000D02*
X192075000Y-41532000D01*
X194262750Y-43719750D02*
X196056250Y-43719750D01*
X197675000Y-42101000D02*
X199375000Y-42101000D01*
X196056250Y-43719750D02*
X197675000Y-42101000D01*
X189712500Y-46901000D02*
X187975000Y-46901000D01*
X196056250Y-48482250D02*
X196056250Y-43719750D01*
X191293750Y-48482250D02*
X196056250Y-48482250D01*
X190500000Y-48482250D02*
X191293750Y-48482250D01*
X190475000Y-51801000D02*
X190475000Y-48507250D01*
X190475000Y-48507250D02*
X190500000Y-48482250D01*
X190475000Y-47663500D02*
X189712500Y-46901000D01*
X190475000Y-48507250D02*
X190475000Y-47663500D01*
X196875000Y-50838500D02*
X196875000Y-49301000D01*
X196875000Y-50838500D02*
X196875000Y-50670000D01*
X196875000Y-51801000D02*
X196875000Y-50838500D01*
X196875000Y-49301000D02*
X196056250Y-48482250D01*
X187297078Y-52451000D02*
X183356250Y-52451000D01*
X188671837Y-53825759D02*
X187297078Y-52451000D01*
X189602912Y-53825760D02*
X188671837Y-53825759D01*
X190475000Y-51801000D02*
X190475000Y-52953672D01*
X190475000Y-52953672D02*
X189602912Y-53825760D01*
X182562500Y-46894750D02*
X182556250Y-46901000D01*
X182562500Y-45307250D02*
X182562500Y-46894750D01*
X187975000Y-46901000D02*
X182556250Y-46901000D01*
X176131000Y-32498000D02*
X176131000Y-31623000D01*
X177006250Y-33373250D02*
X176131000Y-32498000D01*
X177006250Y-44513500D02*
X177006250Y-33373250D01*
X179393750Y-46901000D02*
X177006250Y-44513500D01*
X182556250Y-46901000D02*
X179393750Y-46901000D01*
D25*
X195350000Y-33544750D02*
X195262500Y-33457250D01*
X198437500Y-33544750D02*
X195350000Y-33544750D01*
X195162500Y-33457250D02*
X193675000Y-34944750D01*
X195262500Y-33457250D02*
X195162500Y-33457250D01*
X193675000Y-34988500D02*
X193675000Y-40401000D01*
X193675000Y-34944750D02*
X193675000Y-34988500D01*
X193006250Y-31813500D02*
X193062500Y-31757250D01*
X189706250Y-31813500D02*
X193006250Y-31813500D01*
X192873898Y-31757250D02*
X192035499Y-32595649D01*
X193062500Y-31757250D02*
X192873898Y-31757250D01*
X192875000Y-35158352D02*
X192875000Y-40401000D01*
X192035499Y-34318851D02*
X192875000Y-35158352D01*
X192035499Y-32595649D02*
X192035499Y-34318851D01*
X186971000Y-46101000D02*
X187975000Y-46101000D01*
X185231250Y-46101000D02*
X186971000Y-46101000D01*
X184437500Y-45307250D02*
X185231250Y-46101000D01*
D24*
X191275000Y-39270000D02*
X191275000Y-40401000D01*
X190456000Y-38451000D02*
X191275000Y-39270000D01*
X185737500Y-38451000D02*
X190456000Y-38451000D01*
X189675000Y-51801000D02*
X189675000Y-52276000D01*
X189675000Y-52276000D02*
X189706250Y-52307250D01*
X175925000Y-50576000D02*
X183356250Y-50576000D01*
X168275000Y-46101000D02*
X171450000Y-46101000D01*
X171450000Y-46101000D02*
X175925000Y-50576000D01*
X184437500Y-38451000D02*
X185737500Y-38451000D01*
X198581250Y-55626000D02*
X198581250Y-54182250D01*
X197675000Y-53276000D02*
X197675000Y-51801000D01*
X198581250Y-54182250D02*
X197675000Y-53276000D01*
X200506000Y-42901000D02*
X199375000Y-42901000D01*
X201918750Y-42901000D02*
X200506000Y-42901000D01*
X202400000Y-42419750D02*
X201918750Y-42901000D01*
X203200000Y-42419750D02*
X202400000Y-42419750D01*
X183356250Y-50576000D02*
X184631250Y-49301000D01*
X189675000Y-52932000D02*
X189362250Y-53244750D01*
X189675000Y-51801000D02*
X189675000Y-52932000D01*
X189362250Y-53244750D02*
X188912500Y-53244750D01*
X185762500Y-50094750D02*
X185762500Y-49301000D01*
X188912500Y-53244750D02*
X185762500Y-50094750D01*
X184631250Y-49301000D02*
X185762500Y-49301000D01*
X185762500Y-49301000D02*
X187975000Y-49301000D01*
X183356250Y-37369750D02*
X184150000Y-36576000D01*
X183356250Y-37369750D02*
X184437500Y-38451000D01*
X182562500Y-36576000D02*
X183356250Y-37369750D01*
X185743750Y-45301000D02*
X185737500Y-45307250D01*
X187975000Y-45301000D02*
X185743750Y-45301000D01*
X198581250Y-55626000D02*
X200818750Y-55626000D01*
X203200000Y-42419750D02*
X204500000Y-42419750D01*
X204500000Y-42419750D02*
X204787500Y-42132250D01*
D25*
X222250000Y-33338500D02*
X222250000Y-31813500D01*
X218137500Y-31813500D02*
X216812500Y-30488500D01*
X222250000Y-31813500D02*
X218137500Y-31813500D01*
X223104000Y-36638500D02*
X224629000Y-38163500D01*
X222250000Y-36638500D02*
X223104000Y-36638500D01*
X240446000Y-36638500D02*
X241300000Y-36638500D01*
X238921000Y-38163500D02*
X240446000Y-36638500D01*
X224629000Y-38163500D02*
X238921000Y-38163500D01*
X222250000Y-37342500D02*
X222250000Y-36638500D01*
X214291500Y-45301000D02*
X222250000Y-37342500D01*
X199375000Y-45301000D02*
X214291500Y-45301000D01*
X241300000Y-33338500D02*
X241300000Y-31813500D01*
X236482500Y-30488500D02*
X235862500Y-30488500D01*
X237807500Y-31813500D02*
X236482500Y-30488500D01*
X241300000Y-31813500D02*
X237807500Y-31813500D01*
X222100000Y-52388500D02*
X222250000Y-52388500D01*
X222250000Y-52388500D02*
X222250000Y-50863500D01*
X218757500Y-50863500D02*
X216852500Y-48958500D01*
X222250000Y-50863500D02*
X218757500Y-50863500D01*
X223104000Y-55688500D02*
X224629000Y-57213500D01*
X222250000Y-55688500D02*
X223104000Y-55688500D01*
X240446000Y-55688500D02*
X241300000Y-55688500D01*
X238921000Y-57213500D02*
X240446000Y-55688500D01*
X224629000Y-57213500D02*
X238921000Y-57213500D01*
X221396000Y-55688500D02*
X222250000Y-55688500D01*
X199375000Y-47701000D02*
X206062934Y-47701000D01*
X206062934Y-47701000D02*
X207962500Y-49600566D01*
X207962500Y-49600566D02*
X207962500Y-55626000D01*
X207962500Y-55626000D02*
X209550000Y-57213500D01*
X209550000Y-57213500D02*
X219871000Y-57213500D01*
X219871000Y-57213500D02*
X221396000Y-55688500D01*
X241300000Y-52388500D02*
X241300000Y-50863500D01*
X237807500Y-50863500D02*
X235902500Y-48958500D01*
X241300000Y-50863500D02*
X237807500Y-50863500D01*
X172931000Y-33444000D02*
X172931000Y-31623000D01*
X171051250Y-35323750D02*
X172931000Y-33444000D01*
X170257500Y-35323750D02*
X171051250Y-35323750D01*
X168275000Y-43301000D02*
X168275000Y-37306250D01*
X168275000Y-37306250D02*
X170257500Y-35323750D01*
X182562500Y-38451000D02*
X183862500Y-39751000D01*
X186531250Y-39751000D02*
X187313740Y-38968510D01*
X183862500Y-39751000D02*
X186531250Y-39751000D01*
X190475000Y-39397000D02*
X190475000Y-40401000D01*
X190046510Y-38968510D02*
X190475000Y-39397000D01*
X187313740Y-38968510D02*
X190046510Y-38968510D01*
X174550000Y-56951000D02*
X175681250Y-56951000D01*
X175681250Y-56951000D02*
X176212500Y-56419750D01*
X182056250Y-38957250D02*
X182562500Y-38451000D01*
X180975000Y-38957250D02*
X182056250Y-38957250D01*
X174625000Y-37082250D02*
X174625000Y-35872990D01*
X174625000Y-35872990D02*
X174371000Y-35618990D01*
X174371000Y-35618990D02*
X174371000Y-33147000D01*
X174531000Y-33002000D02*
X174531000Y-31623000D01*
X174386000Y-33147000D02*
X174531000Y-33002000D01*
X174371000Y-33147000D02*
X174386000Y-33147000D01*
X186877240Y-47701000D02*
X187975000Y-47701000D01*
X186531250Y-48046990D02*
X186877240Y-47701000D01*
X175625556Y-48046990D02*
X186531250Y-48046990D01*
X173491510Y-45912944D02*
X175625556Y-48046990D01*
X174625000Y-38957250D02*
X173491510Y-40090740D01*
X173491510Y-40090740D02*
X173491510Y-45912944D01*
X173731000Y-33002000D02*
X173731000Y-31623000D01*
X171450000Y-37082250D02*
X172006237Y-36526013D01*
X172006237Y-36526013D02*
X173150987Y-36526013D01*
X173150987Y-36526013D02*
X173916990Y-35760010D01*
X173916990Y-35760010D02*
X173916990Y-33147000D01*
X173916990Y-33147000D02*
X173876000Y-33147000D01*
X173876000Y-33147000D02*
X173731000Y-33002000D01*
X175437500Y-48501000D02*
X187975000Y-48501000D01*
X173037500Y-46101000D02*
X175437500Y-48501000D01*
X171450000Y-38957250D02*
X173037500Y-40544750D01*
X173037500Y-40544750D02*
X173037500Y-46101000D01*
X202375000Y-50101000D02*
X199375000Y-50101000D01*
X203200000Y-49276000D02*
X202375000Y-50101000D01*
X205905000Y-46901000D02*
X210502500Y-51498500D01*
X199375000Y-46901000D02*
X205905000Y-46901000D01*
X224155000Y-46101000D02*
X229552500Y-51498500D01*
X199375000Y-46101000D02*
X224155000Y-46101000D01*
G36*
X202279250Y-36449000D02*
G01*
X194437000Y-36449000D01*
X194437000Y-35260380D01*
X195002058Y-34695322D01*
X195962500Y-34695322D01*
X196086982Y-34683062D01*
X196206680Y-34646752D01*
X196316994Y-34587787D01*
X196413685Y-34508435D01*
X196493037Y-34411744D01*
X196549158Y-34306750D01*
X197271297Y-34306750D01*
X197357708Y-34412042D01*
X197491336Y-34521708D01*
X197643791Y-34603197D01*
X197809215Y-34653378D01*
X197981250Y-34670322D01*
X198893750Y-34670322D01*
X199065785Y-34653378D01*
X199231209Y-34603197D01*
X199383664Y-34521708D01*
X199517292Y-34412042D01*
X199626958Y-34278414D01*
X199708447Y-34125959D01*
X199758628Y-33960535D01*
X199775572Y-33788500D01*
X199775572Y-33301000D01*
X199758628Y-33128965D01*
X199708447Y-32963541D01*
X199626958Y-32811086D01*
X199517292Y-32677458D01*
X199510936Y-32672242D01*
X199588685Y-32608435D01*
X199668037Y-32511744D01*
X199727002Y-32401430D01*
X199763312Y-32281732D01*
X199775572Y-32157250D01*
X199772500Y-31955500D01*
X199613750Y-31796750D01*
X198564500Y-31796750D01*
X198564500Y-31816750D01*
X198310500Y-31816750D01*
X198310500Y-31796750D01*
X197261250Y-31796750D01*
X197102500Y-31955500D01*
X197099428Y-32157250D01*
X197111688Y-32281732D01*
X197147998Y-32401430D01*
X197206963Y-32511744D01*
X197286315Y-32608435D01*
X197364064Y-32672242D01*
X197357708Y-32677458D01*
X197271297Y-32782750D01*
X196593235Y-32782750D01*
X196588312Y-32732768D01*
X196552002Y-32613070D01*
X196548891Y-32607250D01*
X196552002Y-32601430D01*
X196588312Y-32481732D01*
X196600572Y-32357250D01*
X196597500Y-32043000D01*
X196438750Y-31884250D01*
X195389500Y-31884250D01*
X195389500Y-31904250D01*
X195135500Y-31904250D01*
X195135500Y-31884250D01*
X195115500Y-31884250D01*
X195115500Y-31630250D01*
X195135500Y-31630250D01*
X195135500Y-30681000D01*
X195389500Y-30681000D01*
X195389500Y-31630250D01*
X196438750Y-31630250D01*
X196597500Y-31471500D01*
X196600327Y-31182250D01*
X197099428Y-31182250D01*
X197102500Y-31384000D01*
X197261250Y-31542750D01*
X198310500Y-31542750D01*
X198310500Y-30706000D01*
X198564500Y-30706000D01*
X198564500Y-31542750D01*
X199613750Y-31542750D01*
X199772500Y-31384000D01*
X199775572Y-31182250D01*
X199763312Y-31057768D01*
X199727002Y-30938070D01*
X199668037Y-30827756D01*
X199588685Y-30731065D01*
X199491994Y-30651713D01*
X199381680Y-30592748D01*
X199261982Y-30556438D01*
X199137500Y-30544178D01*
X198723250Y-30547250D01*
X198564500Y-30706000D01*
X198310500Y-30706000D01*
X198151750Y-30547250D01*
X197737500Y-30544178D01*
X197613018Y-30556438D01*
X197493320Y-30592748D01*
X197383006Y-30651713D01*
X197286315Y-30731065D01*
X197206963Y-30827756D01*
X197147998Y-30938070D01*
X197111688Y-31057768D01*
X197099428Y-31182250D01*
X196600327Y-31182250D01*
X196600572Y-31157250D01*
X196588312Y-31032768D01*
X196552002Y-30913070D01*
X196493037Y-30802756D01*
X196413685Y-30706065D01*
X196316994Y-30626713D01*
X196206680Y-30567748D01*
X196086982Y-30531438D01*
X195962500Y-30519178D01*
X195548250Y-30522250D01*
X195389500Y-30681000D01*
X195135500Y-30681000D01*
X194976750Y-30522250D01*
X194562500Y-30519178D01*
X194438018Y-30531438D01*
X194318320Y-30567748D01*
X194208006Y-30626713D01*
X194162500Y-30664059D01*
X194116994Y-30626713D01*
X194006680Y-30567748D01*
X193886982Y-30531438D01*
X193762500Y-30519178D01*
X192362500Y-30519178D01*
X192238018Y-30531438D01*
X192118320Y-30567748D01*
X192008006Y-30626713D01*
X191911315Y-30706065D01*
X191831963Y-30802756D01*
X191772998Y-30913070D01*
X191736688Y-31032768D01*
X191734843Y-31051500D01*
X190872453Y-31051500D01*
X190786042Y-30946208D01*
X190652414Y-30836542D01*
X190499959Y-30755053D01*
X190334535Y-30704872D01*
X190162500Y-30687928D01*
X189250000Y-30687928D01*
X189077965Y-30704872D01*
X188912541Y-30755053D01*
X188760086Y-30836542D01*
X188626458Y-30946208D01*
X188516792Y-31079836D01*
X188435303Y-31232291D01*
X188385122Y-31397715D01*
X188368178Y-31569750D01*
X188368178Y-32057250D01*
X188385122Y-32229285D01*
X188435303Y-32394709D01*
X188516792Y-32547164D01*
X188626458Y-32680792D01*
X188632814Y-32686008D01*
X188555065Y-32749815D01*
X188475713Y-32846506D01*
X188416748Y-32956820D01*
X188380438Y-33076518D01*
X188368178Y-33201000D01*
X188371250Y-33402750D01*
X188530000Y-33561500D01*
X189579250Y-33561500D01*
X189579250Y-33541500D01*
X189833250Y-33541500D01*
X189833250Y-33561500D01*
X190882500Y-33561500D01*
X191041250Y-33402750D01*
X191044322Y-33201000D01*
X191032062Y-33076518D01*
X190995752Y-32956820D01*
X190936787Y-32846506D01*
X190857435Y-32749815D01*
X190779686Y-32686008D01*
X190786042Y-32680792D01*
X190872453Y-32575500D01*
X191271798Y-32575500D01*
X191269813Y-32595649D01*
X191273499Y-32633073D01*
X191273500Y-34281418D01*
X191269813Y-34318851D01*
X191284526Y-34468229D01*
X191328098Y-34611866D01*
X191398854Y-34744243D01*
X191440815Y-34795372D01*
X191494078Y-34860273D01*
X191523148Y-34884130D01*
X192113000Y-35473982D01*
X192113000Y-36449000D01*
X187072500Y-36449000D01*
X187072500Y-36448998D01*
X186913752Y-36448998D01*
X187072500Y-36290250D01*
X187075572Y-36088500D01*
X187063312Y-35964018D01*
X187027002Y-35844320D01*
X186968037Y-35734006D01*
X186888685Y-35637315D01*
X186791994Y-35557963D01*
X186681680Y-35498998D01*
X186658250Y-35491891D01*
X186658250Y-34176000D01*
X188368178Y-34176000D01*
X188380438Y-34300482D01*
X188416748Y-34420180D01*
X188475713Y-34530494D01*
X188555065Y-34627185D01*
X188651756Y-34706537D01*
X188762070Y-34765502D01*
X188881768Y-34801812D01*
X189006250Y-34814072D01*
X189420500Y-34811000D01*
X189579250Y-34652250D01*
X189579250Y-33815500D01*
X189833250Y-33815500D01*
X189833250Y-34652250D01*
X189992000Y-34811000D01*
X190406250Y-34814072D01*
X190530732Y-34801812D01*
X190650430Y-34765502D01*
X190760744Y-34706537D01*
X190857435Y-34627185D01*
X190936787Y-34530494D01*
X190995752Y-34420180D01*
X191032062Y-34300482D01*
X191044322Y-34176000D01*
X191041250Y-33974250D01*
X190882500Y-33815500D01*
X189833250Y-33815500D01*
X189579250Y-33815500D01*
X188530000Y-33815500D01*
X188371250Y-33974250D01*
X188368178Y-34176000D01*
X186658250Y-34176000D01*
X186658250Y-28765500D01*
X202279250Y-28765500D01*
X202279250Y-36449000D01*
X202279250Y-36449000D01*
G37*
X202279250Y-36449000D02*
X194437000Y-36449000D01*
X194437000Y-35260380D01*
X195002058Y-34695322D01*
X195962500Y-34695322D01*
X196086982Y-34683062D01*
X196206680Y-34646752D01*
X196316994Y-34587787D01*
X196413685Y-34508435D01*
X196493037Y-34411744D01*
X196549158Y-34306750D01*
X197271297Y-34306750D01*
X197357708Y-34412042D01*
X197491336Y-34521708D01*
X197643791Y-34603197D01*
X197809215Y-34653378D01*
X197981250Y-34670322D01*
X198893750Y-34670322D01*
X199065785Y-34653378D01*
X199231209Y-34603197D01*
X199383664Y-34521708D01*
X199517292Y-34412042D01*
X199626958Y-34278414D01*
X199708447Y-34125959D01*
X199758628Y-33960535D01*
X199775572Y-33788500D01*
X199775572Y-33301000D01*
X199758628Y-33128965D01*
X199708447Y-32963541D01*
X199626958Y-32811086D01*
X199517292Y-32677458D01*
X199510936Y-32672242D01*
X199588685Y-32608435D01*
X199668037Y-32511744D01*
X199727002Y-32401430D01*
X199763312Y-32281732D01*
X199775572Y-32157250D01*
X199772500Y-31955500D01*
X199613750Y-31796750D01*
X198564500Y-31796750D01*
X198564500Y-31816750D01*
X198310500Y-31816750D01*
X198310500Y-31796750D01*
X197261250Y-31796750D01*
X197102500Y-31955500D01*
X197099428Y-32157250D01*
X197111688Y-32281732D01*
X197147998Y-32401430D01*
X197206963Y-32511744D01*
X197286315Y-32608435D01*
X197364064Y-32672242D01*
X197357708Y-32677458D01*
X197271297Y-32782750D01*
X196593235Y-32782750D01*
X196588312Y-32732768D01*
X196552002Y-32613070D01*
X196548891Y-32607250D01*
X196552002Y-32601430D01*
X196588312Y-32481732D01*
X196600572Y-32357250D01*
X196597500Y-32043000D01*
X196438750Y-31884250D01*
X195389500Y-31884250D01*
X195389500Y-31904250D01*
X195135500Y-31904250D01*
X195135500Y-31884250D01*
X195115500Y-31884250D01*
X195115500Y-31630250D01*
X195135500Y-31630250D01*
X195135500Y-30681000D01*
X195389500Y-30681000D01*
X195389500Y-31630250D01*
X196438750Y-31630250D01*
X196597500Y-31471500D01*
X196600327Y-31182250D01*
X197099428Y-31182250D01*
X197102500Y-31384000D01*
X197261250Y-31542750D01*
X198310500Y-31542750D01*
X198310500Y-30706000D01*
X198564500Y-30706000D01*
X198564500Y-31542750D01*
X199613750Y-31542750D01*
X199772500Y-31384000D01*
X199775572Y-31182250D01*
X199763312Y-31057768D01*
X199727002Y-30938070D01*
X199668037Y-30827756D01*
X199588685Y-30731065D01*
X199491994Y-30651713D01*
X199381680Y-30592748D01*
X199261982Y-30556438D01*
X199137500Y-30544178D01*
X198723250Y-30547250D01*
X198564500Y-30706000D01*
X198310500Y-30706000D01*
X198151750Y-30547250D01*
X197737500Y-30544178D01*
X197613018Y-30556438D01*
X197493320Y-30592748D01*
X197383006Y-30651713D01*
X197286315Y-30731065D01*
X197206963Y-30827756D01*
X197147998Y-30938070D01*
X197111688Y-31057768D01*
X197099428Y-31182250D01*
X196600327Y-31182250D01*
X196600572Y-31157250D01*
X196588312Y-31032768D01*
X196552002Y-30913070D01*
X196493037Y-30802756D01*
X196413685Y-30706065D01*
X196316994Y-30626713D01*
X196206680Y-30567748D01*
X196086982Y-30531438D01*
X195962500Y-30519178D01*
X195548250Y-30522250D01*
X195389500Y-30681000D01*
X195135500Y-30681000D01*
X194976750Y-30522250D01*
X194562500Y-30519178D01*
X194438018Y-30531438D01*
X194318320Y-30567748D01*
X194208006Y-30626713D01*
X194162500Y-30664059D01*
X194116994Y-30626713D01*
X194006680Y-30567748D01*
X193886982Y-30531438D01*
X193762500Y-30519178D01*
X192362500Y-30519178D01*
X192238018Y-30531438D01*
X192118320Y-30567748D01*
X192008006Y-30626713D01*
X191911315Y-30706065D01*
X191831963Y-30802756D01*
X191772998Y-30913070D01*
X191736688Y-31032768D01*
X191734843Y-31051500D01*
X190872453Y-31051500D01*
X190786042Y-30946208D01*
X190652414Y-30836542D01*
X190499959Y-30755053D01*
X190334535Y-30704872D01*
X190162500Y-30687928D01*
X189250000Y-30687928D01*
X189077965Y-30704872D01*
X188912541Y-30755053D01*
X188760086Y-30836542D01*
X188626458Y-30946208D01*
X188516792Y-31079836D01*
X188435303Y-31232291D01*
X188385122Y-31397715D01*
X188368178Y-31569750D01*
X188368178Y-32057250D01*
X188385122Y-32229285D01*
X188435303Y-32394709D01*
X188516792Y-32547164D01*
X188626458Y-32680792D01*
X188632814Y-32686008D01*
X188555065Y-32749815D01*
X188475713Y-32846506D01*
X188416748Y-32956820D01*
X188380438Y-33076518D01*
X188368178Y-33201000D01*
X188371250Y-33402750D01*
X188530000Y-33561500D01*
X189579250Y-33561500D01*
X189579250Y-33541500D01*
X189833250Y-33541500D01*
X189833250Y-33561500D01*
X190882500Y-33561500D01*
X191041250Y-33402750D01*
X191044322Y-33201000D01*
X191032062Y-33076518D01*
X190995752Y-32956820D01*
X190936787Y-32846506D01*
X190857435Y-32749815D01*
X190779686Y-32686008D01*
X190786042Y-32680792D01*
X190872453Y-32575500D01*
X191271798Y-32575500D01*
X191269813Y-32595649D01*
X191273499Y-32633073D01*
X191273500Y-34281418D01*
X191269813Y-34318851D01*
X191284526Y-34468229D01*
X191328098Y-34611866D01*
X191398854Y-34744243D01*
X191440815Y-34795372D01*
X191494078Y-34860273D01*
X191523148Y-34884130D01*
X192113000Y-35473982D01*
X192113000Y-36449000D01*
X187072500Y-36449000D01*
X187072500Y-36448998D01*
X186913752Y-36448998D01*
X187072500Y-36290250D01*
X187075572Y-36088500D01*
X187063312Y-35964018D01*
X187027002Y-35844320D01*
X186968037Y-35734006D01*
X186888685Y-35637315D01*
X186791994Y-35557963D01*
X186681680Y-35498998D01*
X186658250Y-35491891D01*
X186658250Y-34176000D01*
X188368178Y-34176000D01*
X188380438Y-34300482D01*
X188416748Y-34420180D01*
X188475713Y-34530494D01*
X188555065Y-34627185D01*
X188651756Y-34706537D01*
X188762070Y-34765502D01*
X188881768Y-34801812D01*
X189006250Y-34814072D01*
X189420500Y-34811000D01*
X189579250Y-34652250D01*
X189579250Y-33815500D01*
X189833250Y-33815500D01*
X189833250Y-34652250D01*
X189992000Y-34811000D01*
X190406250Y-34814072D01*
X190530732Y-34801812D01*
X190650430Y-34765502D01*
X190760744Y-34706537D01*
X190857435Y-34627185D01*
X190936787Y-34530494D01*
X190995752Y-34420180D01*
X191032062Y-34300482D01*
X191044322Y-34176000D01*
X191041250Y-33974250D01*
X190882500Y-33815500D01*
X189833250Y-33815500D01*
X189579250Y-33815500D01*
X188530000Y-33815500D01*
X188371250Y-33974250D01*
X188368178Y-34176000D01*
X186658250Y-34176000D01*
X186658250Y-28765500D01*
X202279250Y-28765500D01*
X202279250Y-36449000D01*
G36*
X193189500Y-33330250D02*
G01*
X193209500Y-33330250D01*
X193209500Y-33584250D01*
X193189500Y-33584250D01*
X193189500Y-33604250D01*
X192935500Y-33604250D01*
X192935500Y-33584250D01*
X192915500Y-33584250D01*
X192915500Y-33330250D01*
X192935500Y-33330250D01*
X192935500Y-33310250D01*
X193189500Y-33310250D01*
X193189500Y-33330250D01*
X193189500Y-33330250D01*
G37*
X193189500Y-33330250D02*
X193209500Y-33330250D01*
X193209500Y-33584250D01*
X193189500Y-33584250D01*
X193189500Y-33604250D01*
X192935500Y-33604250D01*
X192935500Y-33584250D01*
X192915500Y-33584250D01*
X192915500Y-33330250D01*
X192935500Y-33330250D01*
X192935500Y-33310250D01*
X193189500Y-33310250D01*
X193189500Y-33330250D01*
G36*
X192148815Y-41602185D02*
G01*
X192245506Y-41681537D01*
X192268667Y-41693917D01*
X192360750Y-41786000D01*
X192474337Y-41776454D01*
X192475518Y-41776812D01*
X192600000Y-41789072D01*
X193150000Y-41789072D01*
X193274482Y-41776812D01*
X193275000Y-41776655D01*
X193275518Y-41776812D01*
X193400000Y-41789072D01*
X193950000Y-41789072D01*
X194074482Y-41776812D01*
X194075000Y-41776655D01*
X194075518Y-41776812D01*
X194200000Y-41789072D01*
X194750000Y-41789072D01*
X194874482Y-41776812D01*
X194875000Y-41776655D01*
X194875518Y-41776812D01*
X195000000Y-41789072D01*
X195550000Y-41789072D01*
X195674482Y-41776812D01*
X195675000Y-41776655D01*
X195675518Y-41776812D01*
X195800000Y-41789072D01*
X196350000Y-41789072D01*
X196474482Y-41776812D01*
X196475000Y-41776655D01*
X196475518Y-41776812D01*
X196600000Y-41789072D01*
X197150000Y-41789072D01*
X197274482Y-41776812D01*
X197275000Y-41776655D01*
X197275518Y-41776812D01*
X197400000Y-41789072D01*
X197950000Y-41789072D01*
X197992552Y-41784881D01*
X197990000Y-41815250D01*
X198148750Y-41974000D01*
X198310500Y-41974000D01*
X198310500Y-42074085D01*
X198270506Y-42095463D01*
X198173815Y-42174815D01*
X198094463Y-42271506D01*
X198082083Y-42294667D01*
X197990000Y-42386750D01*
X197999546Y-42500337D01*
X197999188Y-42501518D01*
X197986928Y-42626000D01*
X197986928Y-43176000D01*
X197999188Y-43300482D01*
X197999345Y-43301000D01*
X197999188Y-43301518D01*
X197986928Y-43426000D01*
X197986928Y-43976000D01*
X197999188Y-44100482D01*
X197999345Y-44101000D01*
X197999188Y-44101518D01*
X197986928Y-44226000D01*
X197986928Y-44776000D01*
X197999188Y-44900482D01*
X197999345Y-44901000D01*
X197999188Y-44901518D01*
X197986928Y-45026000D01*
X197986928Y-45576000D01*
X197999188Y-45700482D01*
X197999345Y-45701000D01*
X197999188Y-45701518D01*
X197986928Y-45826000D01*
X197986928Y-46376000D01*
X197999188Y-46500482D01*
X197999345Y-46501000D01*
X197999188Y-46501518D01*
X197986928Y-46626000D01*
X197986928Y-47176000D01*
X197999188Y-47300482D01*
X197999345Y-47301000D01*
X197999188Y-47301518D01*
X197986928Y-47426000D01*
X197986928Y-47976000D01*
X197999188Y-48100482D01*
X197999345Y-48101000D01*
X197999188Y-48101518D01*
X197986928Y-48226000D01*
X197986928Y-48776000D01*
X197999188Y-48900482D01*
X197999345Y-48901000D01*
X197999188Y-48901518D01*
X197986928Y-49026000D01*
X197986928Y-49576000D01*
X197999188Y-49700482D01*
X197999345Y-49701000D01*
X197999188Y-49701518D01*
X197986928Y-49826000D01*
X197986928Y-50376000D01*
X197990962Y-50416962D01*
X197950000Y-50412928D01*
X197400000Y-50412928D01*
X197275518Y-50425188D01*
X197274337Y-50425546D01*
X197160750Y-50416000D01*
X197068667Y-50508083D01*
X197045506Y-50520463D01*
X196948815Y-50599815D01*
X196875000Y-50689759D01*
X196801185Y-50599815D01*
X196704494Y-50520463D01*
X196681333Y-50508083D01*
X196589250Y-50416000D01*
X196475663Y-50425546D01*
X196474482Y-50425188D01*
X196350000Y-50412928D01*
X195800000Y-50412928D01*
X195675518Y-50425188D01*
X195675000Y-50425345D01*
X195674482Y-50425188D01*
X195550000Y-50412928D01*
X195000000Y-50412928D01*
X194875518Y-50425188D01*
X194875000Y-50425345D01*
X194874482Y-50425188D01*
X194750000Y-50412928D01*
X194200000Y-50412928D01*
X194075518Y-50425188D01*
X194075000Y-50425345D01*
X194074482Y-50425188D01*
X193950000Y-50412928D01*
X193400000Y-50412928D01*
X193275518Y-50425188D01*
X193275000Y-50425345D01*
X193274482Y-50425188D01*
X193150000Y-50412928D01*
X192600000Y-50412928D01*
X192475518Y-50425188D01*
X192475000Y-50425345D01*
X192474482Y-50425188D01*
X192350000Y-50412928D01*
X191800000Y-50412928D01*
X191675518Y-50425188D01*
X191675000Y-50425345D01*
X191674482Y-50425188D01*
X191550000Y-50412928D01*
X191000000Y-50412928D01*
X190875518Y-50425188D01*
X190874337Y-50425546D01*
X190760750Y-50416000D01*
X190668667Y-50508083D01*
X190645506Y-50520463D01*
X190548815Y-50599815D01*
X190475000Y-50689759D01*
X190401185Y-50599815D01*
X190304494Y-50520463D01*
X190281333Y-50508083D01*
X190189250Y-50416000D01*
X190075663Y-50425546D01*
X190074482Y-50425188D01*
X189950000Y-50412928D01*
X189400000Y-50412928D01*
X189359038Y-50416962D01*
X189363072Y-50376000D01*
X189363072Y-49826000D01*
X189350812Y-49701518D01*
X189350655Y-49701000D01*
X189350812Y-49700482D01*
X189363072Y-49576000D01*
X189363072Y-49026000D01*
X189350812Y-48901518D01*
X189350655Y-48901000D01*
X189350812Y-48900482D01*
X189363072Y-48776000D01*
X189363072Y-48226000D01*
X189350812Y-48101518D01*
X189350655Y-48101000D01*
X189350812Y-48100482D01*
X189363072Y-47976000D01*
X189363072Y-47426000D01*
X189350812Y-47301518D01*
X189350454Y-47300337D01*
X189360000Y-47186750D01*
X189267917Y-47094667D01*
X189255537Y-47071506D01*
X189176185Y-46974815D01*
X189086241Y-46901000D01*
X189176185Y-46827185D01*
X189255537Y-46730494D01*
X189267917Y-46707333D01*
X189360000Y-46615250D01*
X189350454Y-46501663D01*
X189350812Y-46500482D01*
X189363072Y-46376000D01*
X189363072Y-45826000D01*
X189350812Y-45701518D01*
X189350655Y-45701000D01*
X189350812Y-45700482D01*
X189363072Y-45576000D01*
X189363072Y-45026000D01*
X189350812Y-44901518D01*
X189350655Y-44901000D01*
X189350812Y-44900482D01*
X189363072Y-44776000D01*
X189363072Y-44226000D01*
X189350812Y-44101518D01*
X189350655Y-44101000D01*
X189350812Y-44100482D01*
X189363072Y-43976000D01*
X189363072Y-43426000D01*
X189350812Y-43301518D01*
X189350655Y-43301000D01*
X189350812Y-43300482D01*
X189363072Y-43176000D01*
X189363072Y-42626000D01*
X189350812Y-42501518D01*
X189350655Y-42501000D01*
X189350812Y-42500482D01*
X189363072Y-42376000D01*
X189363072Y-41826000D01*
X189359038Y-41785038D01*
X189400000Y-41789072D01*
X189950000Y-41789072D01*
X190074482Y-41776812D01*
X190075000Y-41776655D01*
X190075518Y-41776812D01*
X190200000Y-41789072D01*
X190750000Y-41789072D01*
X190874482Y-41776812D01*
X190875000Y-41776655D01*
X190875518Y-41776812D01*
X191000000Y-41789072D01*
X191550000Y-41789072D01*
X191674482Y-41776812D01*
X191675663Y-41776454D01*
X191789250Y-41786000D01*
X191881333Y-41693917D01*
X191904494Y-41681537D01*
X192001185Y-41602185D01*
X192075000Y-41512241D01*
X192148815Y-41602185D01*
X192148815Y-41602185D01*
G37*
X192148815Y-41602185D02*
X192245506Y-41681537D01*
X192268667Y-41693917D01*
X192360750Y-41786000D01*
X192474337Y-41776454D01*
X192475518Y-41776812D01*
X192600000Y-41789072D01*
X193150000Y-41789072D01*
X193274482Y-41776812D01*
X193275000Y-41776655D01*
X193275518Y-41776812D01*
X193400000Y-41789072D01*
X193950000Y-41789072D01*
X194074482Y-41776812D01*
X194075000Y-41776655D01*
X194075518Y-41776812D01*
X194200000Y-41789072D01*
X194750000Y-41789072D01*
X194874482Y-41776812D01*
X194875000Y-41776655D01*
X194875518Y-41776812D01*
X195000000Y-41789072D01*
X195550000Y-41789072D01*
X195674482Y-41776812D01*
X195675000Y-41776655D01*
X195675518Y-41776812D01*
X195800000Y-41789072D01*
X196350000Y-41789072D01*
X196474482Y-41776812D01*
X196475000Y-41776655D01*
X196475518Y-41776812D01*
X196600000Y-41789072D01*
X197150000Y-41789072D01*
X197274482Y-41776812D01*
X197275000Y-41776655D01*
X197275518Y-41776812D01*
X197400000Y-41789072D01*
X197950000Y-41789072D01*
X197992552Y-41784881D01*
X197990000Y-41815250D01*
X198148750Y-41974000D01*
X198310500Y-41974000D01*
X198310500Y-42074085D01*
X198270506Y-42095463D01*
X198173815Y-42174815D01*
X198094463Y-42271506D01*
X198082083Y-42294667D01*
X197990000Y-42386750D01*
X197999546Y-42500337D01*
X197999188Y-42501518D01*
X197986928Y-42626000D01*
X197986928Y-43176000D01*
X197999188Y-43300482D01*
X197999345Y-43301000D01*
X197999188Y-43301518D01*
X197986928Y-43426000D01*
X197986928Y-43976000D01*
X197999188Y-44100482D01*
X197999345Y-44101000D01*
X197999188Y-44101518D01*
X197986928Y-44226000D01*
X197986928Y-44776000D01*
X197999188Y-44900482D01*
X197999345Y-44901000D01*
X197999188Y-44901518D01*
X197986928Y-45026000D01*
X197986928Y-45576000D01*
X197999188Y-45700482D01*
X197999345Y-45701000D01*
X197999188Y-45701518D01*
X197986928Y-45826000D01*
X197986928Y-46376000D01*
X197999188Y-46500482D01*
X197999345Y-46501000D01*
X197999188Y-46501518D01*
X197986928Y-46626000D01*
X197986928Y-47176000D01*
X197999188Y-47300482D01*
X197999345Y-47301000D01*
X197999188Y-47301518D01*
X197986928Y-47426000D01*
X197986928Y-47976000D01*
X197999188Y-48100482D01*
X197999345Y-48101000D01*
X197999188Y-48101518D01*
X197986928Y-48226000D01*
X197986928Y-48776000D01*
X197999188Y-48900482D01*
X197999345Y-48901000D01*
X197999188Y-48901518D01*
X197986928Y-49026000D01*
X197986928Y-49576000D01*
X197999188Y-49700482D01*
X197999345Y-49701000D01*
X197999188Y-49701518D01*
X197986928Y-49826000D01*
X197986928Y-50376000D01*
X197990962Y-50416962D01*
X197950000Y-50412928D01*
X197400000Y-50412928D01*
X197275518Y-50425188D01*
X197274337Y-50425546D01*
X197160750Y-50416000D01*
X197068667Y-50508083D01*
X197045506Y-50520463D01*
X196948815Y-50599815D01*
X196875000Y-50689759D01*
X196801185Y-50599815D01*
X196704494Y-50520463D01*
X196681333Y-50508083D01*
X196589250Y-50416000D01*
X196475663Y-50425546D01*
X196474482Y-50425188D01*
X196350000Y-50412928D01*
X195800000Y-50412928D01*
X195675518Y-50425188D01*
X195675000Y-50425345D01*
X195674482Y-50425188D01*
X195550000Y-50412928D01*
X195000000Y-50412928D01*
X194875518Y-50425188D01*
X194875000Y-50425345D01*
X194874482Y-50425188D01*
X194750000Y-50412928D01*
X194200000Y-50412928D01*
X194075518Y-50425188D01*
X194075000Y-50425345D01*
X194074482Y-50425188D01*
X193950000Y-50412928D01*
X193400000Y-50412928D01*
X193275518Y-50425188D01*
X193275000Y-50425345D01*
X193274482Y-50425188D01*
X193150000Y-50412928D01*
X192600000Y-50412928D01*
X192475518Y-50425188D01*
X192475000Y-50425345D01*
X192474482Y-50425188D01*
X192350000Y-50412928D01*
X191800000Y-50412928D01*
X191675518Y-50425188D01*
X191675000Y-50425345D01*
X191674482Y-50425188D01*
X191550000Y-50412928D01*
X191000000Y-50412928D01*
X190875518Y-50425188D01*
X190874337Y-50425546D01*
X190760750Y-50416000D01*
X190668667Y-50508083D01*
X190645506Y-50520463D01*
X190548815Y-50599815D01*
X190475000Y-50689759D01*
X190401185Y-50599815D01*
X190304494Y-50520463D01*
X190281333Y-50508083D01*
X190189250Y-50416000D01*
X190075663Y-50425546D01*
X190074482Y-50425188D01*
X189950000Y-50412928D01*
X189400000Y-50412928D01*
X189359038Y-50416962D01*
X189363072Y-50376000D01*
X189363072Y-49826000D01*
X189350812Y-49701518D01*
X189350655Y-49701000D01*
X189350812Y-49700482D01*
X189363072Y-49576000D01*
X189363072Y-49026000D01*
X189350812Y-48901518D01*
X189350655Y-48901000D01*
X189350812Y-48900482D01*
X189363072Y-48776000D01*
X189363072Y-48226000D01*
X189350812Y-48101518D01*
X189350655Y-48101000D01*
X189350812Y-48100482D01*
X189363072Y-47976000D01*
X189363072Y-47426000D01*
X189350812Y-47301518D01*
X189350454Y-47300337D01*
X189360000Y-47186750D01*
X189267917Y-47094667D01*
X189255537Y-47071506D01*
X189176185Y-46974815D01*
X189086241Y-46901000D01*
X189176185Y-46827185D01*
X189255537Y-46730494D01*
X189267917Y-46707333D01*
X189360000Y-46615250D01*
X189350454Y-46501663D01*
X189350812Y-46500482D01*
X189363072Y-46376000D01*
X189363072Y-45826000D01*
X189350812Y-45701518D01*
X189350655Y-45701000D01*
X189350812Y-45700482D01*
X189363072Y-45576000D01*
X189363072Y-45026000D01*
X189350812Y-44901518D01*
X189350655Y-44901000D01*
X189350812Y-44900482D01*
X189363072Y-44776000D01*
X189363072Y-44226000D01*
X189350812Y-44101518D01*
X189350655Y-44101000D01*
X189350812Y-44100482D01*
X189363072Y-43976000D01*
X189363072Y-43426000D01*
X189350812Y-43301518D01*
X189350655Y-43301000D01*
X189350812Y-43300482D01*
X189363072Y-43176000D01*
X189363072Y-42626000D01*
X189350812Y-42501518D01*
X189350655Y-42501000D01*
X189350812Y-42500482D01*
X189363072Y-42376000D01*
X189363072Y-41826000D01*
X189359038Y-41785038D01*
X189400000Y-41789072D01*
X189950000Y-41789072D01*
X190074482Y-41776812D01*
X190075000Y-41776655D01*
X190075518Y-41776812D01*
X190200000Y-41789072D01*
X190750000Y-41789072D01*
X190874482Y-41776812D01*
X190875000Y-41776655D01*
X190875518Y-41776812D01*
X191000000Y-41789072D01*
X191550000Y-41789072D01*
X191674482Y-41776812D01*
X191675663Y-41776454D01*
X191789250Y-41786000D01*
X191881333Y-41693917D01*
X191904494Y-41681537D01*
X192001185Y-41602185D01*
X192075000Y-41512241D01*
X192148815Y-41602185D01*
M02*
