G04 #@! TF.GenerationSoftware,KiCad,Pcbnew,(5.1.4)-1*
G04 #@! TF.CreationDate,2020-12-10T18:26:19-06:00*
G04 #@! TF.ProjectId,pcb-guide,7063622d-6775-4696-9465-2e6b69636164,rev?*
G04 #@! TF.SameCoordinates,Original*
G04 #@! TF.FileFunction,Legend,Bot*
G04 #@! TF.FilePolarity,Positive*
%FSLAX46Y46*%
G04 Gerber Fmt 4.6, Leading zero omitted, Abs format (unit mm)*
G04 Created by KiCad (PCBNEW (5.1.4)-1) date 2020-12-10 18:26:19*
%MOMM*%
%LPD*%
G04 APERTURE LIST*
%ADD10C,0.150000*%
%ADD11C,0.120000*%
%ADD12O,1.802000X2.802000*%
%ADD13R,0.602000X2.352000*%
%ADD14C,1.852000*%
%ADD15R,2.007000X2.007000*%
%ADD16C,2.007000*%
%ADD17C,2.352000*%
%ADD18C,4.089800*%
%ADD19R,1.502000X1.302000*%
%ADD20R,0.652000X1.602000*%
%ADD21R,1.602000X0.652000*%
%ADD22R,1.902000X1.202000*%
%ADD23C,0.100000*%
%ADD24C,1.077000*%
%ADD25C,1.352000*%
%ADD26R,1.302000X1.002000*%
G04 APERTURE END LIST*
D10*
X170681000Y-27178000D02*
X170681000Y-32628000D01*
X178381000Y-27178000D02*
X178381000Y-32628000D01*
X170681000Y-32628000D02*
X178381000Y-32628000D01*
D11*
X196162500Y-34257250D02*
X192162500Y-34257250D01*
X196162500Y-30957250D02*
X196162500Y-34257250D01*
D10*
X188500000Y-50701000D02*
X187225000Y-50701000D01*
X198850000Y-51276000D02*
X198175000Y-51276000D01*
X198850000Y-40926000D02*
X198175000Y-40926000D01*
X188500000Y-40926000D02*
X189175000Y-40926000D01*
X188500000Y-51276000D02*
X189175000Y-51276000D01*
X188500000Y-40926000D02*
X188500000Y-41601000D01*
X198850000Y-40926000D02*
X198850000Y-41601000D01*
X198850000Y-51276000D02*
X198850000Y-50601000D01*
X188500000Y-51276000D02*
X188500000Y-50701000D01*
X174050000Y-56201000D02*
X168850000Y-56201000D01*
X168850000Y-56201000D02*
X168850000Y-61401000D01*
X168850000Y-61401000D02*
X174050000Y-61401000D01*
X174050000Y-61401000D02*
X174050000Y-56201000D01*
X172450000Y-58801000D02*
G75*
G03X172450000Y-58801000I-1000000J0D01*
G01*
D11*
X202490000Y-50472078D02*
X202490000Y-49954922D01*
X203910000Y-50472078D02*
X203910000Y-49954922D01*
X170740000Y-38278328D02*
X170740000Y-37761172D01*
X172160000Y-38278328D02*
X172160000Y-37761172D01*
X173915000Y-38278328D02*
X173915000Y-37761172D01*
X175335000Y-38278328D02*
X175335000Y-37761172D01*
X183272500Y-37254922D02*
X183272500Y-37772078D01*
X181852500Y-37254922D02*
X181852500Y-37772078D01*
X167365000Y-45303064D02*
X167365000Y-44098936D01*
X169185000Y-45303064D02*
X169185000Y-44098936D01*
X242300000Y-56288500D02*
X242300000Y-52388500D01*
X240300000Y-56288500D02*
X240300000Y-52388500D01*
X242300000Y-56288500D02*
X240300000Y-56288500D01*
X223250000Y-56288500D02*
X223250000Y-52388500D01*
X221250000Y-56288500D02*
X221250000Y-52388500D01*
X223250000Y-56288500D02*
X221250000Y-56288500D01*
X242300000Y-37238500D02*
X242300000Y-33338500D01*
X240300000Y-37238500D02*
X240300000Y-33338500D01*
X242300000Y-37238500D02*
X240300000Y-37238500D01*
X223250000Y-37238500D02*
X223250000Y-33338500D01*
X221250000Y-37238500D02*
X221250000Y-33338500D01*
X223250000Y-37238500D02*
X221250000Y-37238500D01*
X184066250Y-51254922D02*
X184066250Y-51772078D01*
X182646250Y-51254922D02*
X182646250Y-51772078D01*
X197902328Y-56336000D02*
X197385172Y-56336000D01*
X197902328Y-54916000D02*
X197385172Y-54916000D01*
X202490000Y-41740828D02*
X202490000Y-41223672D01*
X203910000Y-41740828D02*
X203910000Y-41223672D01*
X185027500Y-37772078D02*
X185027500Y-37254922D01*
X186447500Y-37772078D02*
X186447500Y-37254922D01*
X183758578Y-46017250D02*
X183241422Y-46017250D01*
X183758578Y-44597250D02*
X183241422Y-44597250D01*
X190416250Y-32492422D02*
X190416250Y-33009578D01*
X188996250Y-32492422D02*
X188996250Y-33009578D01*
X197727500Y-32865828D02*
X197727500Y-32348672D01*
X199147500Y-32865828D02*
X199147500Y-32348672D01*
D10*
X176269095Y-28662380D02*
X176269095Y-29471904D01*
X176221476Y-29567142D01*
X176173857Y-29614761D01*
X176078619Y-29662380D01*
X175888142Y-29662380D01*
X175792904Y-29614761D01*
X175745285Y-29567142D01*
X175697666Y-29471904D01*
X175697666Y-28662380D01*
X175269095Y-29614761D02*
X175126238Y-29662380D01*
X174888142Y-29662380D01*
X174792904Y-29614761D01*
X174745285Y-29567142D01*
X174697666Y-29471904D01*
X174697666Y-29376666D01*
X174745285Y-29281428D01*
X174792904Y-29233809D01*
X174888142Y-29186190D01*
X175078619Y-29138571D01*
X175173857Y-29090952D01*
X175221476Y-29043333D01*
X175269095Y-28948095D01*
X175269095Y-28852857D01*
X175221476Y-28757619D01*
X175173857Y-28710000D01*
X175078619Y-28662380D01*
X174840523Y-28662380D01*
X174697666Y-28710000D01*
X173935761Y-29138571D02*
X173792904Y-29186190D01*
X173745285Y-29233809D01*
X173697666Y-29329047D01*
X173697666Y-29471904D01*
X173745285Y-29567142D01*
X173792904Y-29614761D01*
X173888142Y-29662380D01*
X174269095Y-29662380D01*
X174269095Y-28662380D01*
X173935761Y-28662380D01*
X173840523Y-28710000D01*
X173792904Y-28757619D01*
X173745285Y-28852857D01*
X173745285Y-28948095D01*
X173792904Y-29043333D01*
X173840523Y-29090952D01*
X173935761Y-29138571D01*
X174269095Y-29138571D01*
X172745285Y-29662380D02*
X173316714Y-29662380D01*
X173031000Y-29662380D02*
X173031000Y-28662380D01*
X173126238Y-28805238D01*
X173221476Y-28900476D01*
X173316714Y-28948095D01*
X194638690Y-30133440D02*
X194638690Y-30609630D01*
X194972023Y-29609630D02*
X194638690Y-30133440D01*
X194305357Y-29609630D01*
X193448214Y-30609630D02*
X194019642Y-30609630D01*
X193733928Y-30609630D02*
X193733928Y-29609630D01*
X193829166Y-29752488D01*
X193924404Y-29847726D01*
X194019642Y-29895345D01*
X194436904Y-53003380D02*
X194436904Y-53812904D01*
X194389285Y-53908142D01*
X194341666Y-53955761D01*
X194246428Y-54003380D01*
X194055952Y-54003380D01*
X193960714Y-53955761D01*
X193913095Y-53908142D01*
X193865476Y-53812904D01*
X193865476Y-53003380D01*
X192865476Y-54003380D02*
X193436904Y-54003380D01*
X193151190Y-54003380D02*
X193151190Y-53003380D01*
X193246428Y-53146238D01*
X193341666Y-53241476D01*
X193436904Y-53289095D01*
X172783333Y-63269761D02*
X172640476Y-63317380D01*
X172402380Y-63317380D01*
X172307142Y-63269761D01*
X172259523Y-63222142D01*
X172211904Y-63126904D01*
X172211904Y-63031666D01*
X172259523Y-62936428D01*
X172307142Y-62888809D01*
X172402380Y-62841190D01*
X172592857Y-62793571D01*
X172688095Y-62745952D01*
X172735714Y-62698333D01*
X172783333Y-62603095D01*
X172783333Y-62507857D01*
X172735714Y-62412619D01*
X172688095Y-62365000D01*
X172592857Y-62317380D01*
X172354761Y-62317380D01*
X172211904Y-62365000D01*
X171878571Y-62317380D02*
X171640476Y-63317380D01*
X171450000Y-62603095D01*
X171259523Y-63317380D01*
X171021428Y-62317380D01*
X170116666Y-63317380D02*
X170688095Y-63317380D01*
X170402380Y-63317380D02*
X170402380Y-62317380D01*
X170497619Y-62460238D01*
X170592857Y-62555476D01*
X170688095Y-62603095D01*
X205302380Y-50046833D02*
X204826190Y-49713500D01*
X205302380Y-49475404D02*
X204302380Y-49475404D01*
X204302380Y-49856357D01*
X204350000Y-49951595D01*
X204397619Y-49999214D01*
X204492857Y-50046833D01*
X204635714Y-50046833D01*
X204730952Y-49999214D01*
X204778571Y-49951595D01*
X204826190Y-49856357D01*
X204826190Y-49475404D01*
X204635714Y-50903976D02*
X205302380Y-50903976D01*
X204254761Y-50665880D02*
X204969047Y-50427785D01*
X204969047Y-51046833D01*
X173552380Y-37853083D02*
X173076190Y-37519750D01*
X173552380Y-37281654D02*
X172552380Y-37281654D01*
X172552380Y-37662607D01*
X172600000Y-37757845D01*
X172647619Y-37805464D01*
X172742857Y-37853083D01*
X172885714Y-37853083D01*
X172980952Y-37805464D01*
X173028571Y-37757845D01*
X173076190Y-37662607D01*
X173076190Y-37281654D01*
X172552380Y-38186416D02*
X172552380Y-38805464D01*
X172933333Y-38472130D01*
X172933333Y-38614988D01*
X172980952Y-38710226D01*
X173028571Y-38757845D01*
X173123809Y-38805464D01*
X173361904Y-38805464D01*
X173457142Y-38757845D01*
X173504761Y-38710226D01*
X173552380Y-38614988D01*
X173552380Y-38329273D01*
X173504761Y-38234035D01*
X173457142Y-38186416D01*
X176727380Y-37853083D02*
X176251190Y-37519750D01*
X176727380Y-37281654D02*
X175727380Y-37281654D01*
X175727380Y-37662607D01*
X175775000Y-37757845D01*
X175822619Y-37805464D01*
X175917857Y-37853083D01*
X176060714Y-37853083D01*
X176155952Y-37805464D01*
X176203571Y-37757845D01*
X176251190Y-37662607D01*
X176251190Y-37281654D01*
X175822619Y-38234035D02*
X175775000Y-38281654D01*
X175727380Y-38376892D01*
X175727380Y-38614988D01*
X175775000Y-38710226D01*
X175822619Y-38757845D01*
X175917857Y-38805464D01*
X176013095Y-38805464D01*
X176155952Y-38757845D01*
X176727380Y-38186416D01*
X176727380Y-38805464D01*
X181364880Y-37346833D02*
X180888690Y-37013500D01*
X181364880Y-36775404D02*
X180364880Y-36775404D01*
X180364880Y-37156357D01*
X180412500Y-37251595D01*
X180460119Y-37299214D01*
X180555357Y-37346833D01*
X180698214Y-37346833D01*
X180793452Y-37299214D01*
X180841071Y-37251595D01*
X180888690Y-37156357D01*
X180888690Y-36775404D01*
X181364880Y-38299214D02*
X181364880Y-37727785D01*
X181364880Y-38013500D02*
X180364880Y-38013500D01*
X180507738Y-37918261D01*
X180602976Y-37823023D01*
X180650595Y-37727785D01*
X170023571Y-44367666D02*
X170023571Y-44034333D01*
X170547380Y-44034333D02*
X169547380Y-44034333D01*
X169547380Y-44510523D01*
X170547380Y-45415285D02*
X170547380Y-44843857D01*
X170547380Y-45129571D02*
X169547380Y-45129571D01*
X169690238Y-45034333D01*
X169785476Y-44939095D01*
X169833095Y-44843857D01*
X242847619Y-54776595D02*
X243847619Y-54776595D01*
X243847619Y-54538500D01*
X243800000Y-54395642D01*
X243704761Y-54300404D01*
X243609523Y-54252785D01*
X243419047Y-54205166D01*
X243276190Y-54205166D01*
X243085714Y-54252785D01*
X242990476Y-54300404D01*
X242895238Y-54395642D01*
X242847619Y-54538500D01*
X242847619Y-54776595D01*
X243514285Y-53348023D02*
X242847619Y-53348023D01*
X243895238Y-53586119D02*
X243180952Y-53824214D01*
X243180952Y-53205166D01*
X223797619Y-54776595D02*
X224797619Y-54776595D01*
X224797619Y-54538500D01*
X224750000Y-54395642D01*
X224654761Y-54300404D01*
X224559523Y-54252785D01*
X224369047Y-54205166D01*
X224226190Y-54205166D01*
X224035714Y-54252785D01*
X223940476Y-54300404D01*
X223845238Y-54395642D01*
X223797619Y-54538500D01*
X223797619Y-54776595D01*
X224797619Y-53871833D02*
X224797619Y-53252785D01*
X224416666Y-53586119D01*
X224416666Y-53443261D01*
X224369047Y-53348023D01*
X224321428Y-53300404D01*
X224226190Y-53252785D01*
X223988095Y-53252785D01*
X223892857Y-53300404D01*
X223845238Y-53348023D01*
X223797619Y-53443261D01*
X223797619Y-53728976D01*
X223845238Y-53824214D01*
X223892857Y-53871833D01*
X242847619Y-35726595D02*
X243847619Y-35726595D01*
X243847619Y-35488500D01*
X243800000Y-35345642D01*
X243704761Y-35250404D01*
X243609523Y-35202785D01*
X243419047Y-35155166D01*
X243276190Y-35155166D01*
X243085714Y-35202785D01*
X242990476Y-35250404D01*
X242895238Y-35345642D01*
X242847619Y-35488500D01*
X242847619Y-35726595D01*
X243752380Y-34774214D02*
X243800000Y-34726595D01*
X243847619Y-34631357D01*
X243847619Y-34393261D01*
X243800000Y-34298023D01*
X243752380Y-34250404D01*
X243657142Y-34202785D01*
X243561904Y-34202785D01*
X243419047Y-34250404D01*
X242847619Y-34821833D01*
X242847619Y-34202785D01*
X224702380Y-34250404D02*
X223702380Y-34250404D01*
X223702380Y-34488500D01*
X223750000Y-34631357D01*
X223845238Y-34726595D01*
X223940476Y-34774214D01*
X224130952Y-34821833D01*
X224273809Y-34821833D01*
X224464285Y-34774214D01*
X224559523Y-34726595D01*
X224654761Y-34631357D01*
X224702380Y-34488500D01*
X224702380Y-34250404D01*
X224702380Y-35774214D02*
X224702380Y-35202785D01*
X224702380Y-35488500D02*
X223702380Y-35488500D01*
X223845238Y-35393261D01*
X223940476Y-35298023D01*
X223988095Y-35202785D01*
X182063392Y-51346833D02*
X182111011Y-51299214D01*
X182158630Y-51156357D01*
X182158630Y-51061119D01*
X182111011Y-50918261D01*
X182015773Y-50823023D01*
X181920535Y-50775404D01*
X181730059Y-50727785D01*
X181587202Y-50727785D01*
X181396726Y-50775404D01*
X181301488Y-50823023D01*
X181206250Y-50918261D01*
X181158630Y-51061119D01*
X181158630Y-51156357D01*
X181206250Y-51299214D01*
X181253869Y-51346833D01*
X181158630Y-51680166D02*
X181158630Y-52346833D01*
X182158630Y-51918261D01*
X197810416Y-54333142D02*
X197858035Y-54380761D01*
X198000892Y-54428380D01*
X198096130Y-54428380D01*
X198238988Y-54380761D01*
X198334226Y-54285523D01*
X198381845Y-54190285D01*
X198429464Y-53999809D01*
X198429464Y-53856952D01*
X198381845Y-53666476D01*
X198334226Y-53571238D01*
X198238988Y-53476000D01*
X198096130Y-53428380D01*
X198000892Y-53428380D01*
X197858035Y-53476000D01*
X197810416Y-53523619D01*
X196953273Y-53428380D02*
X197143750Y-53428380D01*
X197238988Y-53476000D01*
X197286607Y-53523619D01*
X197381845Y-53666476D01*
X197429464Y-53856952D01*
X197429464Y-54237904D01*
X197381845Y-54333142D01*
X197334226Y-54380761D01*
X197238988Y-54428380D01*
X197048511Y-54428380D01*
X196953273Y-54380761D01*
X196905654Y-54333142D01*
X196858035Y-54237904D01*
X196858035Y-53999809D01*
X196905654Y-53904571D01*
X196953273Y-53856952D01*
X197048511Y-53809333D01*
X197238988Y-53809333D01*
X197334226Y-53856952D01*
X197381845Y-53904571D01*
X197429464Y-53999809D01*
X205207142Y-41315583D02*
X205254761Y-41267964D01*
X205302380Y-41125107D01*
X205302380Y-41029869D01*
X205254761Y-40887011D01*
X205159523Y-40791773D01*
X205064285Y-40744154D01*
X204873809Y-40696535D01*
X204730952Y-40696535D01*
X204540476Y-40744154D01*
X204445238Y-40791773D01*
X204350000Y-40887011D01*
X204302380Y-41029869D01*
X204302380Y-41125107D01*
X204350000Y-41267964D01*
X204397619Y-41315583D01*
X204302380Y-42220345D02*
X204302380Y-41744154D01*
X204778571Y-41696535D01*
X204730952Y-41744154D01*
X204683333Y-41839392D01*
X204683333Y-42077488D01*
X204730952Y-42172726D01*
X204778571Y-42220345D01*
X204873809Y-42267964D01*
X205111904Y-42267964D01*
X205207142Y-42220345D01*
X205254761Y-42172726D01*
X205302380Y-42077488D01*
X205302380Y-41839392D01*
X205254761Y-41744154D01*
X205207142Y-41696535D01*
X187744642Y-37346833D02*
X187792261Y-37299214D01*
X187839880Y-37156357D01*
X187839880Y-37061119D01*
X187792261Y-36918261D01*
X187697023Y-36823023D01*
X187601785Y-36775404D01*
X187411309Y-36727785D01*
X187268452Y-36727785D01*
X187077976Y-36775404D01*
X186982738Y-36823023D01*
X186887500Y-36918261D01*
X186839880Y-37061119D01*
X186839880Y-37156357D01*
X186887500Y-37299214D01*
X186935119Y-37346833D01*
X187173214Y-38203976D02*
X187839880Y-38203976D01*
X186792261Y-37965880D02*
X187506547Y-37727785D01*
X187506547Y-38346833D01*
X183666666Y-44014392D02*
X183714285Y-44062011D01*
X183857142Y-44109630D01*
X183952380Y-44109630D01*
X184095238Y-44062011D01*
X184190476Y-43966773D01*
X184238095Y-43871535D01*
X184285714Y-43681059D01*
X184285714Y-43538202D01*
X184238095Y-43347726D01*
X184190476Y-43252488D01*
X184095238Y-43157250D01*
X183952380Y-43109630D01*
X183857142Y-43109630D01*
X183714285Y-43157250D01*
X183666666Y-43204869D01*
X183333333Y-43109630D02*
X182714285Y-43109630D01*
X183047619Y-43490583D01*
X182904761Y-43490583D01*
X182809523Y-43538202D01*
X182761904Y-43585821D01*
X182714285Y-43681059D01*
X182714285Y-43919154D01*
X182761904Y-44014392D01*
X182809523Y-44062011D01*
X182904761Y-44109630D01*
X183190476Y-44109630D01*
X183285714Y-44062011D01*
X183333333Y-44014392D01*
X188413392Y-32584333D02*
X188461011Y-32536714D01*
X188508630Y-32393857D01*
X188508630Y-32298619D01*
X188461011Y-32155761D01*
X188365773Y-32060523D01*
X188270535Y-32012904D01*
X188080059Y-31965285D01*
X187937202Y-31965285D01*
X187746726Y-32012904D01*
X187651488Y-32060523D01*
X187556250Y-32155761D01*
X187508630Y-32298619D01*
X187508630Y-32393857D01*
X187556250Y-32536714D01*
X187603869Y-32584333D01*
X187603869Y-32965285D02*
X187556250Y-33012904D01*
X187508630Y-33108142D01*
X187508630Y-33346238D01*
X187556250Y-33441476D01*
X187603869Y-33489095D01*
X187699107Y-33536714D01*
X187794345Y-33536714D01*
X187937202Y-33489095D01*
X188508630Y-32917666D01*
X188508630Y-33536714D01*
X200444642Y-32440583D02*
X200492261Y-32392964D01*
X200539880Y-32250107D01*
X200539880Y-32154869D01*
X200492261Y-32012011D01*
X200397023Y-31916773D01*
X200301785Y-31869154D01*
X200111309Y-31821535D01*
X199968452Y-31821535D01*
X199777976Y-31869154D01*
X199682738Y-31916773D01*
X199587500Y-32012011D01*
X199539880Y-32154869D01*
X199539880Y-32250107D01*
X199587500Y-32392964D01*
X199635119Y-32440583D01*
X200539880Y-33392964D02*
X200539880Y-32821535D01*
X200539880Y-33107250D02*
X199539880Y-33107250D01*
X199682738Y-33012011D01*
X199777976Y-32916773D01*
X199825595Y-32821535D01*
%LPC*%
D12*
X170881000Y-27178000D03*
X178181000Y-27178000D03*
X178181000Y-31678000D03*
X170881000Y-31678000D03*
D13*
X172931000Y-31678000D03*
X173731000Y-31678000D03*
X174531000Y-31678000D03*
X175331000Y-31678000D03*
X176131000Y-31678000D03*
D14*
X238442500Y-54038500D03*
X228282500Y-54038500D03*
D15*
X234632500Y-59118500D03*
D16*
X232092500Y-59118500D03*
D17*
X229552500Y-51498500D03*
D18*
X233362500Y-54038500D03*
D17*
X235902500Y-48958500D03*
D14*
X219392500Y-54038500D03*
X209232500Y-54038500D03*
D15*
X215582500Y-59118500D03*
D16*
X213042500Y-59118500D03*
D17*
X210502500Y-51498500D03*
D18*
X214312500Y-54038500D03*
D17*
X216852500Y-48958500D03*
D14*
X238442500Y-34988500D03*
X228282500Y-34988500D03*
D15*
X234632500Y-40068500D03*
D16*
X232092500Y-40068500D03*
D17*
X229552500Y-32448500D03*
D18*
X233362500Y-34988500D03*
D17*
X235902500Y-29908500D03*
D14*
X219392500Y-34988500D03*
X209232500Y-34988500D03*
D15*
X215582500Y-40068500D03*
D16*
X213042500Y-40068500D03*
D17*
X210502500Y-32448500D03*
D18*
X214312500Y-34988500D03*
D17*
X216852500Y-29908500D03*
D19*
X195262500Y-31757250D03*
X193062500Y-31757250D03*
X193062500Y-33457250D03*
X195262500Y-33457250D03*
D20*
X189675000Y-51801000D03*
X190475000Y-51801000D03*
X191275000Y-51801000D03*
X192075000Y-51801000D03*
X192875000Y-51801000D03*
X193675000Y-51801000D03*
X194475000Y-51801000D03*
X195275000Y-51801000D03*
X196075000Y-51801000D03*
X196875000Y-51801000D03*
X197675000Y-51801000D03*
D21*
X199375000Y-50101000D03*
X199375000Y-49301000D03*
X199375000Y-48501000D03*
X199375000Y-47701000D03*
X199375000Y-46901000D03*
X199375000Y-46101000D03*
X199375000Y-45301000D03*
X199375000Y-44501000D03*
X199375000Y-43701000D03*
X199375000Y-42901000D03*
X199375000Y-42101000D03*
D20*
X197675000Y-40401000D03*
X196875000Y-40401000D03*
X196075000Y-40401000D03*
X195275000Y-40401000D03*
X194475000Y-40401000D03*
X193675000Y-40401000D03*
X192875000Y-40401000D03*
X192075000Y-40401000D03*
X191275000Y-40401000D03*
X190475000Y-40401000D03*
X189675000Y-40401000D03*
D21*
X187975000Y-42101000D03*
X187975000Y-42901000D03*
X187975000Y-43701000D03*
X187975000Y-44501000D03*
X187975000Y-45301000D03*
X187975000Y-46101000D03*
X187975000Y-46901000D03*
X187975000Y-47701000D03*
X187975000Y-48501000D03*
X187975000Y-49301000D03*
X187975000Y-50101000D03*
D22*
X174550000Y-60651000D03*
X168350000Y-56951000D03*
X174550000Y-56951000D03*
X168350000Y-60651000D03*
D23*
G36*
X203708141Y-48738797D02*
G01*
X203734278Y-48742674D01*
X203759909Y-48749094D01*
X203784788Y-48757995D01*
X203808674Y-48769293D01*
X203831337Y-48782877D01*
X203852560Y-48798617D01*
X203872139Y-48816361D01*
X203889883Y-48835940D01*
X203905623Y-48857163D01*
X203919207Y-48879826D01*
X203930505Y-48903712D01*
X203939406Y-48928591D01*
X203945826Y-48954222D01*
X203949703Y-48980359D01*
X203951000Y-49006750D01*
X203951000Y-49545250D01*
X203949703Y-49571641D01*
X203945826Y-49597778D01*
X203939406Y-49623409D01*
X203930505Y-49648288D01*
X203919207Y-49672174D01*
X203905623Y-49694837D01*
X203889883Y-49716060D01*
X203872139Y-49735639D01*
X203852560Y-49753383D01*
X203831337Y-49769123D01*
X203808674Y-49782707D01*
X203784788Y-49794005D01*
X203759909Y-49802906D01*
X203734278Y-49809326D01*
X203708141Y-49813203D01*
X203681750Y-49814500D01*
X202718250Y-49814500D01*
X202691859Y-49813203D01*
X202665722Y-49809326D01*
X202640091Y-49802906D01*
X202615212Y-49794005D01*
X202591326Y-49782707D01*
X202568663Y-49769123D01*
X202547440Y-49753383D01*
X202527861Y-49735639D01*
X202510117Y-49716060D01*
X202494377Y-49694837D01*
X202480793Y-49672174D01*
X202469495Y-49648288D01*
X202460594Y-49623409D01*
X202454174Y-49597778D01*
X202450297Y-49571641D01*
X202449000Y-49545250D01*
X202449000Y-49006750D01*
X202450297Y-48980359D01*
X202454174Y-48954222D01*
X202460594Y-48928591D01*
X202469495Y-48903712D01*
X202480793Y-48879826D01*
X202494377Y-48857163D01*
X202510117Y-48835940D01*
X202527861Y-48816361D01*
X202547440Y-48798617D01*
X202568663Y-48782877D01*
X202591326Y-48769293D01*
X202615212Y-48757995D01*
X202640091Y-48749094D01*
X202665722Y-48742674D01*
X202691859Y-48738797D01*
X202718250Y-48737500D01*
X203681750Y-48737500D01*
X203708141Y-48738797D01*
X203708141Y-48738797D01*
G37*
D24*
X203200000Y-49276000D03*
D23*
G36*
X203708141Y-50613797D02*
G01*
X203734278Y-50617674D01*
X203759909Y-50624094D01*
X203784788Y-50632995D01*
X203808674Y-50644293D01*
X203831337Y-50657877D01*
X203852560Y-50673617D01*
X203872139Y-50691361D01*
X203889883Y-50710940D01*
X203905623Y-50732163D01*
X203919207Y-50754826D01*
X203930505Y-50778712D01*
X203939406Y-50803591D01*
X203945826Y-50829222D01*
X203949703Y-50855359D01*
X203951000Y-50881750D01*
X203951000Y-51420250D01*
X203949703Y-51446641D01*
X203945826Y-51472778D01*
X203939406Y-51498409D01*
X203930505Y-51523288D01*
X203919207Y-51547174D01*
X203905623Y-51569837D01*
X203889883Y-51591060D01*
X203872139Y-51610639D01*
X203852560Y-51628383D01*
X203831337Y-51644123D01*
X203808674Y-51657707D01*
X203784788Y-51669005D01*
X203759909Y-51677906D01*
X203734278Y-51684326D01*
X203708141Y-51688203D01*
X203681750Y-51689500D01*
X202718250Y-51689500D01*
X202691859Y-51688203D01*
X202665722Y-51684326D01*
X202640091Y-51677906D01*
X202615212Y-51669005D01*
X202591326Y-51657707D01*
X202568663Y-51644123D01*
X202547440Y-51628383D01*
X202527861Y-51610639D01*
X202510117Y-51591060D01*
X202494377Y-51569837D01*
X202480793Y-51547174D01*
X202469495Y-51523288D01*
X202460594Y-51498409D01*
X202454174Y-51472778D01*
X202450297Y-51446641D01*
X202449000Y-51420250D01*
X202449000Y-50881750D01*
X202450297Y-50855359D01*
X202454174Y-50829222D01*
X202460594Y-50803591D01*
X202469495Y-50778712D01*
X202480793Y-50754826D01*
X202494377Y-50732163D01*
X202510117Y-50710940D01*
X202527861Y-50691361D01*
X202547440Y-50673617D01*
X202568663Y-50657877D01*
X202591326Y-50644293D01*
X202615212Y-50632995D01*
X202640091Y-50624094D01*
X202665722Y-50617674D01*
X202691859Y-50613797D01*
X202718250Y-50612500D01*
X203681750Y-50612500D01*
X203708141Y-50613797D01*
X203708141Y-50613797D01*
G37*
D24*
X203200000Y-51151000D03*
D23*
G36*
X171958141Y-36545047D02*
G01*
X171984278Y-36548924D01*
X172009909Y-36555344D01*
X172034788Y-36564245D01*
X172058674Y-36575543D01*
X172081337Y-36589127D01*
X172102560Y-36604867D01*
X172122139Y-36622611D01*
X172139883Y-36642190D01*
X172155623Y-36663413D01*
X172169207Y-36686076D01*
X172180505Y-36709962D01*
X172189406Y-36734841D01*
X172195826Y-36760472D01*
X172199703Y-36786609D01*
X172201000Y-36813000D01*
X172201000Y-37351500D01*
X172199703Y-37377891D01*
X172195826Y-37404028D01*
X172189406Y-37429659D01*
X172180505Y-37454538D01*
X172169207Y-37478424D01*
X172155623Y-37501087D01*
X172139883Y-37522310D01*
X172122139Y-37541889D01*
X172102560Y-37559633D01*
X172081337Y-37575373D01*
X172058674Y-37588957D01*
X172034788Y-37600255D01*
X172009909Y-37609156D01*
X171984278Y-37615576D01*
X171958141Y-37619453D01*
X171931750Y-37620750D01*
X170968250Y-37620750D01*
X170941859Y-37619453D01*
X170915722Y-37615576D01*
X170890091Y-37609156D01*
X170865212Y-37600255D01*
X170841326Y-37588957D01*
X170818663Y-37575373D01*
X170797440Y-37559633D01*
X170777861Y-37541889D01*
X170760117Y-37522310D01*
X170744377Y-37501087D01*
X170730793Y-37478424D01*
X170719495Y-37454538D01*
X170710594Y-37429659D01*
X170704174Y-37404028D01*
X170700297Y-37377891D01*
X170699000Y-37351500D01*
X170699000Y-36813000D01*
X170700297Y-36786609D01*
X170704174Y-36760472D01*
X170710594Y-36734841D01*
X170719495Y-36709962D01*
X170730793Y-36686076D01*
X170744377Y-36663413D01*
X170760117Y-36642190D01*
X170777861Y-36622611D01*
X170797440Y-36604867D01*
X170818663Y-36589127D01*
X170841326Y-36575543D01*
X170865212Y-36564245D01*
X170890091Y-36555344D01*
X170915722Y-36548924D01*
X170941859Y-36545047D01*
X170968250Y-36543750D01*
X171931750Y-36543750D01*
X171958141Y-36545047D01*
X171958141Y-36545047D01*
G37*
D24*
X171450000Y-37082250D03*
D23*
G36*
X171958141Y-38420047D02*
G01*
X171984278Y-38423924D01*
X172009909Y-38430344D01*
X172034788Y-38439245D01*
X172058674Y-38450543D01*
X172081337Y-38464127D01*
X172102560Y-38479867D01*
X172122139Y-38497611D01*
X172139883Y-38517190D01*
X172155623Y-38538413D01*
X172169207Y-38561076D01*
X172180505Y-38584962D01*
X172189406Y-38609841D01*
X172195826Y-38635472D01*
X172199703Y-38661609D01*
X172201000Y-38688000D01*
X172201000Y-39226500D01*
X172199703Y-39252891D01*
X172195826Y-39279028D01*
X172189406Y-39304659D01*
X172180505Y-39329538D01*
X172169207Y-39353424D01*
X172155623Y-39376087D01*
X172139883Y-39397310D01*
X172122139Y-39416889D01*
X172102560Y-39434633D01*
X172081337Y-39450373D01*
X172058674Y-39463957D01*
X172034788Y-39475255D01*
X172009909Y-39484156D01*
X171984278Y-39490576D01*
X171958141Y-39494453D01*
X171931750Y-39495750D01*
X170968250Y-39495750D01*
X170941859Y-39494453D01*
X170915722Y-39490576D01*
X170890091Y-39484156D01*
X170865212Y-39475255D01*
X170841326Y-39463957D01*
X170818663Y-39450373D01*
X170797440Y-39434633D01*
X170777861Y-39416889D01*
X170760117Y-39397310D01*
X170744377Y-39376087D01*
X170730793Y-39353424D01*
X170719495Y-39329538D01*
X170710594Y-39304659D01*
X170704174Y-39279028D01*
X170700297Y-39252891D01*
X170699000Y-39226500D01*
X170699000Y-38688000D01*
X170700297Y-38661609D01*
X170704174Y-38635472D01*
X170710594Y-38609841D01*
X170719495Y-38584962D01*
X170730793Y-38561076D01*
X170744377Y-38538413D01*
X170760117Y-38517190D01*
X170777861Y-38497611D01*
X170797440Y-38479867D01*
X170818663Y-38464127D01*
X170841326Y-38450543D01*
X170865212Y-38439245D01*
X170890091Y-38430344D01*
X170915722Y-38423924D01*
X170941859Y-38420047D01*
X170968250Y-38418750D01*
X171931750Y-38418750D01*
X171958141Y-38420047D01*
X171958141Y-38420047D01*
G37*
D24*
X171450000Y-38957250D03*
D23*
G36*
X175133141Y-36545047D02*
G01*
X175159278Y-36548924D01*
X175184909Y-36555344D01*
X175209788Y-36564245D01*
X175233674Y-36575543D01*
X175256337Y-36589127D01*
X175277560Y-36604867D01*
X175297139Y-36622611D01*
X175314883Y-36642190D01*
X175330623Y-36663413D01*
X175344207Y-36686076D01*
X175355505Y-36709962D01*
X175364406Y-36734841D01*
X175370826Y-36760472D01*
X175374703Y-36786609D01*
X175376000Y-36813000D01*
X175376000Y-37351500D01*
X175374703Y-37377891D01*
X175370826Y-37404028D01*
X175364406Y-37429659D01*
X175355505Y-37454538D01*
X175344207Y-37478424D01*
X175330623Y-37501087D01*
X175314883Y-37522310D01*
X175297139Y-37541889D01*
X175277560Y-37559633D01*
X175256337Y-37575373D01*
X175233674Y-37588957D01*
X175209788Y-37600255D01*
X175184909Y-37609156D01*
X175159278Y-37615576D01*
X175133141Y-37619453D01*
X175106750Y-37620750D01*
X174143250Y-37620750D01*
X174116859Y-37619453D01*
X174090722Y-37615576D01*
X174065091Y-37609156D01*
X174040212Y-37600255D01*
X174016326Y-37588957D01*
X173993663Y-37575373D01*
X173972440Y-37559633D01*
X173952861Y-37541889D01*
X173935117Y-37522310D01*
X173919377Y-37501087D01*
X173905793Y-37478424D01*
X173894495Y-37454538D01*
X173885594Y-37429659D01*
X173879174Y-37404028D01*
X173875297Y-37377891D01*
X173874000Y-37351500D01*
X173874000Y-36813000D01*
X173875297Y-36786609D01*
X173879174Y-36760472D01*
X173885594Y-36734841D01*
X173894495Y-36709962D01*
X173905793Y-36686076D01*
X173919377Y-36663413D01*
X173935117Y-36642190D01*
X173952861Y-36622611D01*
X173972440Y-36604867D01*
X173993663Y-36589127D01*
X174016326Y-36575543D01*
X174040212Y-36564245D01*
X174065091Y-36555344D01*
X174090722Y-36548924D01*
X174116859Y-36545047D01*
X174143250Y-36543750D01*
X175106750Y-36543750D01*
X175133141Y-36545047D01*
X175133141Y-36545047D01*
G37*
D24*
X174625000Y-37082250D03*
D23*
G36*
X175133141Y-38420047D02*
G01*
X175159278Y-38423924D01*
X175184909Y-38430344D01*
X175209788Y-38439245D01*
X175233674Y-38450543D01*
X175256337Y-38464127D01*
X175277560Y-38479867D01*
X175297139Y-38497611D01*
X175314883Y-38517190D01*
X175330623Y-38538413D01*
X175344207Y-38561076D01*
X175355505Y-38584962D01*
X175364406Y-38609841D01*
X175370826Y-38635472D01*
X175374703Y-38661609D01*
X175376000Y-38688000D01*
X175376000Y-39226500D01*
X175374703Y-39252891D01*
X175370826Y-39279028D01*
X175364406Y-39304659D01*
X175355505Y-39329538D01*
X175344207Y-39353424D01*
X175330623Y-39376087D01*
X175314883Y-39397310D01*
X175297139Y-39416889D01*
X175277560Y-39434633D01*
X175256337Y-39450373D01*
X175233674Y-39463957D01*
X175209788Y-39475255D01*
X175184909Y-39484156D01*
X175159278Y-39490576D01*
X175133141Y-39494453D01*
X175106750Y-39495750D01*
X174143250Y-39495750D01*
X174116859Y-39494453D01*
X174090722Y-39490576D01*
X174065091Y-39484156D01*
X174040212Y-39475255D01*
X174016326Y-39463957D01*
X173993663Y-39450373D01*
X173972440Y-39434633D01*
X173952861Y-39416889D01*
X173935117Y-39397310D01*
X173919377Y-39376087D01*
X173905793Y-39353424D01*
X173894495Y-39329538D01*
X173885594Y-39304659D01*
X173879174Y-39279028D01*
X173875297Y-39252891D01*
X173874000Y-39226500D01*
X173874000Y-38688000D01*
X173875297Y-38661609D01*
X173879174Y-38635472D01*
X173885594Y-38609841D01*
X173894495Y-38584962D01*
X173905793Y-38561076D01*
X173919377Y-38538413D01*
X173935117Y-38517190D01*
X173952861Y-38497611D01*
X173972440Y-38479867D01*
X173993663Y-38464127D01*
X174016326Y-38450543D01*
X174040212Y-38439245D01*
X174065091Y-38430344D01*
X174090722Y-38423924D01*
X174116859Y-38420047D01*
X174143250Y-38418750D01*
X175106750Y-38418750D01*
X175133141Y-38420047D01*
X175133141Y-38420047D01*
G37*
D24*
X174625000Y-38957250D03*
D23*
G36*
X183070641Y-37913797D02*
G01*
X183096778Y-37917674D01*
X183122409Y-37924094D01*
X183147288Y-37932995D01*
X183171174Y-37944293D01*
X183193837Y-37957877D01*
X183215060Y-37973617D01*
X183234639Y-37991361D01*
X183252383Y-38010940D01*
X183268123Y-38032163D01*
X183281707Y-38054826D01*
X183293005Y-38078712D01*
X183301906Y-38103591D01*
X183308326Y-38129222D01*
X183312203Y-38155359D01*
X183313500Y-38181750D01*
X183313500Y-38720250D01*
X183312203Y-38746641D01*
X183308326Y-38772778D01*
X183301906Y-38798409D01*
X183293005Y-38823288D01*
X183281707Y-38847174D01*
X183268123Y-38869837D01*
X183252383Y-38891060D01*
X183234639Y-38910639D01*
X183215060Y-38928383D01*
X183193837Y-38944123D01*
X183171174Y-38957707D01*
X183147288Y-38969005D01*
X183122409Y-38977906D01*
X183096778Y-38984326D01*
X183070641Y-38988203D01*
X183044250Y-38989500D01*
X182080750Y-38989500D01*
X182054359Y-38988203D01*
X182028222Y-38984326D01*
X182002591Y-38977906D01*
X181977712Y-38969005D01*
X181953826Y-38957707D01*
X181931163Y-38944123D01*
X181909940Y-38928383D01*
X181890361Y-38910639D01*
X181872617Y-38891060D01*
X181856877Y-38869837D01*
X181843293Y-38847174D01*
X181831995Y-38823288D01*
X181823094Y-38798409D01*
X181816674Y-38772778D01*
X181812797Y-38746641D01*
X181811500Y-38720250D01*
X181811500Y-38181750D01*
X181812797Y-38155359D01*
X181816674Y-38129222D01*
X181823094Y-38103591D01*
X181831995Y-38078712D01*
X181843293Y-38054826D01*
X181856877Y-38032163D01*
X181872617Y-38010940D01*
X181890361Y-37991361D01*
X181909940Y-37973617D01*
X181931163Y-37957877D01*
X181953826Y-37944293D01*
X181977712Y-37932995D01*
X182002591Y-37924094D01*
X182028222Y-37917674D01*
X182054359Y-37913797D01*
X182080750Y-37912500D01*
X183044250Y-37912500D01*
X183070641Y-37913797D01*
X183070641Y-37913797D01*
G37*
D24*
X182562500Y-38451000D03*
D23*
G36*
X183070641Y-36038797D02*
G01*
X183096778Y-36042674D01*
X183122409Y-36049094D01*
X183147288Y-36057995D01*
X183171174Y-36069293D01*
X183193837Y-36082877D01*
X183215060Y-36098617D01*
X183234639Y-36116361D01*
X183252383Y-36135940D01*
X183268123Y-36157163D01*
X183281707Y-36179826D01*
X183293005Y-36203712D01*
X183301906Y-36228591D01*
X183308326Y-36254222D01*
X183312203Y-36280359D01*
X183313500Y-36306750D01*
X183313500Y-36845250D01*
X183312203Y-36871641D01*
X183308326Y-36897778D01*
X183301906Y-36923409D01*
X183293005Y-36948288D01*
X183281707Y-36972174D01*
X183268123Y-36994837D01*
X183252383Y-37016060D01*
X183234639Y-37035639D01*
X183215060Y-37053383D01*
X183193837Y-37069123D01*
X183171174Y-37082707D01*
X183147288Y-37094005D01*
X183122409Y-37102906D01*
X183096778Y-37109326D01*
X183070641Y-37113203D01*
X183044250Y-37114500D01*
X182080750Y-37114500D01*
X182054359Y-37113203D01*
X182028222Y-37109326D01*
X182002591Y-37102906D01*
X181977712Y-37094005D01*
X181953826Y-37082707D01*
X181931163Y-37069123D01*
X181909940Y-37053383D01*
X181890361Y-37035639D01*
X181872617Y-37016060D01*
X181856877Y-36994837D01*
X181843293Y-36972174D01*
X181831995Y-36948288D01*
X181823094Y-36923409D01*
X181816674Y-36897778D01*
X181812797Y-36871641D01*
X181811500Y-36845250D01*
X181811500Y-36306750D01*
X181812797Y-36280359D01*
X181816674Y-36254222D01*
X181823094Y-36228591D01*
X181831995Y-36203712D01*
X181843293Y-36179826D01*
X181856877Y-36157163D01*
X181872617Y-36135940D01*
X181890361Y-36116361D01*
X181909940Y-36098617D01*
X181931163Y-36082877D01*
X181953826Y-36069293D01*
X181977712Y-36057995D01*
X182002591Y-36049094D01*
X182028222Y-36042674D01*
X182054359Y-36038797D01*
X182080750Y-36037500D01*
X183044250Y-36037500D01*
X183070641Y-36038797D01*
X183070641Y-36038797D01*
G37*
D24*
X182562500Y-36576000D03*
D23*
G36*
X168957104Y-42626302D02*
G01*
X168983352Y-42630196D01*
X169009093Y-42636643D01*
X169034078Y-42645583D01*
X169058066Y-42656928D01*
X169080826Y-42670571D01*
X169102140Y-42686378D01*
X169121802Y-42704198D01*
X169139622Y-42723860D01*
X169155429Y-42745174D01*
X169169072Y-42767934D01*
X169180417Y-42791922D01*
X169189357Y-42816907D01*
X169195804Y-42842648D01*
X169199698Y-42868896D01*
X169201000Y-42895400D01*
X169201000Y-43706600D01*
X169199698Y-43733104D01*
X169195804Y-43759352D01*
X169189357Y-43785093D01*
X169180417Y-43810078D01*
X169169072Y-43834066D01*
X169155429Y-43856826D01*
X169139622Y-43878140D01*
X169121802Y-43897802D01*
X169102140Y-43915622D01*
X169080826Y-43931429D01*
X169058066Y-43945072D01*
X169034078Y-43956417D01*
X169009093Y-43965357D01*
X168983352Y-43971804D01*
X168957104Y-43975698D01*
X168930600Y-43977000D01*
X167619400Y-43977000D01*
X167592896Y-43975698D01*
X167566648Y-43971804D01*
X167540907Y-43965357D01*
X167515922Y-43956417D01*
X167491934Y-43945072D01*
X167469174Y-43931429D01*
X167447860Y-43915622D01*
X167428198Y-43897802D01*
X167410378Y-43878140D01*
X167394571Y-43856826D01*
X167380928Y-43834066D01*
X167369583Y-43810078D01*
X167360643Y-43785093D01*
X167354196Y-43759352D01*
X167350302Y-43733104D01*
X167349000Y-43706600D01*
X167349000Y-42895400D01*
X167350302Y-42868896D01*
X167354196Y-42842648D01*
X167360643Y-42816907D01*
X167369583Y-42791922D01*
X167380928Y-42767934D01*
X167394571Y-42745174D01*
X167410378Y-42723860D01*
X167428198Y-42704198D01*
X167447860Y-42686378D01*
X167469174Y-42670571D01*
X167491934Y-42656928D01*
X167515922Y-42645583D01*
X167540907Y-42636643D01*
X167566648Y-42630196D01*
X167592896Y-42626302D01*
X167619400Y-42625000D01*
X168930600Y-42625000D01*
X168957104Y-42626302D01*
X168957104Y-42626302D01*
G37*
D25*
X168275000Y-43301000D03*
D23*
G36*
X168957104Y-45426302D02*
G01*
X168983352Y-45430196D01*
X169009093Y-45436643D01*
X169034078Y-45445583D01*
X169058066Y-45456928D01*
X169080826Y-45470571D01*
X169102140Y-45486378D01*
X169121802Y-45504198D01*
X169139622Y-45523860D01*
X169155429Y-45545174D01*
X169169072Y-45567934D01*
X169180417Y-45591922D01*
X169189357Y-45616907D01*
X169195804Y-45642648D01*
X169199698Y-45668896D01*
X169201000Y-45695400D01*
X169201000Y-46506600D01*
X169199698Y-46533104D01*
X169195804Y-46559352D01*
X169189357Y-46585093D01*
X169180417Y-46610078D01*
X169169072Y-46634066D01*
X169155429Y-46656826D01*
X169139622Y-46678140D01*
X169121802Y-46697802D01*
X169102140Y-46715622D01*
X169080826Y-46731429D01*
X169058066Y-46745072D01*
X169034078Y-46756417D01*
X169009093Y-46765357D01*
X168983352Y-46771804D01*
X168957104Y-46775698D01*
X168930600Y-46777000D01*
X167619400Y-46777000D01*
X167592896Y-46775698D01*
X167566648Y-46771804D01*
X167540907Y-46765357D01*
X167515922Y-46756417D01*
X167491934Y-46745072D01*
X167469174Y-46731429D01*
X167447860Y-46715622D01*
X167428198Y-46697802D01*
X167410378Y-46678140D01*
X167394571Y-46656826D01*
X167380928Y-46634066D01*
X167369583Y-46610078D01*
X167360643Y-46585093D01*
X167354196Y-46559352D01*
X167350302Y-46533104D01*
X167349000Y-46506600D01*
X167349000Y-45695400D01*
X167350302Y-45668896D01*
X167354196Y-45642648D01*
X167360643Y-45616907D01*
X167369583Y-45591922D01*
X167380928Y-45567934D01*
X167394571Y-45545174D01*
X167410378Y-45523860D01*
X167428198Y-45504198D01*
X167447860Y-45486378D01*
X167469174Y-45470571D01*
X167491934Y-45456928D01*
X167515922Y-45445583D01*
X167540907Y-45436643D01*
X167566648Y-45430196D01*
X167592896Y-45426302D01*
X167619400Y-45425000D01*
X168930600Y-45425000D01*
X168957104Y-45426302D01*
X168957104Y-45426302D01*
G37*
D25*
X168275000Y-46101000D03*
D26*
X241300000Y-52388500D03*
X241300000Y-55688500D03*
X222250000Y-52388500D03*
X222250000Y-55688500D03*
X241300000Y-33338500D03*
X241300000Y-36638500D03*
X222250000Y-33338500D03*
X222250000Y-36638500D03*
D23*
G36*
X183864391Y-51913797D02*
G01*
X183890528Y-51917674D01*
X183916159Y-51924094D01*
X183941038Y-51932995D01*
X183964924Y-51944293D01*
X183987587Y-51957877D01*
X184008810Y-51973617D01*
X184028389Y-51991361D01*
X184046133Y-52010940D01*
X184061873Y-52032163D01*
X184075457Y-52054826D01*
X184086755Y-52078712D01*
X184095656Y-52103591D01*
X184102076Y-52129222D01*
X184105953Y-52155359D01*
X184107250Y-52181750D01*
X184107250Y-52720250D01*
X184105953Y-52746641D01*
X184102076Y-52772778D01*
X184095656Y-52798409D01*
X184086755Y-52823288D01*
X184075457Y-52847174D01*
X184061873Y-52869837D01*
X184046133Y-52891060D01*
X184028389Y-52910639D01*
X184008810Y-52928383D01*
X183987587Y-52944123D01*
X183964924Y-52957707D01*
X183941038Y-52969005D01*
X183916159Y-52977906D01*
X183890528Y-52984326D01*
X183864391Y-52988203D01*
X183838000Y-52989500D01*
X182874500Y-52989500D01*
X182848109Y-52988203D01*
X182821972Y-52984326D01*
X182796341Y-52977906D01*
X182771462Y-52969005D01*
X182747576Y-52957707D01*
X182724913Y-52944123D01*
X182703690Y-52928383D01*
X182684111Y-52910639D01*
X182666367Y-52891060D01*
X182650627Y-52869837D01*
X182637043Y-52847174D01*
X182625745Y-52823288D01*
X182616844Y-52798409D01*
X182610424Y-52772778D01*
X182606547Y-52746641D01*
X182605250Y-52720250D01*
X182605250Y-52181750D01*
X182606547Y-52155359D01*
X182610424Y-52129222D01*
X182616844Y-52103591D01*
X182625745Y-52078712D01*
X182637043Y-52054826D01*
X182650627Y-52032163D01*
X182666367Y-52010940D01*
X182684111Y-51991361D01*
X182703690Y-51973617D01*
X182724913Y-51957877D01*
X182747576Y-51944293D01*
X182771462Y-51932995D01*
X182796341Y-51924094D01*
X182821972Y-51917674D01*
X182848109Y-51913797D01*
X182874500Y-51912500D01*
X183838000Y-51912500D01*
X183864391Y-51913797D01*
X183864391Y-51913797D01*
G37*
D24*
X183356250Y-52451000D03*
D23*
G36*
X183864391Y-50038797D02*
G01*
X183890528Y-50042674D01*
X183916159Y-50049094D01*
X183941038Y-50057995D01*
X183964924Y-50069293D01*
X183987587Y-50082877D01*
X184008810Y-50098617D01*
X184028389Y-50116361D01*
X184046133Y-50135940D01*
X184061873Y-50157163D01*
X184075457Y-50179826D01*
X184086755Y-50203712D01*
X184095656Y-50228591D01*
X184102076Y-50254222D01*
X184105953Y-50280359D01*
X184107250Y-50306750D01*
X184107250Y-50845250D01*
X184105953Y-50871641D01*
X184102076Y-50897778D01*
X184095656Y-50923409D01*
X184086755Y-50948288D01*
X184075457Y-50972174D01*
X184061873Y-50994837D01*
X184046133Y-51016060D01*
X184028389Y-51035639D01*
X184008810Y-51053383D01*
X183987587Y-51069123D01*
X183964924Y-51082707D01*
X183941038Y-51094005D01*
X183916159Y-51102906D01*
X183890528Y-51109326D01*
X183864391Y-51113203D01*
X183838000Y-51114500D01*
X182874500Y-51114500D01*
X182848109Y-51113203D01*
X182821972Y-51109326D01*
X182796341Y-51102906D01*
X182771462Y-51094005D01*
X182747576Y-51082707D01*
X182724913Y-51069123D01*
X182703690Y-51053383D01*
X182684111Y-51035639D01*
X182666367Y-51016060D01*
X182650627Y-50994837D01*
X182637043Y-50972174D01*
X182625745Y-50948288D01*
X182616844Y-50923409D01*
X182610424Y-50897778D01*
X182606547Y-50871641D01*
X182605250Y-50845250D01*
X182605250Y-50306750D01*
X182606547Y-50280359D01*
X182610424Y-50254222D01*
X182616844Y-50228591D01*
X182625745Y-50203712D01*
X182637043Y-50179826D01*
X182650627Y-50157163D01*
X182666367Y-50135940D01*
X182684111Y-50116361D01*
X182703690Y-50098617D01*
X182724913Y-50082877D01*
X182747576Y-50069293D01*
X182771462Y-50057995D01*
X182796341Y-50049094D01*
X182821972Y-50042674D01*
X182848109Y-50038797D01*
X182874500Y-50037500D01*
X183838000Y-50037500D01*
X183864391Y-50038797D01*
X183864391Y-50038797D01*
G37*
D24*
X183356250Y-50576000D03*
D23*
G36*
X197001891Y-54876297D02*
G01*
X197028028Y-54880174D01*
X197053659Y-54886594D01*
X197078538Y-54895495D01*
X197102424Y-54906793D01*
X197125087Y-54920377D01*
X197146310Y-54936117D01*
X197165889Y-54953861D01*
X197183633Y-54973440D01*
X197199373Y-54994663D01*
X197212957Y-55017326D01*
X197224255Y-55041212D01*
X197233156Y-55066091D01*
X197239576Y-55091722D01*
X197243453Y-55117859D01*
X197244750Y-55144250D01*
X197244750Y-56107750D01*
X197243453Y-56134141D01*
X197239576Y-56160278D01*
X197233156Y-56185909D01*
X197224255Y-56210788D01*
X197212957Y-56234674D01*
X197199373Y-56257337D01*
X197183633Y-56278560D01*
X197165889Y-56298139D01*
X197146310Y-56315883D01*
X197125087Y-56331623D01*
X197102424Y-56345207D01*
X197078538Y-56356505D01*
X197053659Y-56365406D01*
X197028028Y-56371826D01*
X197001891Y-56375703D01*
X196975500Y-56377000D01*
X196437000Y-56377000D01*
X196410609Y-56375703D01*
X196384472Y-56371826D01*
X196358841Y-56365406D01*
X196333962Y-56356505D01*
X196310076Y-56345207D01*
X196287413Y-56331623D01*
X196266190Y-56315883D01*
X196246611Y-56298139D01*
X196228867Y-56278560D01*
X196213127Y-56257337D01*
X196199543Y-56234674D01*
X196188245Y-56210788D01*
X196179344Y-56185909D01*
X196172924Y-56160278D01*
X196169047Y-56134141D01*
X196167750Y-56107750D01*
X196167750Y-55144250D01*
X196169047Y-55117859D01*
X196172924Y-55091722D01*
X196179344Y-55066091D01*
X196188245Y-55041212D01*
X196199543Y-55017326D01*
X196213127Y-54994663D01*
X196228867Y-54973440D01*
X196246611Y-54953861D01*
X196266190Y-54936117D01*
X196287413Y-54920377D01*
X196310076Y-54906793D01*
X196333962Y-54895495D01*
X196358841Y-54886594D01*
X196384472Y-54880174D01*
X196410609Y-54876297D01*
X196437000Y-54875000D01*
X196975500Y-54875000D01*
X197001891Y-54876297D01*
X197001891Y-54876297D01*
G37*
D24*
X196706250Y-55626000D03*
D23*
G36*
X198876891Y-54876297D02*
G01*
X198903028Y-54880174D01*
X198928659Y-54886594D01*
X198953538Y-54895495D01*
X198977424Y-54906793D01*
X199000087Y-54920377D01*
X199021310Y-54936117D01*
X199040889Y-54953861D01*
X199058633Y-54973440D01*
X199074373Y-54994663D01*
X199087957Y-55017326D01*
X199099255Y-55041212D01*
X199108156Y-55066091D01*
X199114576Y-55091722D01*
X199118453Y-55117859D01*
X199119750Y-55144250D01*
X199119750Y-56107750D01*
X199118453Y-56134141D01*
X199114576Y-56160278D01*
X199108156Y-56185909D01*
X199099255Y-56210788D01*
X199087957Y-56234674D01*
X199074373Y-56257337D01*
X199058633Y-56278560D01*
X199040889Y-56298139D01*
X199021310Y-56315883D01*
X199000087Y-56331623D01*
X198977424Y-56345207D01*
X198953538Y-56356505D01*
X198928659Y-56365406D01*
X198903028Y-56371826D01*
X198876891Y-56375703D01*
X198850500Y-56377000D01*
X198312000Y-56377000D01*
X198285609Y-56375703D01*
X198259472Y-56371826D01*
X198233841Y-56365406D01*
X198208962Y-56356505D01*
X198185076Y-56345207D01*
X198162413Y-56331623D01*
X198141190Y-56315883D01*
X198121611Y-56298139D01*
X198103867Y-56278560D01*
X198088127Y-56257337D01*
X198074543Y-56234674D01*
X198063245Y-56210788D01*
X198054344Y-56185909D01*
X198047924Y-56160278D01*
X198044047Y-56134141D01*
X198042750Y-56107750D01*
X198042750Y-55144250D01*
X198044047Y-55117859D01*
X198047924Y-55091722D01*
X198054344Y-55066091D01*
X198063245Y-55041212D01*
X198074543Y-55017326D01*
X198088127Y-54994663D01*
X198103867Y-54973440D01*
X198121611Y-54953861D01*
X198141190Y-54936117D01*
X198162413Y-54920377D01*
X198185076Y-54906793D01*
X198208962Y-54895495D01*
X198233841Y-54886594D01*
X198259472Y-54880174D01*
X198285609Y-54876297D01*
X198312000Y-54875000D01*
X198850500Y-54875000D01*
X198876891Y-54876297D01*
X198876891Y-54876297D01*
G37*
D24*
X198581250Y-55626000D03*
D23*
G36*
X203708141Y-40007547D02*
G01*
X203734278Y-40011424D01*
X203759909Y-40017844D01*
X203784788Y-40026745D01*
X203808674Y-40038043D01*
X203831337Y-40051627D01*
X203852560Y-40067367D01*
X203872139Y-40085111D01*
X203889883Y-40104690D01*
X203905623Y-40125913D01*
X203919207Y-40148576D01*
X203930505Y-40172462D01*
X203939406Y-40197341D01*
X203945826Y-40222972D01*
X203949703Y-40249109D01*
X203951000Y-40275500D01*
X203951000Y-40814000D01*
X203949703Y-40840391D01*
X203945826Y-40866528D01*
X203939406Y-40892159D01*
X203930505Y-40917038D01*
X203919207Y-40940924D01*
X203905623Y-40963587D01*
X203889883Y-40984810D01*
X203872139Y-41004389D01*
X203852560Y-41022133D01*
X203831337Y-41037873D01*
X203808674Y-41051457D01*
X203784788Y-41062755D01*
X203759909Y-41071656D01*
X203734278Y-41078076D01*
X203708141Y-41081953D01*
X203681750Y-41083250D01*
X202718250Y-41083250D01*
X202691859Y-41081953D01*
X202665722Y-41078076D01*
X202640091Y-41071656D01*
X202615212Y-41062755D01*
X202591326Y-41051457D01*
X202568663Y-41037873D01*
X202547440Y-41022133D01*
X202527861Y-41004389D01*
X202510117Y-40984810D01*
X202494377Y-40963587D01*
X202480793Y-40940924D01*
X202469495Y-40917038D01*
X202460594Y-40892159D01*
X202454174Y-40866528D01*
X202450297Y-40840391D01*
X202449000Y-40814000D01*
X202449000Y-40275500D01*
X202450297Y-40249109D01*
X202454174Y-40222972D01*
X202460594Y-40197341D01*
X202469495Y-40172462D01*
X202480793Y-40148576D01*
X202494377Y-40125913D01*
X202510117Y-40104690D01*
X202527861Y-40085111D01*
X202547440Y-40067367D01*
X202568663Y-40051627D01*
X202591326Y-40038043D01*
X202615212Y-40026745D01*
X202640091Y-40017844D01*
X202665722Y-40011424D01*
X202691859Y-40007547D01*
X202718250Y-40006250D01*
X203681750Y-40006250D01*
X203708141Y-40007547D01*
X203708141Y-40007547D01*
G37*
D24*
X203200000Y-40544750D03*
D23*
G36*
X203708141Y-41882547D02*
G01*
X203734278Y-41886424D01*
X203759909Y-41892844D01*
X203784788Y-41901745D01*
X203808674Y-41913043D01*
X203831337Y-41926627D01*
X203852560Y-41942367D01*
X203872139Y-41960111D01*
X203889883Y-41979690D01*
X203905623Y-42000913D01*
X203919207Y-42023576D01*
X203930505Y-42047462D01*
X203939406Y-42072341D01*
X203945826Y-42097972D01*
X203949703Y-42124109D01*
X203951000Y-42150500D01*
X203951000Y-42689000D01*
X203949703Y-42715391D01*
X203945826Y-42741528D01*
X203939406Y-42767159D01*
X203930505Y-42792038D01*
X203919207Y-42815924D01*
X203905623Y-42838587D01*
X203889883Y-42859810D01*
X203872139Y-42879389D01*
X203852560Y-42897133D01*
X203831337Y-42912873D01*
X203808674Y-42926457D01*
X203784788Y-42937755D01*
X203759909Y-42946656D01*
X203734278Y-42953076D01*
X203708141Y-42956953D01*
X203681750Y-42958250D01*
X202718250Y-42958250D01*
X202691859Y-42956953D01*
X202665722Y-42953076D01*
X202640091Y-42946656D01*
X202615212Y-42937755D01*
X202591326Y-42926457D01*
X202568663Y-42912873D01*
X202547440Y-42897133D01*
X202527861Y-42879389D01*
X202510117Y-42859810D01*
X202494377Y-42838587D01*
X202480793Y-42815924D01*
X202469495Y-42792038D01*
X202460594Y-42767159D01*
X202454174Y-42741528D01*
X202450297Y-42715391D01*
X202449000Y-42689000D01*
X202449000Y-42150500D01*
X202450297Y-42124109D01*
X202454174Y-42097972D01*
X202460594Y-42072341D01*
X202469495Y-42047462D01*
X202480793Y-42023576D01*
X202494377Y-42000913D01*
X202510117Y-41979690D01*
X202527861Y-41960111D01*
X202547440Y-41942367D01*
X202568663Y-41926627D01*
X202591326Y-41913043D01*
X202615212Y-41901745D01*
X202640091Y-41892844D01*
X202665722Y-41886424D01*
X202691859Y-41882547D01*
X202718250Y-41881250D01*
X203681750Y-41881250D01*
X203708141Y-41882547D01*
X203708141Y-41882547D01*
G37*
D24*
X203200000Y-42419750D03*
D23*
G36*
X186245641Y-36038797D02*
G01*
X186271778Y-36042674D01*
X186297409Y-36049094D01*
X186322288Y-36057995D01*
X186346174Y-36069293D01*
X186368837Y-36082877D01*
X186390060Y-36098617D01*
X186409639Y-36116361D01*
X186427383Y-36135940D01*
X186443123Y-36157163D01*
X186456707Y-36179826D01*
X186468005Y-36203712D01*
X186476906Y-36228591D01*
X186483326Y-36254222D01*
X186487203Y-36280359D01*
X186488500Y-36306750D01*
X186488500Y-36845250D01*
X186487203Y-36871641D01*
X186483326Y-36897778D01*
X186476906Y-36923409D01*
X186468005Y-36948288D01*
X186456707Y-36972174D01*
X186443123Y-36994837D01*
X186427383Y-37016060D01*
X186409639Y-37035639D01*
X186390060Y-37053383D01*
X186368837Y-37069123D01*
X186346174Y-37082707D01*
X186322288Y-37094005D01*
X186297409Y-37102906D01*
X186271778Y-37109326D01*
X186245641Y-37113203D01*
X186219250Y-37114500D01*
X185255750Y-37114500D01*
X185229359Y-37113203D01*
X185203222Y-37109326D01*
X185177591Y-37102906D01*
X185152712Y-37094005D01*
X185128826Y-37082707D01*
X185106163Y-37069123D01*
X185084940Y-37053383D01*
X185065361Y-37035639D01*
X185047617Y-37016060D01*
X185031877Y-36994837D01*
X185018293Y-36972174D01*
X185006995Y-36948288D01*
X184998094Y-36923409D01*
X184991674Y-36897778D01*
X184987797Y-36871641D01*
X184986500Y-36845250D01*
X184986500Y-36306750D01*
X184987797Y-36280359D01*
X184991674Y-36254222D01*
X184998094Y-36228591D01*
X185006995Y-36203712D01*
X185018293Y-36179826D01*
X185031877Y-36157163D01*
X185047617Y-36135940D01*
X185065361Y-36116361D01*
X185084940Y-36098617D01*
X185106163Y-36082877D01*
X185128826Y-36069293D01*
X185152712Y-36057995D01*
X185177591Y-36049094D01*
X185203222Y-36042674D01*
X185229359Y-36038797D01*
X185255750Y-36037500D01*
X186219250Y-36037500D01*
X186245641Y-36038797D01*
X186245641Y-36038797D01*
G37*
D24*
X185737500Y-36576000D03*
D23*
G36*
X186245641Y-37913797D02*
G01*
X186271778Y-37917674D01*
X186297409Y-37924094D01*
X186322288Y-37932995D01*
X186346174Y-37944293D01*
X186368837Y-37957877D01*
X186390060Y-37973617D01*
X186409639Y-37991361D01*
X186427383Y-38010940D01*
X186443123Y-38032163D01*
X186456707Y-38054826D01*
X186468005Y-38078712D01*
X186476906Y-38103591D01*
X186483326Y-38129222D01*
X186487203Y-38155359D01*
X186488500Y-38181750D01*
X186488500Y-38720250D01*
X186487203Y-38746641D01*
X186483326Y-38772778D01*
X186476906Y-38798409D01*
X186468005Y-38823288D01*
X186456707Y-38847174D01*
X186443123Y-38869837D01*
X186427383Y-38891060D01*
X186409639Y-38910639D01*
X186390060Y-38928383D01*
X186368837Y-38944123D01*
X186346174Y-38957707D01*
X186322288Y-38969005D01*
X186297409Y-38977906D01*
X186271778Y-38984326D01*
X186245641Y-38988203D01*
X186219250Y-38989500D01*
X185255750Y-38989500D01*
X185229359Y-38988203D01*
X185203222Y-38984326D01*
X185177591Y-38977906D01*
X185152712Y-38969005D01*
X185128826Y-38957707D01*
X185106163Y-38944123D01*
X185084940Y-38928383D01*
X185065361Y-38910639D01*
X185047617Y-38891060D01*
X185031877Y-38869837D01*
X185018293Y-38847174D01*
X185006995Y-38823288D01*
X184998094Y-38798409D01*
X184991674Y-38772778D01*
X184987797Y-38746641D01*
X184986500Y-38720250D01*
X184986500Y-38181750D01*
X184987797Y-38155359D01*
X184991674Y-38129222D01*
X184998094Y-38103591D01*
X185006995Y-38078712D01*
X185018293Y-38054826D01*
X185031877Y-38032163D01*
X185047617Y-38010940D01*
X185065361Y-37991361D01*
X185084940Y-37973617D01*
X185106163Y-37957877D01*
X185128826Y-37944293D01*
X185152712Y-37932995D01*
X185177591Y-37924094D01*
X185203222Y-37917674D01*
X185229359Y-37913797D01*
X185255750Y-37912500D01*
X186219250Y-37912500D01*
X186245641Y-37913797D01*
X186245641Y-37913797D01*
G37*
D24*
X185737500Y-38451000D03*
D23*
G36*
X182858141Y-44557547D02*
G01*
X182884278Y-44561424D01*
X182909909Y-44567844D01*
X182934788Y-44576745D01*
X182958674Y-44588043D01*
X182981337Y-44601627D01*
X183002560Y-44617367D01*
X183022139Y-44635111D01*
X183039883Y-44654690D01*
X183055623Y-44675913D01*
X183069207Y-44698576D01*
X183080505Y-44722462D01*
X183089406Y-44747341D01*
X183095826Y-44772972D01*
X183099703Y-44799109D01*
X183101000Y-44825500D01*
X183101000Y-45789000D01*
X183099703Y-45815391D01*
X183095826Y-45841528D01*
X183089406Y-45867159D01*
X183080505Y-45892038D01*
X183069207Y-45915924D01*
X183055623Y-45938587D01*
X183039883Y-45959810D01*
X183022139Y-45979389D01*
X183002560Y-45997133D01*
X182981337Y-46012873D01*
X182958674Y-46026457D01*
X182934788Y-46037755D01*
X182909909Y-46046656D01*
X182884278Y-46053076D01*
X182858141Y-46056953D01*
X182831750Y-46058250D01*
X182293250Y-46058250D01*
X182266859Y-46056953D01*
X182240722Y-46053076D01*
X182215091Y-46046656D01*
X182190212Y-46037755D01*
X182166326Y-46026457D01*
X182143663Y-46012873D01*
X182122440Y-45997133D01*
X182102861Y-45979389D01*
X182085117Y-45959810D01*
X182069377Y-45938587D01*
X182055793Y-45915924D01*
X182044495Y-45892038D01*
X182035594Y-45867159D01*
X182029174Y-45841528D01*
X182025297Y-45815391D01*
X182024000Y-45789000D01*
X182024000Y-44825500D01*
X182025297Y-44799109D01*
X182029174Y-44772972D01*
X182035594Y-44747341D01*
X182044495Y-44722462D01*
X182055793Y-44698576D01*
X182069377Y-44675913D01*
X182085117Y-44654690D01*
X182102861Y-44635111D01*
X182122440Y-44617367D01*
X182143663Y-44601627D01*
X182166326Y-44588043D01*
X182190212Y-44576745D01*
X182215091Y-44567844D01*
X182240722Y-44561424D01*
X182266859Y-44557547D01*
X182293250Y-44556250D01*
X182831750Y-44556250D01*
X182858141Y-44557547D01*
X182858141Y-44557547D01*
G37*
D24*
X182562500Y-45307250D03*
D23*
G36*
X184733141Y-44557547D02*
G01*
X184759278Y-44561424D01*
X184784909Y-44567844D01*
X184809788Y-44576745D01*
X184833674Y-44588043D01*
X184856337Y-44601627D01*
X184877560Y-44617367D01*
X184897139Y-44635111D01*
X184914883Y-44654690D01*
X184930623Y-44675913D01*
X184944207Y-44698576D01*
X184955505Y-44722462D01*
X184964406Y-44747341D01*
X184970826Y-44772972D01*
X184974703Y-44799109D01*
X184976000Y-44825500D01*
X184976000Y-45789000D01*
X184974703Y-45815391D01*
X184970826Y-45841528D01*
X184964406Y-45867159D01*
X184955505Y-45892038D01*
X184944207Y-45915924D01*
X184930623Y-45938587D01*
X184914883Y-45959810D01*
X184897139Y-45979389D01*
X184877560Y-45997133D01*
X184856337Y-46012873D01*
X184833674Y-46026457D01*
X184809788Y-46037755D01*
X184784909Y-46046656D01*
X184759278Y-46053076D01*
X184733141Y-46056953D01*
X184706750Y-46058250D01*
X184168250Y-46058250D01*
X184141859Y-46056953D01*
X184115722Y-46053076D01*
X184090091Y-46046656D01*
X184065212Y-46037755D01*
X184041326Y-46026457D01*
X184018663Y-46012873D01*
X183997440Y-45997133D01*
X183977861Y-45979389D01*
X183960117Y-45959810D01*
X183944377Y-45938587D01*
X183930793Y-45915924D01*
X183919495Y-45892038D01*
X183910594Y-45867159D01*
X183904174Y-45841528D01*
X183900297Y-45815391D01*
X183899000Y-45789000D01*
X183899000Y-44825500D01*
X183900297Y-44799109D01*
X183904174Y-44772972D01*
X183910594Y-44747341D01*
X183919495Y-44722462D01*
X183930793Y-44698576D01*
X183944377Y-44675913D01*
X183960117Y-44654690D01*
X183977861Y-44635111D01*
X183997440Y-44617367D01*
X184018663Y-44601627D01*
X184041326Y-44588043D01*
X184065212Y-44576745D01*
X184090091Y-44567844D01*
X184115722Y-44561424D01*
X184141859Y-44557547D01*
X184168250Y-44556250D01*
X184706750Y-44556250D01*
X184733141Y-44557547D01*
X184733141Y-44557547D01*
G37*
D24*
X184437500Y-45307250D03*
D23*
G36*
X190214391Y-33151297D02*
G01*
X190240528Y-33155174D01*
X190266159Y-33161594D01*
X190291038Y-33170495D01*
X190314924Y-33181793D01*
X190337587Y-33195377D01*
X190358810Y-33211117D01*
X190378389Y-33228861D01*
X190396133Y-33248440D01*
X190411873Y-33269663D01*
X190425457Y-33292326D01*
X190436755Y-33316212D01*
X190445656Y-33341091D01*
X190452076Y-33366722D01*
X190455953Y-33392859D01*
X190457250Y-33419250D01*
X190457250Y-33957750D01*
X190455953Y-33984141D01*
X190452076Y-34010278D01*
X190445656Y-34035909D01*
X190436755Y-34060788D01*
X190425457Y-34084674D01*
X190411873Y-34107337D01*
X190396133Y-34128560D01*
X190378389Y-34148139D01*
X190358810Y-34165883D01*
X190337587Y-34181623D01*
X190314924Y-34195207D01*
X190291038Y-34206505D01*
X190266159Y-34215406D01*
X190240528Y-34221826D01*
X190214391Y-34225703D01*
X190188000Y-34227000D01*
X189224500Y-34227000D01*
X189198109Y-34225703D01*
X189171972Y-34221826D01*
X189146341Y-34215406D01*
X189121462Y-34206505D01*
X189097576Y-34195207D01*
X189074913Y-34181623D01*
X189053690Y-34165883D01*
X189034111Y-34148139D01*
X189016367Y-34128560D01*
X189000627Y-34107337D01*
X188987043Y-34084674D01*
X188975745Y-34060788D01*
X188966844Y-34035909D01*
X188960424Y-34010278D01*
X188956547Y-33984141D01*
X188955250Y-33957750D01*
X188955250Y-33419250D01*
X188956547Y-33392859D01*
X188960424Y-33366722D01*
X188966844Y-33341091D01*
X188975745Y-33316212D01*
X188987043Y-33292326D01*
X189000627Y-33269663D01*
X189016367Y-33248440D01*
X189034111Y-33228861D01*
X189053690Y-33211117D01*
X189074913Y-33195377D01*
X189097576Y-33181793D01*
X189121462Y-33170495D01*
X189146341Y-33161594D01*
X189171972Y-33155174D01*
X189198109Y-33151297D01*
X189224500Y-33150000D01*
X190188000Y-33150000D01*
X190214391Y-33151297D01*
X190214391Y-33151297D01*
G37*
D24*
X189706250Y-33688500D03*
D23*
G36*
X190214391Y-31276297D02*
G01*
X190240528Y-31280174D01*
X190266159Y-31286594D01*
X190291038Y-31295495D01*
X190314924Y-31306793D01*
X190337587Y-31320377D01*
X190358810Y-31336117D01*
X190378389Y-31353861D01*
X190396133Y-31373440D01*
X190411873Y-31394663D01*
X190425457Y-31417326D01*
X190436755Y-31441212D01*
X190445656Y-31466091D01*
X190452076Y-31491722D01*
X190455953Y-31517859D01*
X190457250Y-31544250D01*
X190457250Y-32082750D01*
X190455953Y-32109141D01*
X190452076Y-32135278D01*
X190445656Y-32160909D01*
X190436755Y-32185788D01*
X190425457Y-32209674D01*
X190411873Y-32232337D01*
X190396133Y-32253560D01*
X190378389Y-32273139D01*
X190358810Y-32290883D01*
X190337587Y-32306623D01*
X190314924Y-32320207D01*
X190291038Y-32331505D01*
X190266159Y-32340406D01*
X190240528Y-32346826D01*
X190214391Y-32350703D01*
X190188000Y-32352000D01*
X189224500Y-32352000D01*
X189198109Y-32350703D01*
X189171972Y-32346826D01*
X189146341Y-32340406D01*
X189121462Y-32331505D01*
X189097576Y-32320207D01*
X189074913Y-32306623D01*
X189053690Y-32290883D01*
X189034111Y-32273139D01*
X189016367Y-32253560D01*
X189000627Y-32232337D01*
X188987043Y-32209674D01*
X188975745Y-32185788D01*
X188966844Y-32160909D01*
X188960424Y-32135278D01*
X188956547Y-32109141D01*
X188955250Y-32082750D01*
X188955250Y-31544250D01*
X188956547Y-31517859D01*
X188960424Y-31491722D01*
X188966844Y-31466091D01*
X188975745Y-31441212D01*
X188987043Y-31417326D01*
X189000627Y-31394663D01*
X189016367Y-31373440D01*
X189034111Y-31353861D01*
X189053690Y-31336117D01*
X189074913Y-31320377D01*
X189097576Y-31306793D01*
X189121462Y-31295495D01*
X189146341Y-31286594D01*
X189171972Y-31280174D01*
X189198109Y-31276297D01*
X189224500Y-31275000D01*
X190188000Y-31275000D01*
X190214391Y-31276297D01*
X190214391Y-31276297D01*
G37*
D24*
X189706250Y-31813500D03*
D23*
G36*
X198945641Y-31132547D02*
G01*
X198971778Y-31136424D01*
X198997409Y-31142844D01*
X199022288Y-31151745D01*
X199046174Y-31163043D01*
X199068837Y-31176627D01*
X199090060Y-31192367D01*
X199109639Y-31210111D01*
X199127383Y-31229690D01*
X199143123Y-31250913D01*
X199156707Y-31273576D01*
X199168005Y-31297462D01*
X199176906Y-31322341D01*
X199183326Y-31347972D01*
X199187203Y-31374109D01*
X199188500Y-31400500D01*
X199188500Y-31939000D01*
X199187203Y-31965391D01*
X199183326Y-31991528D01*
X199176906Y-32017159D01*
X199168005Y-32042038D01*
X199156707Y-32065924D01*
X199143123Y-32088587D01*
X199127383Y-32109810D01*
X199109639Y-32129389D01*
X199090060Y-32147133D01*
X199068837Y-32162873D01*
X199046174Y-32176457D01*
X199022288Y-32187755D01*
X198997409Y-32196656D01*
X198971778Y-32203076D01*
X198945641Y-32206953D01*
X198919250Y-32208250D01*
X197955750Y-32208250D01*
X197929359Y-32206953D01*
X197903222Y-32203076D01*
X197877591Y-32196656D01*
X197852712Y-32187755D01*
X197828826Y-32176457D01*
X197806163Y-32162873D01*
X197784940Y-32147133D01*
X197765361Y-32129389D01*
X197747617Y-32109810D01*
X197731877Y-32088587D01*
X197718293Y-32065924D01*
X197706995Y-32042038D01*
X197698094Y-32017159D01*
X197691674Y-31991528D01*
X197687797Y-31965391D01*
X197686500Y-31939000D01*
X197686500Y-31400500D01*
X197687797Y-31374109D01*
X197691674Y-31347972D01*
X197698094Y-31322341D01*
X197706995Y-31297462D01*
X197718293Y-31273576D01*
X197731877Y-31250913D01*
X197747617Y-31229690D01*
X197765361Y-31210111D01*
X197784940Y-31192367D01*
X197806163Y-31176627D01*
X197828826Y-31163043D01*
X197852712Y-31151745D01*
X197877591Y-31142844D01*
X197903222Y-31136424D01*
X197929359Y-31132547D01*
X197955750Y-31131250D01*
X198919250Y-31131250D01*
X198945641Y-31132547D01*
X198945641Y-31132547D01*
G37*
D24*
X198437500Y-31669750D03*
D23*
G36*
X198945641Y-33007547D02*
G01*
X198971778Y-33011424D01*
X198997409Y-33017844D01*
X199022288Y-33026745D01*
X199046174Y-33038043D01*
X199068837Y-33051627D01*
X199090060Y-33067367D01*
X199109639Y-33085111D01*
X199127383Y-33104690D01*
X199143123Y-33125913D01*
X199156707Y-33148576D01*
X199168005Y-33172462D01*
X199176906Y-33197341D01*
X199183326Y-33222972D01*
X199187203Y-33249109D01*
X199188500Y-33275500D01*
X199188500Y-33814000D01*
X199187203Y-33840391D01*
X199183326Y-33866528D01*
X199176906Y-33892159D01*
X199168005Y-33917038D01*
X199156707Y-33940924D01*
X199143123Y-33963587D01*
X199127383Y-33984810D01*
X199109639Y-34004389D01*
X199090060Y-34022133D01*
X199068837Y-34037873D01*
X199046174Y-34051457D01*
X199022288Y-34062755D01*
X198997409Y-34071656D01*
X198971778Y-34078076D01*
X198945641Y-34081953D01*
X198919250Y-34083250D01*
X197955750Y-34083250D01*
X197929359Y-34081953D01*
X197903222Y-34078076D01*
X197877591Y-34071656D01*
X197852712Y-34062755D01*
X197828826Y-34051457D01*
X197806163Y-34037873D01*
X197784940Y-34022133D01*
X197765361Y-34004389D01*
X197747617Y-33984810D01*
X197731877Y-33963587D01*
X197718293Y-33940924D01*
X197706995Y-33917038D01*
X197698094Y-33892159D01*
X197691674Y-33866528D01*
X197687797Y-33840391D01*
X197686500Y-33814000D01*
X197686500Y-33275500D01*
X197687797Y-33249109D01*
X197691674Y-33222972D01*
X197698094Y-33197341D01*
X197706995Y-33172462D01*
X197718293Y-33148576D01*
X197731877Y-33125913D01*
X197747617Y-33104690D01*
X197765361Y-33085111D01*
X197784940Y-33067367D01*
X197806163Y-33051627D01*
X197828826Y-33038043D01*
X197852712Y-33026745D01*
X197877591Y-33017844D01*
X197903222Y-33011424D01*
X197929359Y-33007547D01*
X197955750Y-33006250D01*
X198919250Y-33006250D01*
X198945641Y-33007547D01*
X198945641Y-33007547D01*
G37*
D24*
X198437500Y-33544750D03*
M02*
